<?xml version="1.0" encoding="utf-8"?>
<!-- Generator: Adobe Illustrator 16.0.0, SVG Export Plug-In . SVG Version: 6.00 Build 0)  -->
<!DOCTYPE svg PUBLIC "-//W3C//DTD SVG 1.1//EN" "http://www.w3.org/Graphics/SVG/1.1/DTD/svg11.dtd">
<svg version="1.1" id="Layer_1" xmlns="http://www.w3.org/2000/svg" xmlns:xlink="http://www.w3.org/1999/xlink" x="0px" y="0px"
	 width="486px" height="594px" viewBox="0 0 243 297" enable-background="new 0 0 243 297" xml:space="preserve">
<g>
	<polygon fill="#FFFFFF" stroke="#D0D7DE" stroke-width="0.5" points="166.5,40.5 148.5,40.5 148.5,4.5 
		238.5,4.5 238.5,22.5 166.5,22.5 	"/>
	<text transform="matrix(1 0 0 1 176.4937 16.5)" font-family="Arial" font-weight="Bold" font-size="8.5">Address</text>
	<text transform="matrix(1 0 0 1 154.4307 34.5)" font-family="Arial" font-weight="Bold" font-size="8.5">A</text>
</g>
<g>
	<rect x="166.5" y="22.5" fill="#FFFFFF" stroke="#D0D7DE" stroke-width="0.5" width="18" height="18"/>
	<text transform="matrix(1 0 0 1 173.1362 34.5)" font-family="Arial" font-size="8.5">3</text>
</g>
<g>
	<rect x="184.5" y="22.5" fill="#FFFFFF" stroke="#D0D7DE" stroke-width="0.5" width="18" height="18"/>
	<text transform="matrix(1 0 0 1 191.1362 34.5)" font-family="Arial" font-size="8.5">2</text>
</g>
<g>
	<rect x="202.5" y="22.5" fill="#FFFFFF" stroke="#D0D7DE" stroke-width="0.5" width="18" height="18"/>
	<text transform="matrix(1 0 0 1 209.1362 34.5)" font-family="Arial" font-size="8.5">1</text>
</g>
<g>
	<rect x="220.5" y="22.5" fill="#FFFFFF" stroke="#D0D7DE" stroke-width="0.5" width="18" height="18"/>
	<text transform="matrix(1 0 0 1 227.1362 34.5)" font-family="Arial" font-size="8.5">0</text>
</g>
<g>
	<rect x="148.5" y="40.5" fill="#F6F8FA" stroke="#D0D7DE" stroke-width="0.5" width="18" height="18"/>
	<text transform="matrix(1 0 0 1 152.0674 52.5)" font-family="Arial" font-weight="Bold" font-size="8.5">A1</text>
</g>
<g>
	<rect x="166.5" y="40.5" fill="#F6F8FA" stroke="#D0D7DE" stroke-width="0.5" width="18" height="18"/>
	<text transform="matrix(1 0 0 1 173.1362 52.5)" font-family="Arial" font-size="8.5">1</text>
</g>
<g>
	<rect x="184.5" y="40.5" fill="#F6F8FA" stroke="#D0D7DE" stroke-width="0.5" width="18" height="18"/>
	<text transform="matrix(1 0 0 1 191.1362 52.5)" font-family="Arial" font-size="8.5">1</text>
</g>
<g>
	<rect x="202.5" y="40.5" fill="#F6F8FA" stroke="#D0D7DE" stroke-width="0.5" width="18" height="18"/>
	<text transform="matrix(1 0 0 1 209.1362 52.5)" font-family="Arial" font-size="8.5">0</text>
</g>
<g>
	<rect x="220.5" y="40.5" fill="#F6F8FA" stroke="#D0D7DE" stroke-width="0.5" width="18" height="18"/>
	<text transform="matrix(1 0 0 1 227.1362 52.5)" font-family="Arial" font-size="8.5">0</text>
</g>
<g>
	<polygon fill="#FFFFFF" stroke="#D0D7DE" stroke-width="0.5" points="22.5,76.5 4.5,76.5 4.5,40.5 
		94.5,40.5 94.5,58.5 22.5,58.5 	"/>
	<text transform="matrix(1 0 0 1 32.7285 52.5)" font-family="Arial" font-weight="Bold" font-size="8.5">Selector</text>
	<text transform="matrix(1 0 0 1 10.665 70.5)" font-family="Arial" font-weight="Bold" font-size="8.5">S</text>
</g>
<g>
	<rect x="22.5" y="58.5" fill="#FFFFFF" stroke="#D0D7DE" stroke-width="0.5" width="18" height="18"/>
	<text transform="matrix(1 0 0 1 26.3018 70.5)" font-family="Arial" font-weight="Bold" font-size="8.5">S3</text>
</g>
<g>
	<rect x="40.5" y="58.5" fill="#FFFFFF" stroke="#D0D7DE" stroke-width="0.5" width="18" height="18"/>
	<text transform="matrix(1 0 0 1 44.3018 70.5)" font-family="Arial" font-weight="Bold" font-size="8.5">S2</text>
</g>
<g>
	<rect x="58.5" y="58.5" fill="#FFFFFF" stroke="#D0D7DE" stroke-width="0.5" width="18" height="18"/>
	<text transform="matrix(1 0 0 1 62.3018 70.5)" font-family="Arial" font-weight="Bold" font-size="8.5">S1</text>
</g>
<g>
	<rect x="76.5" y="58.5" fill="#FFFFFF" stroke="#D0D7DE" stroke-width="0.5" width="18" height="18"/>
	<text transform="matrix(1 0 0 1 80.3018 70.5)" font-family="Arial" font-weight="Bold" font-size="8.5">S0</text>
</g>
<g>
	<rect x="94.5" y="58.5" fill="#FFFFFF" stroke="#D0D7DE" stroke-width="0.5" width="54" height="18"/>
	<text transform="matrix(1 0 0 1 99 70.5)" font-family="Arial" font-weight="Bold" font-size="8.5">Operation</text>
</g>
<g>
	<rect x="148.5" y="58.5" fill="#FFFFFF" stroke="#D0D7DE" stroke-width="0.5" width="18" height="18"/>
	<text transform="matrix(1 0 0 1 152.0674 70.5)" font-family="Arial" font-weight="Bold" font-size="8.5">A0</text>
</g>
<g>
	<rect x="166.5" y="58.5" fill="#FFFFFF" stroke="#D0D7DE" stroke-width="0.5" width="18" height="18"/>
	<text transform="matrix(1 0 0 1 173.1362 70.5)" font-family="Arial" font-size="8.5">1</text>
</g>
<g>
	<rect x="184.5" y="58.5" fill="#FFFFFF" stroke="#D0D7DE" stroke-width="0.5" width="18" height="18"/>
	<text transform="matrix(1 0 0 1 191.1362 70.5)" font-family="Arial" font-size="8.5">0</text>
</g>
<g>
	<rect x="202.5" y="58.5" fill="#FFFFFF" stroke="#D0D7DE" stroke-width="0.5" width="18" height="18"/>
	<text transform="matrix(1 0 0 1 209.1362 70.5)" font-family="Arial" font-size="8.5">1</text>
</g>
<g>
	<rect x="220.5" y="58.5" fill="#FFFFFF" stroke="#D0D7DE" stroke-width="0.5" width="18" height="18"/>
	<text transform="matrix(1 0 0 1 227.1362 70.5)" font-family="Arial" font-size="8.5">0</text>
</g>
<g>
	<rect x="4.5" y="76.5" fill="#F6F8FA" stroke="#D0D7DE" stroke-width="0.5" width="18" height="18"/>
	<text transform="matrix(1 0 0 1 11.1362 88.5)" font-family="Arial" font-size="8.5">0</text>
</g>
<g>
	<rect x="22.5" y="76.5" fill="#F6F8FA" stroke="#D0D7DE" stroke-width="0.5" width="18" height="18"/>
	<text transform="matrix(1 0 0 1 29.1362 88.5)" font-family="Arial" font-size="8.5">0</text>
</g>
<g>
	<rect x="40.5" y="76.5" fill="#F6F8FA" stroke="#D0D7DE" stroke-width="0.5" width="18" height="18"/>
	<text transform="matrix(1 0 0 1 47.1362 88.5)" font-family="Arial" font-size="8.5">0</text>
</g>
<g>
	<rect x="58.5" y="76.5" fill="#F6F8FA" stroke="#D0D7DE" stroke-width="0.5" width="18" height="18"/>
	<text transform="matrix(1 0 0 1 65.1362 88.5)" font-family="Arial" font-size="8.5">0</text>
</g>
<g>
	<rect x="76.5" y="76.5" fill="#F6F8FA" stroke="#D0D7DE" stroke-width="0.5" width="18" height="18"/>
	<text transform="matrix(1 0 0 1 83.1362 88.5)" font-family="Arial" font-size="8.5">0</text>
</g>
<g>
	<rect x="94.5" y="76.5" fill="#F6F8FA" stroke="#D0D7DE" stroke-width="0.5" width="72" height="18"/>
	<text transform="matrix(1 0 0 1 99 88)" font-family="Courier New" font-size="8.5">A</text>
</g>
<g>
	<rect x="166.5" y="76.5" fill="#F6F8FA" stroke="#D0D7DE" stroke-width="0.5" width="36" height="18"/>
	<text transform="matrix(1 0 0 1 178.5962 88.5)" font-family="Arial" font-size="8.5">AH</text>
</g>
<g>
	<rect x="202.5" y="76.5" fill="#F6F8FA" stroke="#D0D7DE" stroke-width="0.5" width="36" height="18"/>
	<text transform="matrix(1 0 0 1 215.3018 88.5)" font-family="Arial" font-size="8.5">AL</text>
</g>
<g>
	<rect x="4.5" y="94.5" fill="#FFFFFF" stroke="#D0D7DE" stroke-width="0.5" width="18" height="18"/>
	<text transform="matrix(1 0 0 1 11.1362 106.5)" font-family="Arial" font-size="8.5">1</text>
</g>
<g>
	<rect x="22.5" y="94.5" fill="#FFFFFF" stroke="#D0D7DE" stroke-width="0.5" width="18" height="18"/>
	<text transform="matrix(1 0 0 1 29.1362 106.5)" font-family="Arial" font-size="8.5">0</text>
</g>
<g>
	<rect x="40.5" y="94.5" fill="#FFFFFF" stroke="#D0D7DE" stroke-width="0.5" width="18" height="18"/>
	<text transform="matrix(1 0 0 1 47.1362 106.5)" font-family="Arial" font-size="8.5">0</text>
</g>
<g>
	<rect x="58.5" y="94.5" fill="#FFFFFF" stroke="#D0D7DE" stroke-width="0.5" width="18" height="18"/>
	<text transform="matrix(1 0 0 1 65.1362 106.5)" font-family="Arial" font-size="8.5">0</text>
</g>
<g>
	<rect x="76.5" y="94.5" fill="#FFFFFF" stroke="#D0D7DE" stroke-width="0.5" width="18" height="18"/>
	<text transform="matrix(1 0 0 1 83.1362 106.5)" font-family="Arial" font-size="8.5">1</text>
</g>
<g>
	<rect x="94.5" y="94.5" fill="#FFFFFF" stroke="#D0D7DE" stroke-width="0.5" width="72" height="18"/>
	<text transform="matrix(1 0 0 1 99 106)" font-family="Courier New" font-size="8.5">B</text>
</g>
<g>
	<rect x="166.5" y="94.5" fill="#FFFFFF" stroke="#D0D7DE" stroke-width="0.5" width="36" height="18"/>
	<text transform="matrix(1 0 0 1 178.5962 106.5)" font-family="Arial" font-size="8.5">BH</text>
</g>
<g>
	<rect x="202.5" y="94.5" fill="#FFFFFF" stroke="#D0D7DE" stroke-width="0.5" width="36" height="18"/>
	<text transform="matrix(1 0 0 1 215.3018 106.5)" font-family="Arial" font-size="8.5">BL</text>
</g>
<g>
	<rect x="4.5" y="112.5" fill="#F6F8FA" stroke="#D0D7DE" stroke-width="0.5" width="18" height="18"/>
	<text transform="matrix(1 0 0 1 11.1362 124.5)" font-family="Arial" font-size="8.5">2</text>
</g>
<g>
	<rect x="22.5" y="112.5" fill="#F6F8FA" stroke="#D0D7DE" stroke-width="0.5" width="18" height="18"/>
	<text transform="matrix(1 0 0 1 29.1362 124.5)" font-family="Arial" font-size="8.5">0</text>
</g>
<g>
	<rect x="40.5" y="112.5" fill="#F6F8FA" stroke="#D0D7DE" stroke-width="0.5" width="18" height="18"/>
	<text transform="matrix(1 0 0 1 47.1362 124.5)" font-family="Arial" font-size="8.5">0</text>
</g>
<g>
	<rect x="58.5" y="112.5" fill="#F6F8FA" stroke="#D0D7DE" stroke-width="0.5" width="18" height="18"/>
	<text transform="matrix(1 0 0 1 65.1362 124.5)" font-family="Arial" font-size="8.5">1</text>
</g>
<g>
	<rect x="76.5" y="112.5" fill="#F6F8FA" stroke="#D0D7DE" stroke-width="0.5" width="18" height="18"/>
	<text transform="matrix(1 0 0 1 83.1362 124.5)" font-family="Arial" font-size="8.5">0</text>
</g>
<g>
	<rect x="94.5" y="112.5" fill="#F6F8FA" stroke="#D0D7DE" stroke-width="0.5" width="72" height="18"/>
	<text transform="matrix(1 0 0 1 99 124)" font-family="Courier New" font-size="8.5">AND16</text>
</g>
<g>
	<rect x="166.5" y="112.5" fill="#F6F8FA" stroke="#D0D7DE" stroke-width="0.5" width="36" height="18"/>
	<text transform="matrix(1 0 0 1 174.5806 124.5)" font-family="Arial" font-size="8.5">&amp; AH</text>
</g>
<g>
	<rect x="202.5" y="112.5" fill="#F6F8FA" stroke="#D0D7DE" stroke-width="0.5" width="36" height="18"/>
	<text transform="matrix(1 0 0 1 211.2861 124.5)" font-family="Arial" font-size="8.5">&amp; AL</text>
</g>
<g>
	<rect x="4.5" y="130.5" fill="#FFFFFF" stroke="#D0D7DE" stroke-width="0.5" width="18" height="18"/>
	<text transform="matrix(1 0 0 1 11.1362 142.5)" font-family="Arial" font-size="8.5">3</text>
</g>
<g>
	<rect x="22.5" y="130.5" fill="#FFFFFF" stroke="#D0D7DE" stroke-width="0.5" width="18" height="18"/>
	<text transform="matrix(1 0 0 1 29.1362 142.5)" font-family="Arial" font-size="8.5">0</text>
</g>
<g>
	<rect x="40.5" y="130.5" fill="#FFFFFF" stroke="#D0D7DE" stroke-width="0.5" width="18" height="18"/>
	<text transform="matrix(1 0 0 1 47.1362 142.5)" font-family="Arial" font-size="8.5">0</text>
</g>
<g>
	<rect x="58.5" y="130.5" fill="#FFFFFF" stroke="#D0D7DE" stroke-width="0.5" width="18" height="18"/>
	<text transform="matrix(1 0 0 1 65.1362 142.5)" font-family="Arial" font-size="8.5">1</text>
</g>
<g>
	<rect x="76.5" y="130.5" fill="#FFFFFF" stroke="#D0D7DE" stroke-width="0.5" width="18" height="18"/>
	<text transform="matrix(1 0 0 1 83.1362 142.5)" font-family="Arial" font-size="8.5">1</text>
</g>
<g>
	<rect x="94.5" y="130.5" fill="#FFFFFF" stroke="#D0D7DE" stroke-width="0.5" width="72" height="18"/>
	<text transform="matrix(1 0 0 1 99 142)" font-family="Courier New" font-size="8.5">AND32</text>
</g>
<g>
	<rect x="166.5" y="130.5" fill="#FFFFFF" stroke="#D0D7DE" stroke-width="0.5" width="72" height="18"/>
	<text transform="matrix(1 0 0 1 195.6499 142.5)" font-family="Arial" font-size="8.5">&amp; A</text>
</g>
<g>
	<rect x="4.5" y="148.5" fill="#F6F8FA" stroke="#D0D7DE" stroke-width="0.5" width="18" height="18"/>
	<text transform="matrix(1 0 0 1 11.1362 160.5)" font-family="Arial" font-size="8.5">4</text>
</g>
<g>
	<rect x="22.5" y="148.5" fill="#F6F8FA" stroke="#D0D7DE" stroke-width="0.5" width="18" height="18"/>
	<text transform="matrix(1 0 0 1 29.1362 160.5)" font-family="Arial" font-size="8.5">0</text>
</g>
<g>
	<rect x="40.5" y="148.5" fill="#F6F8FA" stroke="#D0D7DE" stroke-width="0.5" width="18" height="18"/>
	<text transform="matrix(1 0 0 1 47.1362 160.5)" font-family="Arial" font-size="8.5">1</text>
</g>
<g>
	<rect x="58.5" y="148.5" fill="#F6F8FA" stroke="#D0D7DE" stroke-width="0.5" width="18" height="18"/>
	<text transform="matrix(1 0 0 1 65.1362 160.5)" font-family="Arial" font-size="8.5">0</text>
</g>
<g>
	<rect x="76.5" y="148.5" fill="#F6F8FA" stroke="#D0D7DE" stroke-width="0.5" width="18" height="18"/>
	<text transform="matrix(1 0 0 1 83.1362 160.5)" font-family="Arial" font-size="8.5">0</text>
</g>
<g>
	<rect x="94.5" y="148.5" fill="#F6F8FA" stroke="#D0D7DE" stroke-width="0.5" width="72" height="18"/>
	<text transform="matrix(1 0 0 1 99 160)" font-family="Courier New" font-size="8.5">OR16</text>
</g>
<g>
	<rect x="166.5" y="148.5" fill="#F6F8FA" stroke="#D0D7DE" stroke-width="0.5" width="36" height="18"/>
	<text transform="matrix(1 0 0 1 174.5806 160.5)" font-family="Arial" font-size="8.5">V AH</text>
</g>
<g>
	<rect x="202.5" y="148.5" fill="#F6F8FA" stroke="#D0D7DE" stroke-width="0.5" width="36" height="18"/>
	<text transform="matrix(1 0 0 1 211.2861 160.5)" font-family="Arial" font-size="8.5">V AL</text>
</g>
<g>
	<rect x="4.5" y="166.5" fill="#FFFFFF" stroke="#D0D7DE" stroke-width="0.5" width="18" height="18"/>
	<text transform="matrix(1 0 0 1 11.1362 178.5)" font-family="Arial" font-size="8.5">5</text>
</g>
<g>
	<rect x="22.5" y="166.5" fill="#FFFFFF" stroke="#D0D7DE" stroke-width="0.5" width="18" height="18"/>
	<text transform="matrix(1 0 0 1 29.1362 178.5)" font-family="Arial" font-size="8.5">0</text>
</g>
<g>
	<rect x="40.5" y="166.5" fill="#FFFFFF" stroke="#D0D7DE" stroke-width="0.5" width="18" height="18"/>
	<text transform="matrix(1 0 0 1 47.1362 178.5)" font-family="Arial" font-size="8.5">1</text>
</g>
<g>
	<rect x="58.5" y="166.5" fill="#FFFFFF" stroke="#D0D7DE" stroke-width="0.5" width="18" height="18"/>
	<text transform="matrix(1 0 0 1 65.1362 178.5)" font-family="Arial" font-size="8.5">0</text>
</g>
<g>
	<rect x="76.5" y="166.5" fill="#FFFFFF" stroke="#D0D7DE" stroke-width="0.5" width="18" height="18"/>
	<text transform="matrix(1 0 0 1 83.1362 178.5)" font-family="Arial" font-size="8.5">1</text>
</g>
<g>
	<rect x="94.5" y="166.5" fill="#FFFFFF" stroke="#D0D7DE" stroke-width="0.5" width="72" height="18"/>
	<text transform="matrix(1 0 0 1 99 178)" font-family="Courier New" font-size="8.5">OR32</text>
</g>
<g>
	<rect x="166.5" y="166.5" fill="#FFFFFF" stroke="#D0D7DE" stroke-width="0.5" width="72" height="18"/>
	<text transform="matrix(1 0 0 1 195.6499 178.5)" font-family="Arial" font-size="8.5">V A</text>
</g>
<g>
	<rect x="4.5" y="184.5" fill="#F6F8FA" stroke="#D0D7DE" stroke-width="0.5" width="18" height="18"/>
	<text transform="matrix(1 0 0 1 11.1362 196.5)" font-family="Arial" font-size="8.5">6</text>
</g>
<g>
	<rect x="22.5" y="184.5" fill="#F6F8FA" stroke="#D0D7DE" stroke-width="0.5" width="18" height="18"/>
	<text transform="matrix(1 0 0 1 29.1362 196.5)" font-family="Arial" font-size="8.5">0</text>
</g>
<g>
	<rect x="40.5" y="184.5" fill="#F6F8FA" stroke="#D0D7DE" stroke-width="0.5" width="18" height="18"/>
	<text transform="matrix(1 0 0 1 47.1362 196.5)" font-family="Arial" font-size="8.5">1</text>
</g>
<g>
	<rect x="58.5" y="184.5" fill="#F6F8FA" stroke="#D0D7DE" stroke-width="0.5" width="18" height="18"/>
	<text transform="matrix(1 0 0 1 65.1362 196.5)" font-family="Arial" font-size="8.5">1</text>
</g>
<g>
	<rect x="76.5" y="184.5" fill="#F6F8FA" stroke="#D0D7DE" stroke-width="0.5" width="18" height="18"/>
	<text transform="matrix(1 0 0 1 83.1362 196.5)" font-family="Arial" font-size="8.5">0</text>
</g>
<g>
	<rect x="94.5" y="184.5" fill="#F6F8FA" stroke="#D0D7DE" stroke-width="0.5" width="72" height="18"/>
	<text transform="matrix(1 0 0 1 99 196)" font-family="Courier New" font-size="8.5">XOR16</text>
</g>
<g>
	<rect x="166.5" y="184.5" fill="#F6F8FA" stroke="#D0D7DE" stroke-width="0.5" width="36" height="18"/>
	<text transform="matrix(1 0 0 1 175.0518 196.5)" font-family="Arial" font-size="8.5">? AH</text>
</g>
<g>
	<rect x="202.5" y="184.5" fill="#F6F8FA" stroke="#D0D7DE" stroke-width="0.5" width="36" height="18"/>
	<text transform="matrix(1 0 0 1 211.7573 196.5)" font-family="Arial" font-size="8.5">? AL</text>
</g>
<g>
	<rect x="4.5" y="202.5" fill="#FFFFFF" stroke="#D0D7DE" stroke-width="0.5" width="18" height="18"/>
	<text transform="matrix(1 0 0 1 11.1362 214.5)" font-family="Arial" font-size="8.5">7</text>
</g>
<g>
	<rect x="22.5" y="202.5" fill="#FFFFFF" stroke="#D0D7DE" stroke-width="0.5" width="18" height="18"/>
	<text transform="matrix(1 0 0 1 29.1362 214.5)" font-family="Arial" font-size="8.5">0</text>
</g>
<g>
	<rect x="40.5" y="202.5" fill="#FFFFFF" stroke="#D0D7DE" stroke-width="0.5" width="18" height="18"/>
	<text transform="matrix(1 0 0 1 47.1362 214.5)" font-family="Arial" font-size="8.5">1</text>
</g>
<g>
	<rect x="58.5" y="202.5" fill="#FFFFFF" stroke="#D0D7DE" stroke-width="0.5" width="18" height="18"/>
	<text transform="matrix(1 0 0 1 65.1362 214.5)" font-family="Arial" font-size="8.5">1</text>
</g>
<g>
	<rect x="76.5" y="202.5" fill="#FFFFFF" stroke="#D0D7DE" stroke-width="0.5" width="18" height="18"/>
	<text transform="matrix(1 0 0 1 83.1362 214.5)" font-family="Arial" font-size="8.5">1</text>
</g>
<g>
	<rect x="94.5" y="202.5" fill="#FFFFFF" stroke="#D0D7DE" stroke-width="0.5" width="72" height="18"/>
	<text transform="matrix(1 0 0 1 99 214)" font-family="Courier New" font-size="8.5">XOR32</text>
</g>
<g>
	<rect x="166.5" y="202.5" fill="#FFFFFF" stroke="#D0D7DE" stroke-width="0.5" width="72" height="18"/>
	<text transform="matrix(1 0 0 1 196.1211 214.5)" font-family="Arial" font-size="8.5">? A</text>
</g>
<g>
	<rect x="4.5" y="220.5" fill="#F6F8FA" stroke="#D0D7DE" stroke-width="0.5" width="18" height="18"/>
	<text transform="matrix(1 0 0 1 11.1362 232.5)" font-family="Arial" font-size="8.5">8</text>
</g>
<g>
	<rect x="22.5" y="220.5" fill="#F6F8FA" stroke="#D0D7DE" stroke-width="0.5" width="18" height="18"/>
	<text transform="matrix(1 0 0 1 29.1362 232.5)" font-family="Arial" font-size="8.5">1</text>
</g>
<g>
	<rect x="40.5" y="220.5" fill="#F6F8FA" stroke="#D0D7DE" stroke-width="0.5" width="18" height="18"/>
	<text transform="matrix(1 0 0 1 47.1362 232.5)" font-family="Arial" font-size="8.5">0</text>
</g>
<g>
	<rect x="58.5" y="220.5" fill="#F6F8FA" stroke="#D0D7DE" stroke-width="0.5" width="18" height="18"/>
	<text transform="matrix(1 0 0 1 65.1362 232.5)" font-family="Arial" font-size="8.5">0</text>
</g>
<g>
	<rect x="76.5" y="220.5" fill="#F6F8FA" stroke="#D0D7DE" stroke-width="0.5" width="18" height="18"/>
	<text transform="matrix(1 0 0 1 83.1362 232.5)" font-family="Arial" font-size="8.5">0</text>
</g>
<g>
	<rect x="94.5" y="220.5" fill="#F6F8FA" stroke="#D0D7DE" stroke-width="0.5" width="72" height="18"/>
	<text transform="matrix(1 0 0 1 99 232)" font-family="Courier New" font-size="8.5">MINGLE16L</text>
</g>
<g>
	<rect x="166.5" y="220.5" fill="#F6F8FA" stroke="#D0D7DE" stroke-width="0.5" width="72" height="18"/>
	<text transform="matrix(1 0 0 1 187.3779 232.5)" font-family="Arial" font-size="8.5">AL $ BL</text>
</g>
<g>
	<rect x="4.5" y="238.5" fill="#FFFFFF" stroke="#D0D7DE" stroke-width="0.5" width="18" height="18"/>
	<text transform="matrix(1 0 0 1 11.1362 250.5)" font-family="Arial" font-size="8.5">9</text>
</g>
<g>
	<rect x="22.5" y="238.5" fill="#FFFFFF" stroke="#D0D7DE" stroke-width="0.5" width="18" height="18"/>
	<text transform="matrix(1 0 0 1 29.1362 250.5)" font-family="Arial" font-size="8.5">1</text>
</g>
<g>
	<rect x="40.5" y="238.5" fill="#FFFFFF" stroke="#D0D7DE" stroke-width="0.5" width="18" height="18"/>
	<text transform="matrix(1 0 0 1 47.1362 250.5)" font-family="Arial" font-size="8.5">0</text>
</g>
<g>
	<rect x="58.5" y="238.5" fill="#FFFFFF" stroke="#D0D7DE" stroke-width="0.5" width="18" height="18"/>
	<text transform="matrix(1 0 0 1 65.1362 250.5)" font-family="Arial" font-size="8.5">0</text>
</g>
<g>
	<rect x="76.5" y="238.5" fill="#FFFFFF" stroke="#D0D7DE" stroke-width="0.5" width="18" height="18"/>
	<text transform="matrix(1 0 0 1 83.1362 250.5)" font-family="Arial" font-size="8.5">1</text>
</g>
<g>
	<rect x="94.5" y="238.5" fill="#FFFFFF" stroke="#D0D7DE" stroke-width="0.5" width="72" height="18"/>
	<text transform="matrix(1 0 0 1 99 250)" font-family="Courier New" font-size="8.5">MINGLE16H</text>
</g>
<g>
	<rect x="166.5" y="238.5" fill="#FFFFFF" stroke="#D0D7DE" stroke-width="0.5" width="72" height="18"/>
	<text transform="matrix(1 0 0 1 185.9668 250.5)" font-family="Arial" font-size="8.5">AH $ BH</text>
</g>
<g>
	<rect x="4.5" y="256.5" fill="#F6F8FA" stroke="#D0D7DE" stroke-width="0.5" width="18" height="18"/>
	<text transform="matrix(1 0 0 1 8.7725 268.5)" font-family="Arial" font-size="8.5">10</text>
</g>
<g>
	<rect x="22.5" y="256.5" fill="#F6F8FA" stroke="#D0D7DE" stroke-width="0.5" width="18" height="18"/>
	<text transform="matrix(1 0 0 1 29.1362 268.5)" font-family="Arial" font-size="8.5">1</text>
</g>
<g>
	<rect x="40.5" y="256.5" fill="#F6F8FA" stroke="#D0D7DE" stroke-width="0.5" width="18" height="18"/>
	<text transform="matrix(1 0 0 1 47.1362 268.5)" font-family="Arial" font-size="8.5">0</text>
</g>
<g>
	<rect x="58.5" y="256.5" fill="#F6F8FA" stroke="#D0D7DE" stroke-width="0.5" width="18" height="18"/>
	<text transform="matrix(1 0 0 1 65.1362 268.5)" font-family="Arial" font-size="8.5">1</text>
</g>
<g>
	<rect x="76.5" y="256.5" fill="#F6F8FA" stroke="#D0D7DE" stroke-width="0.5" width="18" height="18"/>
	<text transform="matrix(1 0 0 1 83.1362 268.5)" font-family="Arial" font-size="8.5">0</text>
</g>
<g>
	<rect x="94.5" y="256.5" fill="#F6F8FA" stroke="#D0D7DE" stroke-width="0.5" width="72" height="18"/>
	<text transform="matrix(1 0 0 1 99 268)" font-family="Courier New" font-size="8.5">SELECT16</text>
</g>
<g>
	<rect x="166.5" y="256.5" fill="#F6F8FA" stroke="#D0D7DE" stroke-width="0.5" width="36" height="18"/>
	<text transform="matrix(1 0 0 1 169.624 268.5)"><tspan x="0" y="0" font-family="Arial" font-size="8.5">AH</tspan><tspan x="11.383" y="0" font-family="Arial" font-size="4"> </tspan><tspan x="12.394" y="0" font-family="Arial" font-size="8.5">~</tspan><tspan x="17.146" y="0" font-family="Arial" font-size="4"> </tspan><tspan x="18.157" y="0" font-family="Arial" font-size="8.5">BH</tspan></text>
</g>
<g>
	<rect x="202.5" y="256.5" fill="#F6F8FA" stroke="#D0D7DE" stroke-width="0.5" width="36" height="18"/>
	<text transform="matrix(1 0 0 1 206.5098 268.5)"><tspan x="0" y="0" font-family="Arial" font-size="8.5">AL</tspan><tspan x="10.396" y="0" font-family="Arial" font-size="4"> </tspan><tspan x="11.508" y="0" font-family="Arial" font-size="8.5">~</tspan><tspan x="16.472" y="0" font-family="Arial" font-size="4"> </tspan><tspan x="17.583" y="0" font-family="Arial" font-size="8.5">BL</tspan></text>
</g>
<g>
	<rect x="4.5" y="274.5" fill="#FFFFFF" stroke="#D0D7DE" stroke-width="0.5" width="18" height="18"/>
	<text transform="matrix(1 0 0 1 8.7725 286.5)" font-family="Arial" font-size="8.5">11</text>
</g>
<g>
	<rect x="22.5" y="274.5" fill="#FFFFFF" stroke="#D0D7DE" stroke-width="0.5" width="18" height="18"/>
	<text transform="matrix(1 0 0 1 29.1362 286.5)" font-family="Arial" font-size="8.5">1</text>
</g>
<g>
	<rect x="40.5" y="274.5" fill="#FFFFFF" stroke="#D0D7DE" stroke-width="0.5" width="18" height="18"/>
	<text transform="matrix(1 0 0 1 47.1362 286.5)" font-family="Arial" font-size="8.5">0</text>
</g>
<g>
	<rect x="58.5" y="274.5" fill="#FFFFFF" stroke="#D0D7DE" stroke-width="0.5" width="18" height="18"/>
	<text transform="matrix(1 0 0 1 65.1362 286.5)" font-family="Arial" font-size="8.5">1</text>
</g>
<g>
	<rect x="76.5" y="274.5" fill="#FFFFFF" stroke="#D0D7DE" stroke-width="0.5" width="18" height="18"/>
	<text transform="matrix(1 0 0 1 83.1362 286.5)" font-family="Arial" font-size="8.5">1</text>
</g>
<g>
	<rect x="94.5" y="274.5" fill="#FFFFFF" stroke="#D0D7DE" stroke-width="0.5" width="72" height="18"/>
	<text transform="matrix(1 0 0 1 99 286)" font-family="Courier New" font-size="8.5">SELECT32</text>
</g>
<g>
	<rect x="166.5" y="274.5" fill="#FFFFFF" stroke="#D0D7DE" stroke-width="0.5" width="72" height="18"/>
	<text transform="matrix(1 0 0 1 191.9873 286.5)" font-family="Arial" font-size="8.5">A ~ B</text>
</g>
</svg>
