<?xml version="1.0" encoding="UTF-8" standalone="no"?>
<!DOCTYPE svg PUBLIC "-//W3C//DTD SVG 1.1//EN"
 "http://www.w3.org/Graphics/SVG/1.1/DTD/svg11.dtd">
<!-- Generated by graphviz version 2.43.0 (0)
 -->
<!-- Title: %3 Pages: 1 -->
<svg width="385pt" height="1080pt"
 viewBox="0.00 0.00 384.50 1080.00" xmlns="http://www.w3.org/2000/svg" xmlns:xlink="http://www.w3.org/1999/xlink">
<g id="graph0" class="graph" transform="scale(1 1) rotate(0) translate(4 1076)">
<title>%3</title>
<polygon fill="white" stroke="transparent" points="-4,4 -4,-1076 380.5,-1076 380.5,4 -4,4"/>
<!-- add1 -->
<g id="node1" class="node">
<title>add1</title>
<ellipse fill="none" stroke="black" cx="272.5" cy="-1054" rx="33.6" ry="18"/>
<text text-anchor="middle" x="272.5" y="-1050.3" font-family="Times,serif" font-size="14.00">add1</text>
</g>
<!-- BUFI1 -->
<g id="node2" class="node">
<title>BUFI1</title>
<polygon fill="none" stroke="black" points="272,-999 209,-999 209,-963 272,-963 272,-999"/>
<text text-anchor="middle" x="240.5" y="-977.3" font-family="Times,serif" font-size="14.00">BUFI1</text>
</g>
<!-- add1&#45;&gt;BUFI1 -->
<g id="edge1" class="edge">
<title>add1&#45;&gt;BUFI1</title>
<path fill="none" stroke="black" d="M264.92,-1036.17C261.19,-1027.9 256.6,-1017.72 252.42,-1008.44"/>
<polygon fill="black" stroke="black" points="255.55,-1006.88 248.25,-999.2 249.17,-1009.75 255.55,-1006.88"/>
</g>
<!-- BUFI2 -->
<g id="node3" class="node">
<title>BUFI2</title>
<polygon fill="none" stroke="black" points="262,-926 199,-926 199,-890 262,-890 262,-926"/>
<text text-anchor="middle" x="230.5" y="-904.3" font-family="Times,serif" font-size="14.00">BUFI2</text>
</g>
<!-- BUFI1&#45;&gt;BUFI2 -->
<g id="edge2" class="edge">
<title>BUFI1&#45;&gt;BUFI2</title>
<path fill="none" stroke="black" d="M238.08,-962.81C236.95,-954.79 235.58,-945.05 234.31,-936.07"/>
<polygon fill="black" stroke="black" points="237.76,-935.44 232.9,-926.03 230.83,-936.42 237.76,-935.44"/>
</g>
<!-- BUFI3_valid_0 -->
<g id="node4" class="node">
<title>BUFI3_valid_0</title>
<polygon fill="none" stroke="black" points="274.5,-853 154.5,-853 154.5,-817 274.5,-817 274.5,-853"/>
<text text-anchor="middle" x="214.5" y="-831.3" font-family="Times,serif" font-size="14.00">BUFI3_valid_0</text>
</g>
<!-- BUFI2&#45;&gt;BUFI3_valid_0 -->
<g id="edge3" class="edge">
<title>BUFI2&#45;&gt;BUFI3_valid_0</title>
<path fill="none" stroke="black" d="M226.63,-889.81C224.82,-881.79 222.62,-872.05 220.6,-863.07"/>
<polygon fill="black" stroke="black" points="223.95,-862.01 218.34,-853.03 217.12,-863.55 223.95,-862.01"/>
</g>
<!-- FORK -->
<g id="node5" class="node">
<title>FORK</title>
<polygon fill="none" stroke="black" points="258.5,-780 204.04,-762 258.5,-744 312.96,-762 258.5,-780"/>
<text text-anchor="middle" x="258.5" y="-758.3" font-family="Times,serif" font-size="14.00">FORK</text>
</g>
<!-- BUFI3_valid_0&#45;&gt;FORK -->
<g id="edge4" class="edge">
<title>BUFI3_valid_0&#45;&gt;FORK</title>
<path fill="none" stroke="black" d="M225.15,-816.81C230.92,-807.51 238.11,-795.9 244.34,-785.85"/>
<polygon fill="black" stroke="black" points="247.43,-787.51 249.72,-777.17 241.48,-783.82 247.43,-787.51"/>
</g>
<!-- FORK&#45;&gt;add1 -->
<g id="edge5" class="edge">
<title>FORK&#45;&gt;add1</title>
<path fill="none" stroke="black" d="M272.42,-775.68C285.31,-788.86 302.5,-810.8 302.5,-834 302.5,-982 302.5,-982 302.5,-982 302.5,-998.15 295.83,-1014.86 288.78,-1028"/>
<polygon fill="black" stroke="black" points="285.62,-1026.47 283.67,-1036.89 291.69,-1029.96 285.62,-1026.47"/>
</g>
<!-- JOIN -->
<g id="node6" class="node">
<title>JOIN</title>
<ellipse fill="none" stroke="black" cx="258.5" cy="-675" rx="32.49" ry="18"/>
<text text-anchor="middle" x="258.5" y="-671.3" font-family="Times,serif" font-size="14.00">JOIN</text>
</g>
<!-- FORK&#45;&gt;JOIN -->
<g id="edge6" class="edge">
<title>FORK&#45;&gt;JOIN</title>
<path fill="none" stroke="black" d="M258.5,-743.8C258.5,-732.16 258.5,-716.55 258.5,-703.24"/>
<polygon fill="black" stroke="black" points="262,-703.18 258.5,-693.18 255,-703.18 262,-703.18"/>
<text text-anchor="middle" x="313.5" y="-714.8" font-family="Times,serif" font-size="14.00">replicate thrice</text>
</g>
<!-- MERGE -->
<g id="node8" class="node">
<title>MERGE</title>
<ellipse fill="none" stroke="black" cx="150.5" cy="-602" rx="48.19" ry="18"/>
<text text-anchor="middle" x="150.5" y="-598.3" font-family="Times,serif" font-size="14.00">MERGE</text>
</g>
<!-- JOIN&#45;&gt;MERGE -->
<g id="edge8" class="edge">
<title>JOIN&#45;&gt;MERGE</title>
<path fill="none" stroke="black" d="M238.44,-660.81C222.61,-650.4 200.23,-635.69 182.01,-623.72"/>
<polygon fill="black" stroke="black" points="183.73,-620.66 173.45,-618.09 179.88,-626.5 183.73,-620.66"/>
</g>
<!-- BUF11_valid -->
<g id="node7" class="node">
<title>BUF11_valid</title>
<polygon fill="none" stroke="black" points="376.5,-182 268.5,-182 268.5,-146 376.5,-146 376.5,-182"/>
<text text-anchor="middle" x="322.5" y="-160.3" font-family="Times,serif" font-size="14.00">BUF11_valid</text>
</g>
<!-- BUF11_valid&#45;&gt;JOIN -->
<g id="edge7" class="edge">
<title>BUF11_valid&#45;&gt;JOIN</title>
<path fill="none" stroke="black" d="M330.94,-182.05C337.15,-196.16 344.5,-216.9 344.5,-236 344.5,-603 344.5,-603 344.5,-603 344.5,-630.35 318.32,-649.13 294.85,-660.48"/>
<polygon fill="black" stroke="black" points="293.38,-657.3 285.71,-664.6 296.27,-663.68 293.38,-657.3"/>
</g>
<!-- BUF2 -->
<g id="node10" class="node">
<title>BUF2</title>
<polygon fill="none" stroke="black" points="179.5,-547 121.5,-547 121.5,-511 179.5,-511 179.5,-547"/>
<text text-anchor="middle" x="150.5" y="-525.3" font-family="Times,serif" font-size="14.00">BUF2</text>
</g>
<!-- MERGE&#45;&gt;BUF2 -->
<g id="edge10" class="edge">
<title>MERGE&#45;&gt;BUF2</title>
<path fill="none" stroke="black" d="M150.5,-583.81C150.5,-575.79 150.5,-566.05 150.5,-557.07"/>
<polygon fill="black" stroke="black" points="154,-557.03 150.5,-547.03 147,-557.03 154,-557.03"/>
</g>
<!-- BUF55 -->
<g id="node9" class="node">
<title>BUF55</title>
<polygon fill="none" stroke="black" points="67,-36 0,-36 0,0 67,0 67,-36"/>
<text text-anchor="middle" x="33.5" y="-14.3" font-family="Times,serif" font-size="14.00">BUF55</text>
</g>
<!-- BUF55&#45;&gt;MERGE -->
<g id="edge9" class="edge">
<title>BUF55&#45;&gt;MERGE</title>
<path fill="none" stroke="black" d="M28.96,-36.08C25.57,-50.38 21.5,-71.37 21.5,-90 21.5,-530 21.5,-530 21.5,-530 21.5,-566.22 61.01,-584.09 96.3,-592.84"/>
<polygon fill="black" stroke="black" points="95.58,-596.26 106.11,-595.07 97.13,-589.44 95.58,-596.26"/>
</g>
<!-- loop_cond -->
<g id="node11" class="node">
<title>loop_cond</title>
<ellipse fill="none" stroke="black" cx="150.5" cy="-456" rx="57.69" ry="18"/>
<text text-anchor="middle" x="150.5" y="-452.3" font-family="Times,serif" font-size="14.00">(x != 0, x)</text>
</g>
<!-- BUF2&#45;&gt;loop_cond -->
<g id="edge11" class="edge">
<title>BUF2&#45;&gt;loop_cond</title>
<path fill="none" stroke="black" d="M150.5,-510.81C150.5,-502.79 150.5,-493.05 150.5,-484.07"/>
<polygon fill="black" stroke="black" points="154,-484.03 150.5,-474.03 147,-484.03 154,-484.03"/>
</g>
<!-- BDEMUX -->
<g id="node12" class="node">
<title>BDEMUX</title>
<polygon fill="none" stroke="black" points="150.5,-401 72.24,-383 150.5,-365 228.76,-383 150.5,-401"/>
<text text-anchor="middle" x="150.5" y="-379.3" font-family="Times,serif" font-size="14.00">BDEMUX</text>
</g>
<!-- loop_cond&#45;&gt;BDEMUX -->
<g id="edge12" class="edge">
<title>loop_cond&#45;&gt;BDEMUX</title>
<path fill="none" stroke="black" d="M150.5,-437.81C150.5,-429.79 150.5,-420.05 150.5,-411.07"/>
<polygon fill="black" stroke="black" points="154,-411.03 150.5,-401.03 147,-411.03 154,-411.03"/>
</g>
<!-- BUF5 -->
<g id="node13" class="node">
<title>BUF5</title>
<polygon fill="none" stroke="black" points="133.5,-328 75.5,-328 75.5,-292 133.5,-292 133.5,-328"/>
<text text-anchor="middle" x="104.5" y="-306.3" font-family="Times,serif" font-size="14.00">BUF5</text>
</g>
<!-- BDEMUX&#45;&gt;BUF5 -->
<g id="edge13" class="edge">
<title>BDEMUX&#45;&gt;BUF5</title>
<path fill="none" stroke="black" d="M140.74,-366.94C135.03,-358.13 127.67,-346.76 121.07,-336.58"/>
<polygon fill="black" stroke="black" points="123.91,-334.52 115.53,-328.03 118.03,-338.32 123.91,-334.52"/>
</g>
<!-- FORK9 -->
<g id="node14" class="node">
<title>FORK9</title>
<polygon fill="none" stroke="black" points="214.5,-328 151.99,-310 214.5,-292 277.01,-310 214.5,-328"/>
<text text-anchor="middle" x="214.5" y="-306.3" font-family="Times,serif" font-size="14.00">FORK9</text>
</g>
<!-- BDEMUX&#45;&gt;FORK9 -->
<g id="edge14" class="edge">
<title>BDEMUX&#45;&gt;FORK9</title>
<path fill="none" stroke="black" d="M163.45,-367.63C172.59,-357.49 184.99,-343.73 195.28,-332.32"/>
<polygon fill="black" stroke="black" points="197.91,-334.63 202,-324.86 192.71,-329.95 197.91,-334.63"/>
</g>
<!-- mulstep6 -->
<g id="node15" class="node">
<title>mulstep6</title>
<ellipse fill="none" stroke="black" cx="104.5" cy="-237" rx="53.89" ry="18"/>
<text text-anchor="middle" x="104.5" y="-233.3" font-family="Times,serif" font-size="14.00">mulstep6</text>
</g>
<!-- BUF5&#45;&gt;mulstep6 -->
<g id="edge15" class="edge">
<title>BUF5&#45;&gt;mulstep6</title>
<path fill="none" stroke="black" d="M104.5,-291.81C104.5,-283.79 104.5,-274.05 104.5,-265.07"/>
<polygon fill="black" stroke="black" points="108,-265.03 104.5,-255.03 101,-265.03 108,-265.03"/>
</g>
<!-- BUF10 -->
<g id="node18" class="node">
<title>BUF10</title>
<polygon fill="none" stroke="black" points="316,-255 249,-255 249,-219 316,-219 316,-255"/>
<text text-anchor="middle" x="282.5" y="-233.3" font-family="Times,serif" font-size="14.00">BUF10</text>
</g>
<!-- FORK9&#45;&gt;BUF10 -->
<g id="edge19" class="edge">
<title>FORK9&#45;&gt;BUF10</title>
<path fill="none" stroke="black" d="M227.29,-295.65C236.23,-286.31 248.43,-273.58 259.08,-262.45"/>
<polygon fill="black" stroke="black" points="261.77,-264.71 266.16,-255.06 256.71,-259.87 261.77,-264.71"/>
</g>
<!-- out -->
<g id="node19" class="node">
<title>out</title>
<ellipse fill="none" stroke="black" cx="203.5" cy="-237" rx="27" ry="18"/>
<text text-anchor="middle" x="203.5" y="-233.3" font-family="Times,serif" font-size="14.00">out</text>
</g>
<!-- FORK9&#45;&gt;out -->
<g id="edge21" class="edge">
<title>FORK9&#45;&gt;out</title>
<path fill="none" stroke="black" d="M211.95,-292.53C210.69,-284.44 209.15,-274.47 207.73,-265.27"/>
<polygon fill="black" stroke="black" points="211.18,-264.71 206.19,-255.37 204.26,-265.79 211.18,-264.71"/>
</g>
<!-- BUF7 -->
<g id="node16" class="node">
<title>BUF7</title>
<polygon fill="none" stroke="black" points="137.5,-182 79.5,-182 79.5,-146 137.5,-146 137.5,-182"/>
<text text-anchor="middle" x="108.5" y="-160.3" font-family="Times,serif" font-size="14.00">BUF7</text>
</g>
<!-- mulstep6&#45;&gt;BUF7 -->
<g id="edge16" class="edge">
<title>mulstep6&#45;&gt;BUF7</title>
<path fill="none" stroke="black" d="M105.47,-218.81C105.92,-210.79 106.47,-201.05 106.97,-192.07"/>
<polygon fill="black" stroke="black" points="110.47,-192.21 107.54,-182.03 103.48,-191.82 110.47,-192.21"/>
</g>
<!-- mulstep54 -->
<g id="node17" class="node">
<title>mulstep54</title>
<ellipse fill="none" stroke="black" cx="109.5" cy="-91" rx="59.59" ry="18"/>
<text text-anchor="middle" x="109.5" y="-87.3" font-family="Times,serif" font-size="14.00">mulstep54</text>
</g>
<!-- BUF7&#45;&gt;mulstep54 -->
<g id="edge17" class="edge">
<title>BUF7&#45;&gt;mulstep54</title>
<path fill="none" stroke="black" d="M108.74,-145.81C108.86,-137.79 108.99,-128.05 109.12,-119.07"/>
<polygon fill="black" stroke="black" points="112.62,-119.08 109.26,-109.03 105.62,-118.98 112.62,-119.08"/>
</g>
<!-- mulstep54&#45;&gt;BUF55 -->
<g id="edge18" class="edge">
<title>mulstep54&#45;&gt;BUF55</title>
<path fill="none" stroke="black" d="M91.87,-73.53C82.2,-64.5 70.04,-53.13 59.32,-43.12"/>
<polygon fill="black" stroke="black" points="61.52,-40.39 51.82,-36.12 56.74,-45.5 61.52,-40.39"/>
</g>
<!-- BUF10&#45;&gt;BUF11_valid -->
<g id="edge20" class="edge">
<title>BUF10&#45;&gt;BUF11_valid</title>
<path fill="none" stroke="black" d="M292.18,-218.81C296.9,-210.44 302.67,-200.2 307.91,-190.9"/>
<polygon fill="black" stroke="black" points="311.05,-192.46 312.91,-182.03 304.95,-189.02 311.05,-192.46"/>
</g>
</g>
</svg>
