<?xml version="1.0" encoding="utf-8"?>
<!-- Generator: Adobe Illustrator 16.0.0, SVG Export Plug-In . SVG Version: 6.00 Build 0)  -->
<!DOCTYPE svg PUBLIC "-//W3C//DTD SVG 1.1//EN" "http://www.w3.org/Graphics/SVG/1.1/DTD/svg11.dtd">
<svg version="1.1" id="Layer_1" xmlns="http://www.w3.org/2000/svg" xmlns:xlink="http://www.w3.org/1999/xlink" x="0px" y="0px"
	 width="684px" height="440px" viewBox="0 2 342 220" enable-background="new 0 2 342 220" xml:space="preserve">
<g>
	<g>
		<g>
			<path d="M60.228,64.005h5.149l0.851,0.99l-1.129,0.99h-5.149l-0.852-0.99L60.228,64.005z M69.09,54.499l-0.445,3.168l-1.131,0.99
				l-0.851-0.99l0.445-3.168l1.129-0.99L69.09,54.499z"/>
			<path d="M79.17,54.499l-0.445,3.168l-1.13,0.99l-0.851-0.99l0.445-3.168l1.129-0.99L79.17,54.499z M87.093,54.499l-0.445,3.168
				l-1.131,0.99l-0.851-0.99l0.445-3.168l1.129-0.99L87.093,54.499z"/>
			<path d="M96.339,60.44l-0.445,3.168l-1.13,0.99l-0.851-0.99l0.445-3.168l1.129-0.99L96.339,60.44z M97.174,54.499l-0.445,3.168
				l-1.13,0.99l-0.851-0.99l0.445-3.168l1.129-0.99L97.174,54.499z M104.262,60.44l-0.445,3.168l-1.131,0.99l-0.851-0.99
				l0.445-3.168l1.129-0.99L104.262,60.44z M105.097,54.499l-0.445,3.168l-1.131,0.99l-0.851-0.99l0.445-3.168l1.129-0.99
				L105.097,54.499z"/>
			<path d="M115.177,54.499l-0.445,3.168l-1.13,0.99l-0.851-0.99l0.445-3.168l1.129-0.99L115.177,54.499z M114.237,64.005h5.149
				l0.851,0.99l-1.129,0.99h-5.149l-0.852-0.99L114.237,64.005z M115.907,52.122h5.149l0.851,0.99l-1.129,0.99h-5.149l-0.852-0.99
				L115.907,52.122z M122.265,60.44l-0.445,3.168l-1.131,0.99l-0.851-0.99l0.445-3.168l1.129-0.99L122.265,60.44z"/>
			<path d="M133.18,54.499l-0.445,3.168l-1.13,0.99l-0.851-0.99l0.445-3.168l1.129-0.99L133.18,54.499z M140.268,60.44l-0.445,3.168
				l-1.131,0.99l-0.851-0.99l0.445-3.168l1.129-0.99L140.268,60.44z"/>
			<path d="M150.348,60.44l-0.445,3.168l-1.13,0.99l-0.851-0.99l0.445-3.168l1.129-0.99L150.348,60.44z M151.183,54.499
				l-0.445,3.168l-1.13,0.99l-0.851-0.99l0.445-3.168l1.129-0.99L151.183,54.499z M150.243,64.005h5.149l0.851,0.99l-1.129,0.99
				h-5.149l-0.852-0.99L150.243,64.005z M151.078,58.063h5.149l0.851,0.99l-1.129,0.99H150.8l-0.852-0.99L151.078,58.063z"/>
			<path d="M169.081,58.063h5.149l0.851,0.99l-1.129,0.99h-5.149l-0.852-0.99L169.081,58.063z M177.108,54.499l-0.445,3.168
				l-1.131,0.99l-0.851-0.99l0.445-3.168l1.129-0.99L177.108,54.499z"/>
			<path d="M186.354,60.44l-0.445,3.168l-1.13,0.99l-0.851-0.99l0.445-3.168l1.129-0.99L186.354,60.44z M187.188,54.499
				l-0.445,3.168l-1.13,0.99l-0.851-0.99l0.445-3.168l1.129-0.99L187.188,54.499z M186.249,64.005h5.149l0.851,0.99l-1.129,0.99
				h-5.149l-0.852-0.99L186.249,64.005z M187.919,52.122h5.149l0.851,0.99l-1.129,0.99h-5.149l-0.852-0.99L187.919,52.122z"/>
			<path d="M204.253,64.005h5.149l0.851,0.99l-1.129,0.99h-5.149l-0.852-0.99L204.253,64.005z M205.923,52.122h5.149l0.851,0.99
				l-1.129,0.99h-5.149l-0.852-0.99L205.923,52.122z M212.28,60.44l-0.445,3.168l-1.131,0.99l-0.851-0.99l0.445-3.168l1.129-0.99
				L212.28,60.44z M213.115,54.499l-0.445,3.168l-1.131,0.99l-0.851-0.99l0.445-3.168l1.129-0.99L213.115,54.499z"/>
			<path d="M223.195,54.499l-0.445,3.168l-1.13,0.99l-0.851-0.99l0.445-3.168l1.129-0.99L223.195,54.499z M223.091,58.063h5.149
				l0.851,0.99l-1.129,0.99h-5.149l-0.852-0.99L223.091,58.063z M223.926,52.122h5.149l0.851,0.99l-1.129,0.99h-5.149l-0.852-0.99
				L223.926,52.122z M231.118,54.499l-0.445,3.168l-1.131,0.99l-0.851-0.99l0.445-3.168l1.129-0.99L231.118,54.499z"/>
			<path d="M241.094,58.063h5.149l0.851,0.99l-1.129,0.99h-5.149l-0.852-0.99L241.094,58.063z M248.286,60.44l-0.445,3.168
				l-1.131,0.99l-0.851-0.99l0.445-3.168l1.129-0.99L248.286,60.44z M249.121,54.499l-0.445,3.168l-1.131,0.99l-0.851-0.99
				l0.445-3.168l1.129-0.99L249.121,54.499z"/>
			<path d="M258.262,64.005h5.149l0.851,0.99l-1.129,0.99h-5.149l-0.852-0.99L258.262,64.005z M266.289,60.44l-0.445,3.168
				l-1.131,0.99l-0.851-0.99l0.445-3.168l1.129-0.99L266.289,60.44z"/>
			<path d="M277.1,58.063h5.149l0.851,0.99l-1.129,0.99h-5.149l-0.852-0.99L277.1,58.063z"/>
			<path d="M294.269,64.005h5.149l0.851,0.99l-1.129,0.99h-5.149l-0.852-0.99L294.269,64.005z"/>
			<path d="M312.376,60.44l-0.445,3.168l-1.13,0.99l-0.851-0.99l0.445-3.168l1.129-0.99L312.376,60.44z M313.106,58.063h5.149
				l0.851,0.99l-1.129,0.99h-5.149l-0.852-0.99L313.106,58.063z M321.134,54.499l-0.445,3.168l-1.131,0.99l-0.851-0.99l0.445-3.168
				l1.129-0.99L321.134,54.499z"/>
		</g>
		<g>
			<g>
				<path fill="#999" d="M151.913,79.122h5.149l0.851,0.99l-1.129,0.99h-5.149l-0.852-0.99L151.913,79.122z"/>
				<path fill="#999" d="M169.186,81.498l-0.445,3.169l-1.13,0.99l-0.851-0.99l0.445-3.169l1.129-0.99L169.186,81.498z"/>
				<path fill="#999" d="M204.253,91.005h5.149l0.851,0.99l-1.129,0.99h-5.149l-0.852-0.99L204.253,91.005z"/>
			</g>
			<g>
				<path d="M42.329,87.44l-0.446,3.169l-1.129,0.99l-0.851-0.99l0.446-3.169l1.129-0.99L42.329,87.44z M43.164,81.498l-0.445,3.169
					l-1.13,0.99l-0.851-0.99l0.445-3.169l1.129-0.99L43.164,81.498z M42.224,91.005h5.15l0.851,0.99l-1.129,0.99h-5.15l-0.851-0.99
					L42.224,91.005z M43.895,79.122h5.149l0.851,0.99l-1.129,0.99h-5.149l-0.852-0.99L43.895,79.122z M50.252,87.44l-0.445,3.169
					l-1.131,0.99l-0.851-0.99l0.445-3.169l1.129-0.99L50.252,87.44z M51.087,81.498l-0.445,3.169l-1.131,0.99l-0.851-0.99
					l0.445-3.169l1.129-0.99L51.087,81.498z"/>
				<path d="M68.255,87.44l-0.445,3.169l-1.131,0.99l-0.851-0.99l0.445-3.169l1.129-0.99L68.255,87.44z M69.09,81.498l-0.445,3.169
					l-1.131,0.99l-0.851-0.99l0.445-3.169l1.129-0.99L69.09,81.498z"/>
				<path d="M78.335,87.44l-0.445,3.169l-1.13,0.99l-0.851-0.99l0.445-3.169l1.129-0.99L78.335,87.44z M78.23,91.005h5.149
					l0.851,0.99l-1.129,0.99h-5.149l-0.852-0.99L78.23,91.005z M79.065,85.063h5.149l0.851,0.99l-1.129,0.99h-5.149l-0.852-0.99
					L79.065,85.063z M79.9,79.122h5.149l0.851,0.99l-1.129,0.99h-5.149l-0.852-0.99L79.9,79.122z M87.093,81.498l-0.445,3.169
					l-1.131,0.99l-0.851-0.99l0.445-3.169l1.129-0.99L87.093,81.498z"/>
				<path d="M96.234,91.005h5.149l0.851,0.99l-1.129,0.99h-5.149l-0.852-0.99L96.234,91.005z M97.069,85.063h5.149l0.851,0.99
					l-1.129,0.99h-5.149l-0.852-0.99L97.069,85.063z M97.904,79.122h5.149l0.851,0.99l-1.129,0.99h-5.149l-0.852-0.99L97.904,79.122
					z M104.262,87.44l-0.445,3.169l-1.131,0.99l-0.851-0.99l0.445-3.169l1.129-0.99L104.262,87.44z M105.097,81.498l-0.445,3.169
					l-1.131,0.99l-0.851-0.99l0.445-3.169l1.129-0.99L105.097,81.498z"/>
				<path d="M115.177,81.498l-0.445,3.169l-1.13,0.99l-0.851-0.99l0.445-3.169l1.129-0.99L115.177,81.498z M115.072,85.063h5.149
					l0.851,0.99l-1.129,0.99h-5.149l-0.852-0.99L115.072,85.063z M122.265,87.44l-0.445,3.169l-1.131,0.99l-0.851-0.99l0.445-3.169
					l1.129-0.99L122.265,87.44z M123.1,81.498l-0.445,3.169l-1.131,0.99l-0.851-0.99l0.445-3.169l1.129-0.99L123.1,81.498z"/>
				<path d="M133.18,81.498l-0.445,3.169l-1.13,0.99l-0.851-0.99l0.445-3.169l1.129-0.99L133.18,81.498z M132.24,91.005h5.149
					l0.851,0.99l-1.129,0.99h-5.149l-0.852-0.99L132.24,91.005z M133.075,85.063h5.149l0.851,0.99l-1.129,0.99h-5.149l-0.852-0.99
					L133.075,85.063z M133.91,79.122h5.149l0.851,0.99l-1.129,0.99h-5.149l-0.852-0.99L133.91,79.122z M140.268,87.44l-0.445,3.169
					l-1.131,0.99l-0.851-0.99l0.445-3.169l1.129-0.99L140.268,87.44z"/>
				<path d="M150.348,87.44l-0.445,3.169l-1.13,0.99l-0.851-0.99l0.445-3.169l1.129-0.99L150.348,87.44z M151.183,81.498
					l-0.445,3.169l-1.13,0.99l-0.851-0.99l0.445-3.169l1.129-0.99L151.183,81.498z M150.243,91.005h5.149l0.851,0.99l-1.129,0.99
					h-5.149l-0.852-0.99L150.243,91.005z M151.078,85.063h5.149l0.851,0.99l-1.129,0.99H150.8l-0.852-0.99L151.078,85.063z
					 M158.271,87.44l-0.445,3.169l-1.131,0.99l-0.851-0.99l0.445-3.169l1.129-0.99L158.271,87.44z"/>
				<path d="M169.916,79.122h5.149l0.851,0.99l-1.129,0.99h-5.149l-0.852-0.99L169.916,79.122z M176.273,87.44l-0.445,3.169
					l-1.131,0.99l-0.851-0.99l0.445-3.169l1.129-0.99L176.273,87.44z M177.108,81.498l-0.445,3.169l-1.131,0.99l-0.851-0.99
					l0.445-3.169l1.129-0.99L177.108,81.498z"/>
				<path d="M186.354,87.44l-0.445,3.169l-1.13,0.99l-0.851-0.99l0.445-3.169l1.129-0.99L186.354,87.44z M187.188,81.498
					l-0.445,3.169l-1.13,0.99l-0.851-0.99l0.445-3.169l1.129-0.99L187.188,81.498z M186.249,91.005h5.149l0.851,0.99l-1.129,0.99
					h-5.149l-0.852-0.99L186.249,91.005z M187.084,85.063h5.149l0.851,0.99l-1.129,0.99h-5.149l-0.852-0.99L187.084,85.063z
					 M187.919,79.122h5.149l0.851,0.99l-1.129,0.99h-5.149l-0.852-0.99L187.919,79.122z M194.276,87.44l-0.445,3.169l-1.131,0.99
					l-0.851-0.99l0.445-3.169l1.129-0.99L194.276,87.44z M195.111,81.498l-0.445,3.169l-1.131,0.99l-0.851-0.99l0.445-3.169
					l1.129-0.99L195.111,81.498z"/>
				<path d="M205.192,81.498l-0.445,3.169l-1.13,0.99l-0.851-0.99l0.445-3.169l1.129-0.99L205.192,81.498z M205.088,85.063h5.149
					l0.851,0.99l-1.129,0.99h-5.149l-0.852-0.99L205.088,85.063z M205.923,79.122h5.149l0.851,0.99l-1.129,0.99h-5.149l-0.852-0.99
					L205.923,79.122z M212.28,87.44l-0.445,3.169l-1.131,0.99l-0.851-0.99l0.445-3.169l1.129-0.99L212.28,87.44z M213.115,81.498
					l-0.445,3.169l-1.131,0.99l-0.851-0.99l0.445-3.169l1.129-0.99L213.115,81.498z"/>
				<path d="M222.256,91.005h5.149l0.851,0.99l-1.129,0.99h-5.149l-0.852-0.99L222.256,91.005z M223.926,79.122h5.149l0.851,0.99
					l-1.129,0.99h-5.149l-0.852-0.99L223.926,79.122z"/>
				<path d="M240.259,91.005h5.149l0.851,0.99l-1.129,0.99h-5.149l-0.852-0.99L240.259,91.005z M241.929,79.122h5.149l0.851,0.99
					l-1.129,0.99h-5.149l-0.852-0.99L241.929,79.122z M248.286,87.44l-0.445,3.169l-1.131,0.99l-0.851-0.99l0.445-3.169l1.129-0.99
					L248.286,87.44z"/>
				<path d="M259.097,85.063h5.149l0.851,0.99l-1.129,0.99h-5.149l-0.852-0.99L259.097,85.063z M266.289,87.44l-0.445,3.169
					l-1.131,0.99l-0.851-0.99l0.445-3.169l1.129-0.99L266.289,87.44z M267.124,81.498l-0.445,3.169l-1.131,0.99l-0.851-0.99
					l0.445-3.169l1.129-0.99L267.124,81.498z"/>
				<path d="M276.265,91.005h5.149l0.851,0.99l-1.129,0.99h-5.149l-0.852-0.99L276.265,91.005z M277.1,85.063h5.149l0.851,0.99
					l-1.129,0.99h-5.149l-0.852-0.99L277.1,85.063z"/>
				<path d="M294.373,87.44l-0.445,3.169l-1.13,0.99l-0.851-0.99l0.445-3.169l1.129-0.99L294.373,87.44z M295.208,81.498
					l-0.445,3.169l-1.13,0.99l-0.851-0.99l0.445-3.169l1.129-0.99L295.208,81.498z M295.104,85.063h5.149l0.851,0.99l-1.129,0.99
					h-5.149l-0.852-0.99L295.104,85.063z"/>
				<path d="M312.376,87.44l-0.445,3.169l-1.13,0.99l-0.851-0.99l0.445-3.169l1.129-0.99L312.376,87.44z M313.106,85.063h5.149
					l0.851,0.99l-1.129,0.99h-5.149l-0.852-0.99L313.106,85.063z M313.941,79.122h5.149l0.851,0.99l-1.129,0.99h-5.149l-0.852-0.99
					L313.941,79.122z M321.134,81.498l-0.445,3.169l-1.131,0.99l-0.851-0.99l0.445-3.169l1.129-0.99L321.134,81.498z"/>
			</g>
		</g>
		<g>
			<path d="M42.329,114.44l-0.445,3.168l-1.13,0.99l-0.851-0.99l0.445-3.168l1.129-0.99L42.329,114.44z M43.164,108.499
				l-0.445,3.168l-1.13,0.99l-0.851-0.99l0.445-3.168l1.129-0.99L43.164,108.499z M42.225,118.005h5.149l0.851,0.99l-1.129,0.99
				h-5.149l-0.852-0.99L42.225,118.005z M43.06,112.063h5.149l0.851,0.99l-1.129,0.99h-5.149l-0.852-0.99L43.06,112.063z
				 M43.895,106.122h5.149l0.851,0.99l-1.129,0.99h-5.149l-0.852-0.99L43.895,106.122z M51.087,108.499l-0.445,3.168l-1.131,0.99
				l-0.851-0.99l0.445-3.168l1.129-0.99L51.087,108.499z"/>
			<path d="M60.332,114.44l-0.445,3.168l-1.13,0.99l-0.851-0.99l0.445-3.168l1.129-0.99L60.332,114.44z M61.167,108.499
				l-0.445,3.168l-1.13,0.99l-0.851-0.99l0.445-3.168l1.129-0.99L61.167,108.499z M61.063,112.063h5.149l0.851,0.99l-1.129,0.99
				h-5.149l-0.852-0.99L61.063,112.063z M61.897,106.122h5.149l0.851,0.99l-1.129,0.99h-5.149l-0.852-0.99L61.897,106.122z
				 M68.255,114.44l-0.445,3.168l-1.131,0.99l-0.851-0.99l0.445-3.168l1.129-0.99L68.255,114.44z M69.09,108.499l-0.445,3.168
				l-1.131,0.99l-0.851-0.99l0.445-3.168l1.129-0.99L69.09,108.499z"/>
			<path d="M78.335,114.44l-0.445,3.168l-1.13,0.99l-0.851-0.99l0.445-3.168l1.129-0.99L78.335,114.44z M79.17,108.499l-0.445,3.168
				l-1.13,0.99l-0.851-0.99l0.445-3.168l1.129-0.99L79.17,108.499z M78.23,118.005h5.149l0.851,0.99l-1.129,0.99h-5.149l-0.852-0.99
				L78.23,118.005z M79.065,112.063h5.149l0.851,0.99l-1.129,0.99h-5.149l-0.852-0.99L79.065,112.063z M86.258,114.44l-0.445,3.168
				l-1.131,0.99l-0.851-0.99l0.445-3.168l1.129-0.99L86.258,114.44z"/>
			<path d="M96.339,114.44l-0.445,3.168l-1.13,0.99l-0.851-0.99l0.445-3.168l1.129-0.99L96.339,114.44z M97.174,108.499
				l-0.445,3.168l-1.13,0.99l-0.851-0.99l0.445-3.168l1.129-0.99L97.174,108.499z M96.234,118.005h5.149l0.851,0.99l-1.129,0.99
				h-5.149l-0.852-0.99L96.234,118.005z M97.904,106.122h5.149l0.851,0.99l-1.129,0.99h-5.149l-0.852-0.99L97.904,106.122z"/>
			<path d="M114.342,114.44l-0.445,3.168l-1.13,0.99l-0.851-0.99l0.445-3.168l1.129-0.99L114.342,114.44z M114.237,118.005h5.149
				l0.851,0.99l-1.129,0.99h-5.149l-0.852-0.99L114.237,118.005z M115.072,112.063h5.149l0.851,0.99l-1.129,0.99h-5.149l-0.852-0.99
				L115.072,112.063z M122.265,114.44l-0.445,3.168l-1.131,0.99l-0.851-0.99l0.445-3.168l1.129-0.99L122.265,114.44z M123.1,108.499
				l-0.445,3.168l-1.131,0.99l-0.851-0.99l0.445-3.168l1.129-0.99L123.1,108.499z"/>
			<path d="M132.345,114.44l-0.445,3.168l-1.13,0.99l-0.851-0.99l0.445-3.168l1.129-0.99L132.345,114.44z M133.18,108.499
				l-0.445,3.168l-1.13,0.99l-0.851-0.99l0.445-3.168l1.129-0.99L133.18,108.499z M132.24,118.005h5.149l0.851,0.99l-1.129,0.99
				h-5.149l-0.852-0.99L132.24,118.005z M133.075,112.063h5.149l0.851,0.99l-1.129,0.99h-5.149l-0.852-0.99L133.075,112.063z
				 M133.91,106.122h5.149l0.851,0.99l-1.129,0.99h-5.149l-0.852-0.99L133.91,106.122z"/>
			<path d="M150.348,114.44l-0.445,3.168l-1.13,0.99l-0.851-0.99l0.445-3.168l1.129-0.99L150.348,114.44z M151.183,108.499
				l-0.445,3.168l-1.13,0.99l-0.851-0.99l0.445-3.168l1.129-0.99L151.183,108.499z M151.078,112.063h5.149l0.851,0.99l-1.129,0.99
				H150.8l-0.852-0.99L151.078,112.063z M151.913,106.122h5.149l0.851,0.99l-1.129,0.99h-5.149l-0.852-0.99L151.913,106.122z"/>
			<path d="M168.351,114.44l-0.445,3.168l-1.13,0.99l-0.851-0.99l0.445-3.168l1.129-0.99L168.351,114.44z M169.186,108.499
				l-0.445,3.168l-1.13,0.99l-0.851-0.99l0.445-3.168l1.129-0.99L169.186,108.499z M168.246,118.005h5.149l0.851,0.99l-1.129,0.99
				h-5.149l-0.852-0.99L168.246,118.005z M169.916,106.122h5.149l0.851,0.99l-1.129,0.99h-5.149l-0.852-0.99L169.916,106.122z
				 M176.273,114.44l-0.445,3.168l-1.131,0.99l-0.851-0.99l0.445-3.168l1.129-0.99L176.273,114.44z"/>
			<path d="M186.354,114.44l-0.445,3.168l-1.13,0.99l-0.851-0.99l0.445-3.168l1.129-0.99L186.354,114.44z M187.188,108.499
				l-0.445,3.168l-1.13,0.99l-0.851-0.99l0.445-3.168l1.129-0.99L187.188,108.499z M187.084,112.063h5.149l0.851,0.99l-1.129,0.99
				h-5.149l-0.852-0.99L187.084,112.063z M194.276,114.44l-0.445,3.168l-1.131,0.99l-0.851-0.99l0.445-3.168l1.129-0.99
				L194.276,114.44z M195.111,108.499l-0.445,3.168l-1.131,0.99l-0.851-0.99l0.445-3.168l1.129-0.99L195.111,108.499z"/>
			<path d="M212.28,114.44l-0.445,3.168l-1.131,0.99l-0.851-0.99l0.445-3.168l1.129-0.99L212.28,114.44z M213.115,108.499
				l-0.445,3.168l-1.131,0.99l-0.851-0.99l0.445-3.168l1.129-0.99L213.115,108.499z"/>
			<path d="M222.36,114.44l-0.445,3.168l-1.13,0.99l-0.851-0.99l0.445-3.168l1.129-0.99L222.36,114.44z M222.256,118.005h5.149
				l0.851,0.99l-1.129,0.99h-5.149l-0.852-0.99L222.256,118.005z M230.283,114.44l-0.445,3.168l-1.131,0.99l-0.851-0.99l0.445-3.168
				l1.129-0.99L230.283,114.44z M231.118,108.499l-0.445,3.168l-1.131,0.99l-0.851-0.99l0.445-3.168l1.129-0.99L231.118,108.499z"/>
			<path d="M240.363,114.44l-0.445,3.168l-1.13,0.99l-0.851-0.99l0.445-3.168l1.129-0.99L240.363,114.44z M241.198,108.499
				l-0.445,3.168l-1.13,0.99l-0.851-0.99l0.445-3.168l1.129-0.99L241.198,108.499z M241.094,112.063h5.149l0.851,0.99l-1.129,0.99
				h-5.149l-0.852-0.99L241.094,112.063z M241.929,106.122h5.149l0.851,0.99l-1.129,0.99h-5.149l-0.852-0.99L241.929,106.122z
				 M248.286,114.44l-0.445,3.168l-1.131,0.99l-0.851-0.99l0.445-3.168l1.129-0.99L248.286,114.44z"/>
			<path d="M258.366,114.44l-0.445,3.168l-1.13,0.99l-0.851-0.99l0.445-3.168l1.129-0.99L258.366,114.44z M259.201,108.499
				l-0.445,3.168l-1.13,0.99l-0.851-0.99l0.445-3.168l1.129-0.99L259.201,108.499z M258.262,118.005h5.149l0.851,0.99l-1.129,0.99
				h-5.149l-0.852-0.99L258.262,118.005z"/>
			<path d="M277.204,108.499l-0.445,3.168l-1.13,0.99l-0.851-0.99l0.445-3.168l1.129-0.99L277.204,108.499z M276.265,118.005h5.149
				l0.851,0.99l-1.129,0.99h-5.149l-0.852-0.99L276.265,118.005z M277.935,106.122h5.149l0.851,0.99l-1.129,0.99h-5.149l-0.852-0.99
				L277.935,106.122z M285.127,108.499l-0.445,3.168l-1.131,0.99l-0.851-0.99l0.445-3.168l1.129-0.99L285.127,108.499z"/>
			<path d="M294.373,114.44l-0.445,3.168l-1.13,0.99l-0.851-0.99l0.445-3.168l1.129-0.99L294.373,114.44z M295.208,108.499
				l-0.445,3.168l-1.13,0.99l-0.851-0.99l0.445-3.168l1.129-0.99L295.208,108.499z M295.938,106.122h5.149l0.851,0.99l-1.129,0.99
				h-5.149l-0.852-0.99L295.938,106.122z M302.296,114.44l-0.445,3.168l-1.131,0.99l-0.851-0.99l0.445-3.168l1.129-0.99
				L302.296,114.44z M303.131,108.499l-0.445,3.168l-1.131,0.99l-0.851-0.99l0.445-3.168l1.129-0.99L303.131,108.499z"/>
			<path d="M312.376,114.44l-0.445,3.168l-1.13,0.99l-0.851-0.99l0.445-3.168l1.129-0.99L312.376,114.44z M313.211,108.499
				l-0.445,3.168l-1.13,0.99l-0.851-0.99l0.445-3.168l1.129-0.99L313.211,108.499z M312.271,118.005h5.149l0.851,0.99l-1.129,0.99
				h-5.149l-0.852-0.99L312.271,118.005z M313.941,106.122h5.149l0.851,0.99l-1.129,0.99h-5.149l-0.852-0.99L313.941,106.122z
				 M320.299,114.44l-0.445,3.168l-1.131,0.99l-0.851-0.99l0.445-3.168l1.129-0.99L320.299,114.44z M321.134,108.499l-0.445,3.168
				l-1.131,0.99l-0.851-0.99l0.445-3.168l1.129-0.99L321.134,108.499z"/>
		</g>
		<g>
			<path d="M42.329,141.44l-0.445,3.168l-1.13,0.99l-0.851-0.99l0.445-3.168l1.129-0.99L42.329,141.44z M43.164,135.498
				l-0.445,3.169l-1.13,0.99l-0.851-0.99l0.445-3.169l1.129-0.99L43.164,135.498z M43.06,139.063h5.149l0.851,0.99l-1.129,0.99
				h-5.149l-0.852-0.99L43.06,139.063z M43.895,133.121h5.149l0.851,0.99l-1.129,0.99h-5.149l-0.852-0.99L43.895,133.121z
				 M51.087,135.498l-0.445,3.169l-1.131,0.99l-0.851-0.99l0.445-3.169l1.129-0.99L51.087,135.498z"/>
			<path d="M61.167,135.498l-0.445,3.169l-1.13,0.99l-0.851-0.99l0.445-3.169l1.129-0.99L61.167,135.498z M61.063,139.063h5.149
				l0.851,0.99l-1.129,0.99h-5.149l-0.852-0.99L61.063,139.063z M61.897,133.121h5.149l0.851,0.99l-1.129,0.99h-5.149l-0.852-0.99
				L61.897,133.121z M68.255,141.44l-0.445,3.168l-1.131,0.99l-0.851-0.99l0.445-3.168l1.129-0.99L68.255,141.44z M69.09,135.498
				l-0.445,3.169l-1.131,0.99l-0.851-0.99l0.445-3.169l1.129-0.99L69.09,135.498z"/>
			<path d="M78.335,141.44l-0.445,3.168l-1.13,0.99l-0.851-0.99l0.445-3.168l1.129-0.99L78.335,141.44z M79.17,135.498l-0.445,3.169
				l-1.13,0.99l-0.851-0.99l0.445-3.169l1.129-0.99L79.17,135.498z M79.9,133.121h5.149l0.851,0.99l-1.129,0.99h-5.149l-0.852-0.99
				L79.9,133.121z"/>
			<path d="M97.174,135.498l-0.445,3.169l-1.13,0.99l-0.851-0.99l0.445-3.169l1.129-0.99L97.174,135.498z M96.234,145.005h5.149
				l0.851,0.99l-1.129,0.99h-5.149l-0.852-0.99L96.234,145.005z M97.069,139.063h5.149l0.851,0.99l-1.129,0.99h-5.149l-0.852-0.99
				L97.069,139.063z M97.904,133.121h5.149l0.851,0.99l-1.129,0.99h-5.149l-0.852-0.99L97.904,133.121z M104.262,141.44
				l-0.445,3.168l-1.131,0.99l-0.851-0.99l0.445-3.168l1.129-0.99L104.262,141.44z"/>
			<path d="M115.907,133.121h5.149l0.851,0.99l-1.129,0.99h-5.149l-0.852-0.99L115.907,133.121z M122.265,141.44l-0.445,3.168
				l-1.131,0.99l-0.851-0.99l0.445-3.168l1.129-0.99L122.265,141.44z M123.1,135.498l-0.445,3.169l-1.131,0.99l-0.851-0.99
				l0.445-3.169l1.129-0.99L123.1,135.498z"/>
			<path d="M132.345,141.44l-0.445,3.168l-1.13,0.99l-0.851-0.99l0.445-3.168l1.129-0.99L132.345,141.44z M133.18,135.498
				l-0.445,3.169l-1.13,0.99l-0.851-0.99l0.445-3.169l1.129-0.99L133.18,135.498z M132.24,145.005h5.149l0.851,0.99l-1.129,0.99
				h-5.149l-0.852-0.99L132.24,145.005z M140.268,141.44l-0.445,3.168l-1.131,0.99l-0.851-0.99l0.445-3.168l1.129-0.99
				L140.268,141.44z M141.103,135.498l-0.445,3.169l-1.131,0.99l-0.851-0.99l0.445-3.169l1.129-0.99L141.103,135.498z"/>
			<path d="M151.183,135.498l-0.445,3.169l-1.13,0.99l-0.851-0.99l0.445-3.169l1.129-0.99L151.183,135.498z M150.243,145.005h5.149
				l0.851,0.99l-1.129,0.99h-5.149l-0.852-0.99L150.243,145.005z M151.078,139.063h5.149l0.851,0.99l-1.129,0.99H150.8l-0.852-0.99
				L151.078,139.063z M159.105,135.498l-0.445,3.169l-1.131,0.99l-0.851-0.99l0.445-3.169l1.129-0.99L159.105,135.498z"/>
			<path d="M168.351,141.44l-0.445,3.168l-1.13,0.99l-0.851-0.99l0.445-3.168l1.129-0.99L168.351,141.44z M169.186,135.498
				l-0.445,3.169l-1.13,0.99l-0.851-0.99l0.445-3.169l1.129-0.99L169.186,135.498z M168.246,145.005h5.149l0.851,0.99l-1.129,0.99
				h-5.149l-0.852-0.99L168.246,145.005z M169.081,139.063h5.149l0.851,0.99l-1.129,0.99h-5.149l-0.852-0.99L169.081,139.063z
				 M176.273,141.44l-0.445,3.168l-1.131,0.99l-0.851-0.99l0.445-3.168l1.129-0.99L176.273,141.44z M177.108,135.498l-0.445,3.169
				l-1.131,0.99l-0.851-0.99l0.445-3.169l1.129-0.99L177.108,135.498z"/>
			<path d="M186.249,145.005h5.149l0.851,0.99l-1.129,0.99h-5.149l-0.852-0.99L186.249,145.005z M187.084,139.063h5.149l0.851,0.99
				l-1.129,0.99h-5.149l-0.852-0.99L187.084,139.063z M187.919,133.121h5.149l0.851,0.99l-1.129,0.99h-5.149l-0.852-0.99
				L187.919,133.121z"/>
			<path d="M205.192,135.498l-0.445,3.169l-1.13,0.99l-0.851-0.99l0.445-3.169l1.129-0.99L205.192,135.498z M204.253,145.005h5.149
				l0.851,0.99l-1.129,0.99h-5.149l-0.852-0.99L204.253,145.005z M205.088,139.063h5.149l0.851,0.99l-1.129,0.99h-5.149l-0.852-0.99
				L205.088,139.063z M212.28,141.44l-0.445,3.168l-1.131,0.99l-0.851-0.99l0.445-3.168l1.129-0.99L212.28,141.44z M213.115,135.498
				l-0.445,3.169l-1.131,0.99l-0.851-0.99l0.445-3.169l1.129-0.99L213.115,135.498z"/>
			<path d="M222.36,141.44l-0.445,3.168l-1.13,0.99l-0.851-0.99l0.445-3.168l1.129-0.99L222.36,141.44z M222.256,145.005h5.149
				l0.851,0.99l-1.129,0.99h-5.149l-0.852-0.99L222.256,145.005z M223.091,139.063h5.149l0.851,0.99l-1.129,0.99h-5.149l-0.852-0.99
				L223.091,139.063z M223.926,133.121h5.149l0.851,0.99l-1.129,0.99h-5.149l-0.852-0.99L223.926,133.121z M231.118,135.498
				l-0.445,3.169l-1.131,0.99l-0.851-0.99l0.445-3.169l1.129-0.99L231.118,135.498z"/>
			<path d="M240.363,141.44l-0.445,3.168l-1.13,0.99l-0.851-0.99l0.445-3.168l1.129-0.99L240.363,141.44z M241.198,135.498
				l-0.445,3.169l-1.13,0.99l-0.851-0.99l0.445-3.169l1.129-0.99L241.198,135.498z M240.259,145.005h5.149l0.851,0.99l-1.129,0.99
				h-5.149l-0.852-0.99L240.259,145.005z M241.929,133.121h5.149l0.851,0.99l-1.129,0.99h-5.149l-0.852-0.99L241.929,133.121z"/>
			<path d="M259.201,135.498l-0.445,3.169l-1.13,0.99l-0.851-0.99l0.445-3.169l1.129-0.99L259.201,135.498z M259.097,139.063h5.149
				l0.851,0.99l-1.129,0.99h-5.149l-0.852-0.99L259.097,139.063z M266.289,141.44l-0.445,3.168l-1.131,0.99l-0.851-0.99l0.445-3.168
				l1.129-0.99L266.289,141.44z"/>
			<path d="M276.265,145.005h5.149l0.851,0.99l-1.129,0.99h-5.149l-0.852-0.99L276.265,145.005z M277.935,133.121h5.149l0.851,0.99
				l-1.129,0.99h-5.149l-0.852-0.99L277.935,133.121z M284.292,141.44l-0.445,3.168l-1.131,0.99l-0.851-0.99l0.445-3.168l1.129-0.99
				L284.292,141.44z M285.127,135.498l-0.445,3.169l-1.131,0.99l-0.851-0.99l0.445-3.169l1.129-0.99L285.127,135.498z"/>
			<path d="M295.208,135.498l-0.445,3.169l-1.13,0.99l-0.851-0.99l0.445-3.169l1.129-0.99L295.208,135.498z M295.938,133.121h5.149
				l0.851,0.99l-1.129,0.99h-5.149l-0.852-0.99L295.938,133.121z M303.131,135.498l-0.445,3.169l-1.131,0.99l-0.851-0.99
				l0.445-3.169l1.129-0.99L303.131,135.498z"/>
			<path d="M312.271,145.005h5.149l0.851,0.99l-1.129,0.99h-5.149l-0.852-0.99L312.271,145.005z"/>
		</g>
		<g>
			<path d="M43.164,162.498l-0.445,3.169l-1.13,0.99l-0.851-0.99l0.445-3.169l1.129-0.99L43.164,162.498z M43.06,166.063h5.149
				l0.851,0.99l-1.129,0.99h-5.149l-0.852-0.99L43.06,166.063z"/>
			<path d="M60.332,168.44l-0.445,3.168l-1.13,0.99l-0.851-0.99l0.445-3.168l1.129-0.99L60.332,168.44z M60.228,172.005h5.149
				l0.851,0.99l-1.129,0.99h-5.149l-0.852-0.99L60.228,172.005z M61.063,166.063h5.149l0.851,0.99l-1.129,0.99h-5.149l-0.852-0.99
				L61.063,166.063z M61.897,160.121h5.149l0.851,0.99l-1.129,0.99h-5.149l-0.852-0.99L61.897,160.121z M68.255,168.44l-0.445,3.168
				l-1.131,0.99l-0.851-0.99l0.445-3.168l1.129-0.99L68.255,168.44z M69.09,162.498l-0.445,3.169l-1.131,0.99l-0.851-0.99
				l0.445-3.169l1.129-0.99L69.09,162.498z"/>
			<path d="M78.335,168.44l-0.445,3.168l-1.13,0.99l-0.851-0.99l0.445-3.168l1.129-0.99L78.335,168.44z M79.17,162.498l-0.445,3.169
				l-1.13,0.99l-0.851-0.99l0.445-3.169l1.129-0.99L79.17,162.498z M78.23,172.005h5.149l0.851,0.99l-1.129,0.99h-5.149l-0.852-0.99
				L78.23,172.005z M79.065,166.063h5.149l0.851,0.99l-1.129,0.99h-5.149l-0.852-0.99L79.065,166.063z M86.258,168.44l-0.445,3.168
				l-1.131,0.99l-0.851-0.99l0.445-3.168l1.129-0.99L86.258,168.44z"/>
			<path d="M96.339,168.44l-0.445,3.168l-1.13,0.99l-0.851-0.99l0.445-3.168l1.129-0.99L96.339,168.44z M96.234,172.005h5.149
				l0.851,0.99l-1.129,0.99h-5.149l-0.852-0.99L96.234,172.005z M97.069,166.063h5.149l0.851,0.99l-1.129,0.99h-5.149l-0.852-0.99
				L97.069,166.063z"/>
			<path d="M114.342,168.44l-0.445,3.168l-1.13,0.99l-0.851-0.99l0.445-3.168l1.129-0.99L114.342,168.44z M114.237,172.005h5.149
				l0.851,0.99l-1.129,0.99h-5.149l-0.852-0.99L114.237,172.005z M115.072,166.063h5.149l0.851,0.99l-1.129,0.99h-5.149l-0.852-0.99
				L115.072,166.063z M122.265,168.44l-0.445,3.168l-1.131,0.99l-0.851-0.99l0.445-3.168l1.129-0.99L122.265,168.44z M123.1,162.498
				l-0.445,3.169l-1.131,0.99l-0.851-0.99l0.445-3.169l1.129-0.99L123.1,162.498z"/>
			<path d="M132.345,168.44l-0.445,3.168l-1.13,0.99l-0.851-0.99l0.445-3.168l1.129-0.99L132.345,168.44z M133.18,162.498
				l-0.445,3.169l-1.13,0.99l-0.851-0.99l0.445-3.169l1.129-0.99L133.18,162.498z M132.24,172.005h5.149l0.851,0.99l-1.129,0.99
				h-5.149l-0.852-0.99L132.24,172.005z M133.075,166.063h5.149l0.851,0.99l-1.129,0.99h-5.149l-0.852-0.99L133.075,166.063z
				 M133.91,160.121h5.149l0.851,0.99l-1.129,0.99h-5.149l-0.852-0.99L133.91,160.121z M141.103,162.498l-0.445,3.169l-1.131,0.99
				l-0.851-0.99l0.445-3.169l1.129-0.99L141.103,162.498z"/>
			<path d="M150.348,168.44l-0.445,3.168l-1.13,0.99l-0.851-0.99l0.445-3.168l1.129-0.99L150.348,168.44z M151.183,162.498
				l-0.445,3.169l-1.13,0.99l-0.851-0.99l0.445-3.169l1.129-0.99L151.183,162.498z M151.078,166.063h5.149l0.851,0.99l-1.129,0.99
				H150.8l-0.852-0.99L151.078,166.063z M151.913,160.121h5.149l0.851,0.99l-1.129,0.99h-5.149l-0.852-0.99L151.913,160.121z"/>
			<path d="M169.186,162.498l-0.445,3.169l-1.13,0.99l-0.851-0.99l0.445-3.169l1.129-0.99L169.186,162.498z M168.246,172.005h5.149
				l0.851,0.99l-1.129,0.99h-5.149l-0.852-0.99L168.246,172.005z M169.081,166.063h5.149l0.851,0.99l-1.129,0.99h-5.149l-0.852-0.99
				L169.081,166.063z M169.916,160.121h5.149l0.851,0.99l-1.129,0.99h-5.149l-0.852-0.99L169.916,160.121z M176.273,168.44
				l-0.445,3.168l-1.131,0.99l-0.851-0.99l0.445-3.168l1.129-0.99L176.273,168.44z M177.108,162.498l-0.445,3.169l-1.131,0.99
				l-0.851-0.99l0.445-3.169l1.129-0.99L177.108,162.498z"/>
			<path d="M186.354,168.44l-0.445,3.168l-1.13,0.99l-0.851-0.99l0.445-3.168l1.129-0.99L186.354,168.44z M187.188,162.498
				l-0.445,3.169l-1.13,0.99l-0.851-0.99l0.445-3.169l1.129-0.99L187.188,162.498z M187.084,166.063h5.149l0.851,0.99l-1.129,0.99
				h-5.149l-0.852-0.99L187.084,166.063z M194.276,168.44l-0.445,3.168l-1.131,0.99l-0.851-0.99l0.445-3.168l1.129-0.99
				L194.276,168.44z"/>
			<path d="M205.923,160.121h5.149l0.851,0.99l-1.129,0.99h-5.149l-0.852-0.99L205.923,160.121z M212.28,168.44l-0.445,3.168
				l-1.131,0.99l-0.851-0.99l0.445-3.168l1.129-0.99L212.28,168.44z"/>
			<path d="M222.256,172.005h5.149l0.851,0.99l-1.129,0.99h-5.149l-0.852-0.99L222.256,172.005z M230.283,168.44l-0.445,3.168
				l-1.131,0.99l-0.851-0.99l0.445-3.168l1.129-0.99L230.283,168.44z M231.118,162.498l-0.445,3.169l-1.131,0.99l-0.851-0.99
				l0.445-3.169l1.129-0.99L231.118,162.498z"/>
			<path d="M240.363,168.44l-0.445,3.168l-1.13,0.99l-0.851-0.99l0.445-3.168l1.129-0.99L240.363,168.44z M241.198,162.498
				l-0.445,3.169l-1.13,0.99l-0.851-0.99l0.445-3.169l1.129-0.99L241.198,162.498z M241.094,166.063h5.149l0.851,0.99l-1.129,0.99
				h-5.149l-0.852-0.99L241.094,166.063z M241.929,160.121h5.149l0.851,0.99l-1.129,0.99h-5.149l-0.852-0.99L241.929,160.121z
				 M248.286,168.44l-0.445,3.168l-1.131,0.99l-0.851-0.99l0.445-3.168l1.129-0.99L248.286,168.44z"/>
			<path d="M266.289,168.44l-0.445,3.168l-1.131,0.99l-0.851-0.99l0.445-3.168l1.129-0.99L266.289,168.44z M267.124,162.498
				l-0.445,3.169l-1.131,0.99l-0.851-0.99l0.445-3.169l1.129-0.99L267.124,162.498z"/>
			<path d="M276.369,168.44l-0.445,3.168l-1.13,0.99l-0.851-0.99l0.445-3.168l1.129-0.99L276.369,168.44z M277.1,166.063h5.149
				l0.851,0.99l-1.129,0.99h-5.149l-0.852-0.99L277.1,166.063z M277.935,160.121h5.149l0.851,0.99l-1.129,0.99h-5.149l-0.852-0.99
				L277.935,160.121z M284.292,168.44l-0.445,3.168l-1.131,0.99l-0.851-0.99l0.445-3.168l1.129-0.99L284.292,168.44z"/>
			<path d="M294.373,168.44l-0.445,3.168l-1.13,0.99l-0.851-0.99l0.445-3.168l1.129-0.99L294.373,168.44z M295.104,166.063h5.149
				l0.851,0.99l-1.129,0.99h-5.149l-0.852-0.99L295.104,166.063z M302.296,168.44l-0.445,3.168l-1.131,0.99l-0.851-0.99l0.445-3.168
				l1.129-0.99L302.296,168.44z"/>
			<path d="M312.376,168.44l-0.445,3.168l-1.13,0.99l-0.851-0.99l0.445-3.168l1.129-0.99L312.376,168.44z M312.271,172.005h5.149
				l0.851,0.99l-1.129,0.99h-5.149l-0.852-0.99L312.271,172.005z M313.106,166.063h5.149l0.851,0.99l-1.129,0.99h-5.149l-0.852-0.99
				L313.106,166.063z M320.299,168.44l-0.445,3.168l-1.131,0.99l-0.851-0.99l0.445-3.168l1.129-0.99L320.299,168.44z"/>
		</g>
		<g>
			<path d="M42.329,195.44l-0.445,3.168l-1.13,0.99l-0.851-0.99l0.445-3.168l1.129-0.99L42.329,195.44z M43.164,189.498
				l-0.445,3.169l-1.13,0.99l-0.851-0.99l0.445-3.169l1.129-0.99L43.164,189.498z M43.06,193.063h5.149l0.851,0.99l-1.129,0.99
				h-5.149l-0.852-0.99L43.06,193.063z M43.895,187.121h5.149l0.851,0.99l-1.129,0.99h-5.149l-0.852-0.99L43.895,187.121z
				 M51.087,189.498l-0.445,3.169l-1.131,0.99l-0.851-0.99l0.445-3.169l1.129-0.99L51.087,189.498z"/>
			<path d="M61.167,189.498l-0.445,3.169l-1.13,0.99l-0.851-0.99l0.445-3.169l1.129-0.99L61.167,189.498z M61.063,193.063h5.149
				l0.851,0.99l-1.129,0.99h-5.149l-0.852-0.99L61.063,193.063z M61.897,187.121h5.149l0.851,0.99l-1.129,0.99h-5.149l-0.852-0.99
				L61.897,187.121z M68.255,195.44l-0.445,3.168l-1.131,0.99l-0.851-0.99l0.445-3.168l1.129-0.99L68.255,195.44z M69.09,189.498
				l-0.445,3.169l-1.131,0.99l-0.851-0.99l0.445-3.169l1.129-0.99L69.09,189.498z"/>
			<path d="M78.335,195.44l-0.445,3.168l-1.13,0.99l-0.851-0.99l0.445-3.168l1.129-0.99L78.335,195.44z M79.065,193.063h5.149
				l0.851,0.99l-1.129,0.99h-5.149l-0.852-0.99L79.065,193.063z"/>
			<path d="M97.174,189.498l-0.445,3.169l-1.13,0.99l-0.851-0.99l0.445-3.169l1.129-0.99L97.174,189.498z M96.234,199.005h5.149
				l0.851,0.99l-1.129,0.99h-5.149l-0.852-0.99L96.234,199.005z M97.069,193.063h5.149l0.851,0.99l-1.129,0.99h-5.149l-0.852-0.99
				L97.069,193.063z M97.904,187.121h5.149l0.851,0.99l-1.129,0.99h-5.149l-0.852-0.99L97.904,187.121z M104.262,195.44
				l-0.445,3.168l-1.131,0.99l-0.851-0.99l0.445-3.168l1.129-0.99L104.262,195.44z"/>
			<path d="M114.342,195.44l-0.445,3.168l-1.13,0.99l-0.851-0.99l0.445-3.168l1.129-0.99L114.342,195.44z M115.177,189.498
				l-0.445,3.169l-1.13,0.99l-0.851-0.99l0.445-3.169l1.129-0.99L115.177,189.498z M114.237,199.005h5.149l0.851,0.99l-1.129,0.99
				h-5.149l-0.852-0.99L114.237,199.005z M115.072,193.063h5.149l0.851,0.99l-1.129,0.99h-5.149l-0.852-0.99L115.072,193.063z"/>
			<path d="M132.345,195.44l-0.445,3.168l-1.13,0.99l-0.851-0.99l0.445-3.168l1.129-0.99L132.345,195.44z M132.24,199.005h5.149
				l0.851,0.99l-1.129,0.99h-5.149l-0.852-0.99L132.24,199.005z M140.268,195.44l-0.445,3.168l-1.131,0.99l-0.851-0.99l0.445-3.168
				l1.129-0.99L140.268,195.44z"/>
			<path d="M150.348,195.44l-0.445,3.168l-1.13,0.99l-0.851-0.99l0.445-3.168l1.129-0.99L150.348,195.44z M150.243,199.005h5.149
				l0.851,0.99l-1.129,0.99h-5.149l-0.852-0.99L150.243,199.005z M151.913,187.121h5.149l0.851,0.99l-1.129,0.99h-5.149l-0.852-0.99
				L151.913,187.121z M158.271,195.44l-0.445,3.168l-1.131,0.99l-0.851-0.99l0.445-3.168l1.129-0.99L158.271,195.44z"/>
			<path d="M168.351,195.44l-0.445,3.168l-1.13,0.99l-0.851-0.99l0.445-3.168l1.129-0.99L168.351,195.44z M169.186,189.498
				l-0.445,3.169l-1.13,0.99l-0.851-0.99l0.445-3.169l1.129-0.99L169.186,189.498z M168.246,199.005h5.149l0.851,0.99l-1.129,0.99
				h-5.149l-0.852-0.99L168.246,199.005z M169.081,193.063h5.149l0.851,0.99l-1.129,0.99h-5.149l-0.852-0.99L169.081,193.063z
				 M176.273,195.44l-0.445,3.168l-1.131,0.99l-0.851-0.99l0.445-3.168l1.129-0.99L176.273,195.44z M177.108,189.498l-0.445,3.169
				l-1.131,0.99l-0.851-0.99l0.445-3.169l1.129-0.99L177.108,189.498z"/>
			<path d="M186.249,199.005h5.149l0.851,0.99l-1.129,0.99h-5.149l-0.852-0.99L186.249,199.005z M187.084,193.063h5.149l0.851,0.99
				l-1.129,0.99h-5.149l-0.852-0.99L187.084,193.063z"/>
			<path d="M205.192,189.498l-0.445,3.169l-1.13,0.99l-0.851-0.99l0.445-3.169l1.129-0.99L205.192,189.498z M204.253,199.005h5.149
				l0.851,0.99l-1.129,0.99h-5.149l-0.852-0.99L204.253,199.005z M205.088,193.063h5.149l0.851,0.99l-1.129,0.99h-5.149l-0.852-0.99
				L205.088,193.063z M212.28,195.44l-0.445,3.168l-1.131,0.99l-0.851-0.99l0.445-3.168l1.129-0.99L212.28,195.44z M213.115,189.498
				l-0.445,3.169l-1.131,0.99l-0.851-0.99l0.445-3.169l1.129-0.99L213.115,189.498z"/>
			<path d="M222.36,195.44l-0.445,3.168l-1.13,0.99l-0.851-0.99l0.445-3.168l1.129-0.99L222.36,195.44z M222.256,199.005h5.149
				l0.851,0.99l-1.129,0.99h-5.149l-0.852-0.99L222.256,199.005z M223.091,193.063h5.149l0.851,0.99l-1.129,0.99h-5.149l-0.852-0.99
				L223.091,193.063z M223.926,187.121h5.149l0.851,0.99l-1.129,0.99h-5.149l-0.852-0.99L223.926,187.121z M231.118,189.498
				l-0.445,3.169l-1.131,0.99l-0.851-0.99l0.445-3.169l1.129-0.99L231.118,189.498z"/>
			<path d="M241.094,193.063h5.149l0.851,0.99l-1.129,0.99h-5.149l-0.852-0.99L241.094,193.063z M248.286,195.44l-0.445,3.168
				l-1.131,0.99l-0.851-0.99l0.445-3.168l1.129-0.99L248.286,195.44z M249.121,189.498l-0.445,3.169l-1.131,0.99l-0.851-0.99
				l0.445-3.169l1.129-0.99L249.121,189.498z"/>
			<path d="M258.366,195.44l-0.445,3.168l-1.13,0.99l-0.851-0.99l0.445-3.168l1.129-0.99L258.366,195.44z M259.201,189.498
				l-0.445,3.169l-1.13,0.99l-0.851-0.99l0.445-3.169l1.129-0.99L259.201,189.498z"/>
			<path d="M276.369,195.44l-0.445,3.168l-1.13,0.99l-0.851-0.99l0.445-3.168l1.129-0.99L276.369,195.44z M277.204,189.498
				l-0.445,3.169l-1.13,0.99l-0.851-0.99l0.445-3.169l1.129-0.99L277.204,189.498z M277.1,193.063h5.149l0.851,0.99l-1.129,0.99
				h-5.149l-0.852-0.99L277.1,193.063z"/>
			<path d="M295.938,187.121h5.149l0.851,0.99l-1.129,0.99h-5.149l-0.852-0.99L295.938,187.121z"/>
		</g>
		<g>
			<g>
				<rect x="36" y="45" fill="none" stroke="#000" width="18" height="27"/>
				<rect x="54" y="45" fill="none" stroke="#000" width="18" height="27"/>
				<rect x="72" y="45" fill="none" stroke="#000" width="18" height="27"/>
				<rect x="90" y="45" fill="none" stroke="#000" width="18" height="27"/>
				<rect x="108" y="45" fill="none" stroke="#000" width="18" height="27"/>
				<rect x="126" y="45" fill="none" stroke="#000" width="18" height="27"/>
				<rect x="144" y="45" fill="none" stroke="#000" width="18" height="27"/>
				<rect x="162" y="45" fill="none" stroke="#000" width="18" height="27"/>
				<rect x="180" y="45" fill="none" stroke="#000" width="18" height="27"/>
				<rect x="198" y="45" fill="none" stroke="#000" width="18" height="27"/>
				<rect x="216" y="45" fill="none" stroke="#000" width="18" height="27"/>
				<rect x="234" y="45" fill="none" stroke="#000" width="18" height="27"/>
				<rect x="252" y="45" fill="none" stroke="#000" width="18" height="27"/>
				<rect x="270" y="45" fill="none" stroke="#000" width="18" height="27"/>
				<rect x="288" y="45" fill="none" stroke="#000" width="18" height="27"/>
				<rect x="306" y="45" fill="none" stroke="#000" width="18" height="27"/>
			</g>
			<g>
				<rect x="36" y="72" fill="none" stroke="#000" width="18" height="27"/>
				<rect x="54" y="72" fill="none" stroke="#000" width="18" height="27"/>
				<rect x="72" y="72" fill="none" stroke="#000" width="18" height="27"/>
				<rect x="90" y="72" fill="none" stroke="#000" width="18" height="27"/>
				<rect x="108" y="72" fill="none" stroke="#000" width="18" height="27"/>
				<rect x="126" y="72" fill="none" stroke="#000" width="18" height="27"/>
				<rect x="144" y="72" fill="none" stroke="#000" width="18" height="27"/>
				<rect x="162" y="72" fill="none" stroke="#000" width="18" height="27"/>
				<rect x="180" y="72" fill="none" stroke="#000" width="18" height="27"/>
				<rect x="198" y="72" fill="none" stroke="#000" width="18" height="27"/>
				<rect x="216" y="72" fill="none" stroke="#000" width="18" height="27"/>
				<rect x="234" y="72" fill="none" stroke="#000" width="18" height="27"/>
				<rect x="252" y="72" fill="none" stroke="#000" width="18" height="27"/>
				<rect x="270" y="72" fill="none" stroke="#000" width="18" height="27"/>
				<rect x="288" y="72" fill="none" stroke="#000" width="18" height="27"/>
				<rect x="306" y="72" fill="none" stroke="#000" width="18" height="27"/>
			</g>
			<g>
				<rect x="36" y="99" fill="none" stroke="#000" width="18" height="27"/>
				<rect x="54" y="99" fill="none" stroke="#000" width="18" height="27"/>
				<rect x="72" y="99" fill="none" stroke="#000" width="18" height="27"/>
				<rect x="90" y="99" fill="none" stroke="#000" width="18" height="27"/>
				<rect x="108" y="99" fill="none" stroke="#000" width="18" height="27"/>
				<rect x="126" y="99" fill="none" stroke="#000" width="18" height="27"/>
				<rect x="144" y="99" fill="none" stroke="#000" width="18" height="27"/>
				<rect x="162" y="99" fill="none" stroke="#000" width="18" height="27"/>
				<rect x="180" y="99" fill="none" stroke="#000" width="18" height="27"/>
				<rect x="198" y="99" fill="none" stroke="#000" width="18" height="27"/>
				<rect x="216" y="99" fill="none" stroke="#000" width="18" height="27"/>
				<rect x="234" y="99" fill="none" stroke="#000" width="18" height="27"/>
				<rect x="252" y="99" fill="none" stroke="#000" width="18" height="27"/>
				<rect x="270" y="99" fill="none" stroke="#000" width="18" height="27"/>
				<rect x="288" y="99" fill="none" stroke="#000" width="18" height="27"/>
				<rect x="306" y="99" fill="none" stroke="#000" width="18" height="27"/>
			</g>
			<g>
				<rect x="36" y="126" fill="none" stroke="#000" width="18" height="27"/>
				<rect x="54" y="126" fill="none" stroke="#000" width="18" height="27"/>
				<rect x="72" y="126" fill="none" stroke="#000" width="18" height="27"/>
				<rect x="90" y="126" fill="none" stroke="#000" width="18" height="27"/>
				<rect x="108" y="126" fill="none" stroke="#000" width="18" height="27"/>
				<rect x="126" y="126" fill="none" stroke="#000" width="18" height="27"/>
				<rect x="144" y="126" fill="none" stroke="#000" width="18" height="27"/>
				<rect x="162" y="126" fill="none" stroke="#000" width="18" height="27"/>
				<rect x="180" y="126" fill="none" stroke="#000" width="18" height="27"/>
				<rect x="198" y="126" fill="none" stroke="#000" width="18" height="27"/>
				<rect x="216" y="126" fill="none" stroke="#000" width="18" height="27"/>
				<rect x="234" y="126" fill="none" stroke="#000" width="18" height="27"/>
				<rect x="252" y="126" fill="none" stroke="#000" width="18" height="27"/>
				<rect x="270" y="126" fill="none" stroke="#000" width="18" height="27"/>
				<rect x="288" y="126" fill="none" stroke="#000" width="18" height="27"/>
				<rect x="306" y="126" fill="none" stroke="#000" width="18" height="27"/>
			</g>
			<g>
				<rect x="36" y="153" fill="none" stroke="#000" width="18" height="27"/>
				<rect x="54" y="153" fill="none" stroke="#000" width="18" height="27"/>
				<rect x="72" y="153" fill="none" stroke="#000" width="18" height="27"/>
				<rect x="90" y="153" fill="none" stroke="#000" width="18" height="27"/>
				<rect x="108" y="153" fill="none" stroke="#000" width="18" height="27"/>
				<rect x="126" y="153" fill="none" stroke="#000" width="18" height="27"/>
				<rect x="144" y="153" fill="none" stroke="#000" width="18" height="27"/>
				<rect x="162" y="153" fill="none" stroke="#000" width="18" height="27"/>
				<rect x="180" y="153" fill="none" stroke="#000" width="18" height="27"/>
				<rect x="198" y="153" fill="none" stroke="#000" width="18" height="27"/>
				<rect x="216" y="153" fill="none" stroke="#000" width="18" height="27"/>
				<rect x="234" y="153" fill="none" stroke="#000" width="18" height="27"/>
				<rect x="252" y="153" fill="none" stroke="#000" width="18" height="27"/>
				<rect x="270" y="153" fill="none" stroke="#000" width="18" height="27"/>
				<rect x="288" y="153" fill="none" stroke="#000" width="18" height="27"/>
				<rect x="306" y="153" fill="none" stroke="#000" width="18" height="27"/>
			</g>
			<g>
				<rect x="36" y="180" fill="none" stroke="#000" width="18" height="27"/>
				<rect x="54" y="180" fill="none" stroke="#000" width="18" height="27"/>
				<rect x="72" y="180" fill="none" stroke="#000" width="18" height="27"/>
				<rect x="90" y="180" fill="none" stroke="#000" width="18" height="27"/>
				<rect x="108" y="180" fill="none" stroke="#000" width="18" height="27"/>
				<rect x="126" y="180" fill="none" stroke="#000" width="18" height="27"/>
				<rect x="144" y="180" fill="none" stroke="#000" width="18" height="27"/>
				<rect x="162" y="180" fill="none" stroke="#000" width="18" height="27"/>
				<rect x="180" y="180" fill="none" stroke="#000" width="18" height="27"/>
				<rect x="198" y="180" fill="none" stroke="#000" width="18" height="27"/>
				<rect x="216" y="180" fill="none" stroke="#000" width="18" height="27"/>
				<rect x="234" y="180" fill="none" stroke="#000" width="18" height="27"/>
				<rect x="252" y="180" fill="none" stroke="#000" width="18" height="27"/>
				<rect x="270" y="180" fill="none" stroke="#000" width="18" height="27"/>
				<rect x="288" y="180" fill="none" stroke="#000" width="18" height="27"/>
				<rect x="306" y="180" fill="none" stroke="#000" width="18" height="27"/>
			</g>
		</g>
	</g>
	<text transform="matrix(0.95 0 0 1 37.0044 40.5)" font-family="Verdana" font-size="6.55">0000 0001 0010 0011 0100 0101 0110 0111 1000 1001 1010 1011 1100 1101 1110 1111</text>
	<text transform="matrix(0.95 0 0 1 13.7012 54)"><tspan x="0" y="0" font-family="Verdana" font-size="6.55">D6=0</tspan><tspan x="0" y="6.75" font-family="Verdana" font-size="6.55">D5=1</tspan><tspan x="0" y="13.5" font-family="Verdana" font-size="6.55">D4=0</tspan><tspan x="0" y="27" font-family="Verdana" font-size="6.55">D6=0</tspan><tspan x="0" y="33.75" font-family="Verdana" font-size="6.55">D5=1</tspan><tspan x="0" y="40.5" font-family="Verdana" font-size="6.55">D4=1</tspan><tspan x="0" y="54" font-family="Verdana" font-size="6.55">D6=1</tspan><tspan x="0" y="60.75" font-family="Verdana" font-size="6.55">D5=0</tspan><tspan x="0" y="67.5" font-family="Verdana" font-size="6.55">D4=0</tspan><tspan x="0" y="81" font-family="Verdana" font-size="6.55">D6=1</tspan><tspan x="0" y="87.75" font-family="Verdana" font-size="6.55">D5=0</tspan><tspan x="0" y="94.5" font-family="Verdana" font-size="6.55">D4=1</tspan><tspan x="0" y="108" font-family="Verdana" font-size="6.55">D6=1</tspan><tspan x="0" y="114.75" font-family="Verdana" font-size="6.55">D5=1</tspan><tspan x="0" y="121.5" font-family="Verdana" font-size="6.55">D4=0</tspan><tspan x="0" y="135" font-family="Verdana" font-size="6.55">D6=1</tspan><tspan x="0" y="141.75" font-family="Verdana" font-size="6.55">D5=1</tspan><tspan x="0" y="148.5" font-family="Verdana" font-size="6.55">D4=1</tspan></text>
</g>
<text transform="matrix(1 0 0 1 36 22.5)" font-family="Verdana" font-size="10">FS=0:</text>
</svg>
