<?xml version="1.0" encoding="utf-8"?>
<!-- Generator: Adobe Illustrator 16.0.0, SVG Export Plug-In . SVG Version: 6.00 Build 0)  -->
<!DOCTYPE svg PUBLIC "-//W3C//DTD SVG 1.1//EN" "http://www.w3.org/Graphics/SVG/1.1/DTD/svg11.dtd">
<svg version="1.1" id="Layer_1" xmlns="http://www.w3.org/2000/svg" xmlns:xlink="http://www.w3.org/1999/xlink" x="0px" y="0px"
	 width="684px" height="440px" viewBox="0 218 342 220" enable-background="new 0 218 342 220" xml:space="preserve">
<g>
	<g>
		<g>
			<path d="M60.228,280.005h5.149l0.851,0.99l-1.129,0.99h-5.149l-0.852-0.99L60.228,280.005z M69.09,270.498l-0.445,3.169
				l-1.131,0.99l-0.851-0.99l0.445-3.169l1.129-0.99L69.09,270.498z"/>
			<path d="M79.17,270.498l-0.445,3.169l-1.13,0.99l-0.851-0.99l0.445-3.169l1.129-0.99L79.17,270.498z M87.093,270.498
				l-0.445,3.169l-1.131,0.99l-0.851-0.99l0.445-3.169l1.129-0.99L87.093,270.498z"/>
			<path d="M96.339,276.44l-0.445,3.168l-1.13,0.99l-0.851-0.99l0.445-3.168l1.129-0.99L96.339,276.44z M97.174,270.498
				l-0.445,3.169l-1.13,0.99l-0.851-0.99l0.445-3.169l1.129-0.99L97.174,270.498z M104.262,276.44l-0.445,3.168l-1.131,0.99
				l-0.851-0.99l0.445-3.168l1.129-0.99L104.262,276.44z M105.097,270.498l-0.445,3.169l-1.131,0.99l-0.851-0.99l0.445-3.169
				l1.129-0.99L105.097,270.498z"/>
			<path d="M114.342,276.44l-0.445,3.168l-1.13,0.99l-0.851-0.99l0.445-3.168l1.129-0.99L114.342,276.44z M123.1,270.498
				l-0.445,3.169l-1.131,0.99l-0.851-0.99l0.445-3.169l1.129-0.99L123.1,270.498z"/>
			<path d="M133.18,270.498l-0.445,3.169l-1.13,0.99l-0.851-0.99l0.445-3.169l1.129-0.99L133.18,270.498z M140.268,276.44
				l-0.445,3.168l-1.131,0.99l-0.851-0.99l0.445-3.168l1.129-0.99L140.268,276.44z"/>
			<path d="M150.348,276.44l-0.445,3.168l-1.13,0.99l-0.851-0.99l0.445-3.168l1.129-0.99L150.348,276.44z M151.183,270.498
				l-0.445,3.169l-1.13,0.99l-0.851-0.99l0.445-3.169l1.129-0.99L151.183,270.498z M150.243,280.005h5.149l0.851,0.99l-1.129,0.99
				h-5.149l-0.852-0.99L150.243,280.005z M151.078,274.063h5.149l0.851,0.99l-1.129,0.99H150.8l-0.852-0.99L151.078,274.063z"/>
			<path d="M169.081,274.063h5.149l0.851,0.99l-1.129,0.99h-5.149l-0.852-0.99L169.081,274.063z M177.108,270.498l-0.445,3.169
				l-1.131,0.99l-0.851-0.99l0.445-3.169l1.129-0.99L177.108,270.498z"/>
			<path d="M186.354,276.44l-0.445,3.168l-1.13,0.99l-0.851-0.99l0.445-3.168l1.129-0.99L186.354,276.44z M186.249,280.005h5.149
				l0.851,0.99l-1.129,0.99h-5.149l-0.852-0.99L186.249,280.005z M187.084,274.063h5.149l0.851,0.99l-1.129,0.99h-5.149l-0.852-0.99
				L187.084,274.063z"/>
			<path d="M204.253,280.005h5.149l0.851,0.99l-1.129,0.99h-5.149l-0.852-0.99L204.253,280.005z M205.088,274.063h5.149l0.851,0.99
				l-1.129,0.99h-5.149l-0.852-0.99L205.088,274.063z M212.28,276.44l-0.445,3.168l-1.131,0.99l-0.851-0.99l0.445-3.168l1.129-0.99
				L212.28,276.44z"/>
			<path d="M223.195,270.498l-0.445,3.169l-1.13,0.99l-0.851-0.99l0.445-3.169l1.129-0.99L223.195,270.498z M223.091,274.063h5.149
				l0.851,0.99l-1.129,0.99h-5.149l-0.852-0.99L223.091,274.063z M223.926,268.121h5.149l0.851,0.99l-1.129,0.99h-5.149l-0.852-0.99
				L223.926,268.121z M231.118,270.498l-0.445,3.169l-1.131,0.99l-0.851-0.99l0.445-3.169l1.129-0.99L231.118,270.498z"/>
			<path d="M241.094,274.063h5.149l0.851,0.99l-1.129,0.99h-5.149l-0.852-0.99L241.094,274.063z M248.286,276.44l-0.445,3.168
				l-1.131,0.99l-0.851-0.99l0.445-3.168l1.129-0.99L248.286,276.44z M249.121,270.498l-0.445,3.169l-1.131,0.99l-0.851-0.99
				l0.445-3.169l1.129-0.99L249.121,270.498z"/>
			<path d="M258.262,280.005h5.149l0.851,0.99l-1.129,0.99h-5.149l-0.852-0.99L258.262,280.005z M266.289,276.44l-0.445,3.168
				l-1.131,0.99l-0.851-0.99l0.445-3.168l1.129-0.99L266.289,276.44z"/>
			<path d="M277.1,274.063h5.149l0.851,0.99l-1.129,0.99h-5.149l-0.852-0.99L277.1,274.063z"/>
			<path d="M294.373,276.44l-0.445,3.168l-1.13,0.99l-0.851-0.99l0.445-3.168l1.129-0.99L294.373,276.44z"/>
			<path d="M312.376,276.44l-0.445,3.168l-1.13,0.99l-0.851-0.99l0.445-3.168l1.129-0.99L312.376,276.44z M313.106,274.063h5.149
				l0.851,0.99l-1.129,0.99h-5.149l-0.852-0.99L313.106,274.063z M321.134,270.498l-0.445,3.169l-1.131,0.99l-0.851-0.99
				l0.445-3.169l1.129-0.99L321.134,270.498z"/>
		</g>
		<g>
			<g>
				<path fill="#999" d="M151.913,295.121h5.149l0.851,0.99l-1.129,0.99h-5.149l-0.852-0.99L151.913,295.121z"/>
				<path fill="#999" d="M169.186,297.498l-0.445,3.17l-1.13,0.99l-0.851-0.99l0.445-3.17l1.129-0.99L169.186,297.498z"/>
				<path fill="#999" d="M204.253,307.005h5.149l0.851,0.99l-1.129,0.99h-5.149l-0.852-0.99L204.253,307.005z"/>
			</g>
			<g>
				<path d="M42.329,303.439l-0.446,3.17l-1.129,0.99l-0.851-0.99l0.446-3.17l1.129-0.99L42.329,303.439z M43.164,297.498
					l-0.445,3.17l-1.13,0.99l-0.851-0.99l0.445-3.17l1.129-0.99L43.164,297.498z M42.224,307.005h5.15l0.851,0.99l-1.129,0.99h-5.15
					l-0.851-0.99L42.224,307.005z M43.895,295.121h5.149l0.851,0.99l-1.129,0.99h-5.149l-0.852-0.99L43.895,295.121z
					 M50.252,303.439l-0.445,3.17l-1.131,0.99l-0.851-0.99l0.445-3.17l1.129-0.99L50.252,303.439z M51.087,297.498l-0.445,3.17
					l-1.131,0.99l-0.851-0.99l0.445-3.17l1.129-0.99L51.087,297.498z"/>
				<path d="M68.255,303.439l-0.445,3.17l-1.131,0.99l-0.851-0.99l0.445-3.17l1.129-0.99L68.255,303.439z M69.09,297.498
					l-0.445,3.17l-1.131,0.99l-0.851-0.99l0.445-3.17l1.129-0.99L69.09,297.498z"/>
				<path d="M78.335,303.439l-0.445,3.17l-1.13,0.99l-0.851-0.99l0.445-3.17l1.129-0.99L78.335,303.439z M78.23,307.005h5.149
					l0.851,0.99l-1.129,0.99h-5.149l-0.852-0.99L78.23,307.005z M79.065,301.063h5.149l0.851,0.99l-1.129,0.99h-5.149l-0.852-0.99
					L79.065,301.063z M79.9,295.121h5.149l0.851,0.99l-1.129,0.99h-5.149l-0.852-0.99L79.9,295.121z M87.093,297.498l-0.445,3.17
					l-1.131,0.99l-0.851-0.99l0.445-3.17l1.129-0.99L87.093,297.498z"/>
				<path d="M96.234,307.005h5.149l0.851,0.99l-1.129,0.99h-5.149l-0.852-0.99L96.234,307.005z M97.069,301.063h5.149l0.851,0.99
					l-1.129,0.99h-5.149l-0.852-0.99L97.069,301.063z M97.904,295.121h5.149l0.851,0.99l-1.129,0.99h-5.149l-0.852-0.99
					L97.904,295.121z M104.262,303.439l-0.445,3.17l-1.131,0.99l-0.851-0.99l0.445-3.17l1.129-0.99L104.262,303.439z
					 M105.097,297.498l-0.445,3.17l-1.131,0.99l-0.851-0.99l0.445-3.17l1.129-0.99L105.097,297.498z"/>
				<path d="M115.177,297.498l-0.445,3.17l-1.13,0.99l-0.851-0.99l0.445-3.17l1.129-0.99L115.177,297.498z M115.072,301.063h5.149
					l0.851,0.99l-1.129,0.99h-5.149l-0.852-0.99L115.072,301.063z M122.265,303.439l-0.445,3.17l-1.131,0.99l-0.851-0.99l0.445-3.17
					l1.129-0.99L122.265,303.439z M123.1,297.498l-0.445,3.17l-1.131,0.99l-0.851-0.99l0.445-3.17l1.129-0.99L123.1,297.498z"/>
				<path d="M133.18,297.498l-0.445,3.17l-1.13,0.99l-0.851-0.99l0.445-3.17l1.129-0.99L133.18,297.498z M132.24,307.005h5.149
					l0.851,0.99l-1.129,0.99h-5.149l-0.852-0.99L132.24,307.005z M133.075,301.063h5.149l0.851,0.99l-1.129,0.99h-5.149l-0.852-0.99
					L133.075,301.063z M133.91,295.121h5.149l0.851,0.99l-1.129,0.99h-5.149l-0.852-0.99L133.91,295.121z M140.268,303.439
					l-0.445,3.17l-1.131,0.99l-0.851-0.99l0.445-3.17l1.129-0.99L140.268,303.439z"/>
				<path d="M150.348,303.439l-0.445,3.17l-1.13,0.99l-0.851-0.99l0.445-3.17l1.129-0.99L150.348,303.439z M151.183,297.498
					l-0.445,3.17l-1.13,0.99l-0.851-0.99l0.445-3.17l1.129-0.99L151.183,297.498z M150.243,307.005h5.149l0.851,0.99l-1.129,0.99
					h-5.149l-0.852-0.99L150.243,307.005z M151.078,301.063h5.149l0.851,0.99l-1.129,0.99H150.8l-0.852-0.99L151.078,301.063z
					 M158.271,303.439l-0.445,3.17l-1.131,0.99l-0.851-0.99l0.445-3.17l1.129-0.99L158.271,303.439z"/>
				<path d="M169.916,295.121h5.149l0.851,0.99l-1.129,0.99h-5.149l-0.852-0.99L169.916,295.121z M176.273,303.439l-0.445,3.17
					l-1.131,0.99l-0.851-0.99l0.445-3.17l1.129-0.99L176.273,303.439z M177.108,297.498l-0.445,3.17l-1.131,0.99l-0.851-0.99
					l0.445-3.17l1.129-0.99L177.108,297.498z"/>
				<path d="M186.354,303.439l-0.445,3.17l-1.13,0.99l-0.851-0.99l0.445-3.17l1.129-0.99L186.354,303.439z M187.188,297.498
					l-0.445,3.17l-1.13,0.99l-0.851-0.99l0.445-3.17l1.129-0.99L187.188,297.498z M186.249,307.005h5.149l0.851,0.99l-1.129,0.99
					h-5.149l-0.852-0.99L186.249,307.005z M187.084,301.063h5.149l0.851,0.99l-1.129,0.99h-5.149l-0.852-0.99L187.084,301.063z
					 M187.919,295.121h5.149l0.851,0.99l-1.129,0.99h-5.149l-0.852-0.99L187.919,295.121z M194.276,303.439l-0.445,3.17l-1.131,0.99
					l-0.851-0.99l0.445-3.17l1.129-0.99L194.276,303.439z M195.111,297.498l-0.445,3.17l-1.131,0.99l-0.851-0.99l0.445-3.17
					l1.129-0.99L195.111,297.498z"/>
				<path d="M205.192,297.498l-0.445,3.17l-1.13,0.99l-0.851-0.99l0.445-3.17l1.129-0.99L205.192,297.498z M205.088,301.063h5.149
					l0.851,0.99l-1.129,0.99h-5.149l-0.852-0.99L205.088,301.063z M205.923,295.121h5.149l0.851,0.99l-1.129,0.99h-5.149
					l-0.852-0.99L205.923,295.121z M212.28,303.439l-0.445,3.17l-1.131,0.99l-0.851-0.99l0.445-3.17l1.129-0.99L212.28,303.439z
					 M213.115,297.498l-0.445,3.17l-1.131,0.99l-0.851-0.99l0.445-3.17l1.129-0.99L213.115,297.498z"/>
				<path d="M222.256,307.005h5.149l0.851,0.99l-1.129,0.99h-5.149l-0.852-0.99L222.256,307.005z M223.926,295.121h5.149l0.851,0.99
					l-1.129,0.99h-5.149l-0.852-0.99L223.926,295.121z"/>
				<path d="M240.259,307.005h5.149l0.851,0.99l-1.129,0.99h-5.149l-0.852-0.99L240.259,307.005z M241.929,295.121h5.149l0.851,0.99
					l-1.129,0.99h-5.149l-0.852-0.99L241.929,295.121z M248.286,303.439l-0.445,3.17l-1.131,0.99l-0.851-0.99l0.445-3.17l1.129-0.99
					L248.286,303.439z"/>
				<path d="M259.201,297.498l-0.445,3.17l-1.13,0.99l-0.851-0.99l0.445-3.17l1.129-0.99L259.201,297.498z M259.097,301.063h5.149
					l0.851,0.99l-1.129,0.99h-5.149l-0.852-0.99L259.097,301.063z M259.932,295.121h5.149l0.851,0.99l-1.129,0.99h-5.149
					l-0.852-0.99L259.932,295.121z"/>
				<path d="M277.1,301.063h5.149l0.851,0.99l-1.129,0.99h-5.149l-0.852-0.99L277.1,301.063z M277.935,295.121h5.149l0.851,0.99
					l-1.129,0.99h-5.149l-0.852-0.99L277.935,295.121z"/>
				<path d="M295.104,301.063h5.149l0.851,0.99l-1.129,0.99h-5.149l-0.852-0.99L295.104,301.063z M295.938,295.121h5.149l0.851,0.99
					l-1.129,0.99h-5.149l-0.852-0.99L295.938,295.121z M303.131,297.498l-0.445,3.17l-1.131,0.99l-0.851-0.99l0.445-3.17l1.129-0.99
					L303.131,297.498z"/>
				<path d="M312.376,303.439l-0.445,3.17l-1.13,0.99l-0.851-0.99l0.445-3.17l1.129-0.99L312.376,303.439z M313.106,301.063h5.149
					l0.851,0.99l-1.129,0.99h-5.149l-0.852-0.99L313.106,301.063z M313.941,295.121h5.149l0.851,0.99l-1.129,0.99h-5.149
					l-0.852-0.99L313.941,295.121z M321.134,297.498l-0.445,3.17l-1.131,0.99l-0.851-0.99l0.445-3.17l1.129-0.99L321.134,297.498z"
					/>
			</g>
		</g>
		<g>
			<path d="M42.329,330.44l-0.445,3.168l-1.13,0.99l-0.851-0.99l0.445-3.168l1.129-0.99L42.329,330.44z M43.164,324.498
				l-0.445,3.169l-1.13,0.99l-0.851-0.99l0.445-3.169l1.129-0.99L43.164,324.498z M42.225,334.005h5.149l0.851,0.99l-1.129,0.99
				h-5.149l-0.852-0.99L42.225,334.005z M43.06,328.063h5.149l0.851,0.99l-1.129,0.99h-5.149l-0.852-0.99L43.06,328.063z
				 M43.895,322.121h5.149l0.851,0.99l-1.129,0.99h-5.149l-0.852-0.99L43.895,322.121z M51.087,324.498l-0.445,3.169l-1.131,0.99
				l-0.851-0.99l0.445-3.169l1.129-0.99L51.087,324.498z"/>
			<path d="M60.332,330.44l-0.445,3.168l-1.13,0.99l-0.851-0.99l0.445-3.168l1.129-0.99L60.332,330.44z M61.167,324.498
				l-0.445,3.169l-1.13,0.99l-0.851-0.99l0.445-3.169l1.129-0.99L61.167,324.498z M61.063,328.063h5.149l0.851,0.99l-1.129,0.99
				h-5.149l-0.852-0.99L61.063,328.063z M61.897,322.121h5.149l0.851,0.99l-1.129,0.99h-5.149l-0.852-0.99L61.897,322.121z
				 M68.255,330.44l-0.445,3.168l-1.131,0.99l-0.851-0.99l0.445-3.168l1.129-0.99L68.255,330.44z M69.09,324.498l-0.445,3.169
				l-1.131,0.99l-0.851-0.99l0.445-3.169l1.129-0.99L69.09,324.498z"/>
			<path d="M78.335,330.44l-0.445,3.168l-1.13,0.99l-0.851-0.99l0.445-3.168l1.129-0.99L78.335,330.44z M79.17,324.498l-0.445,3.169
				l-1.13,0.99l-0.851-0.99l0.445-3.169l1.129-0.99L79.17,324.498z M78.23,334.005h5.149l0.851,0.99l-1.129,0.99h-5.149l-0.852-0.99
				L78.23,334.005z M79.065,328.063h5.149l0.851,0.99l-1.129,0.99h-5.149l-0.852-0.99L79.065,328.063z M86.258,330.44l-0.445,3.168
				l-1.131,0.99l-0.851-0.99l0.445-3.168l1.129-0.99L86.258,330.44z"/>
			<path d="M96.339,330.44l-0.445,3.168l-1.13,0.99l-0.851-0.99l0.445-3.168l1.129-0.99L96.339,330.44z M97.174,324.498
				l-0.445,3.169l-1.13,0.99l-0.851-0.99l0.445-3.169l1.129-0.99L97.174,324.498z M96.234,334.005h5.149l0.851,0.99l-1.129,0.99
				h-5.149l-0.852-0.99L96.234,334.005z M97.904,322.121h5.149l0.851,0.99l-1.129,0.99h-5.149l-0.852-0.99L97.904,322.121z"/>
			<path d="M114.342,330.44l-0.445,3.168l-1.13,0.99l-0.851-0.99l0.445-3.168l1.129-0.99L114.342,330.44z M114.237,334.005h5.149
				l0.851,0.99l-1.129,0.99h-5.149l-0.852-0.99L114.237,334.005z M115.072,328.063h5.149l0.851,0.99l-1.129,0.99h-5.149l-0.852-0.99
				L115.072,328.063z M122.265,330.44l-0.445,3.168l-1.131,0.99l-0.851-0.99l0.445-3.168l1.129-0.99L122.265,330.44z M123.1,324.498
				l-0.445,3.169l-1.131,0.99l-0.851-0.99l0.445-3.169l1.129-0.99L123.1,324.498z"/>
			<path d="M132.345,330.44l-0.445,3.168l-1.13,0.99l-0.851-0.99l0.445-3.168l1.129-0.99L132.345,330.44z M133.18,324.498
				l-0.445,3.169l-1.13,0.99l-0.851-0.99l0.445-3.169l1.129-0.99L133.18,324.498z M132.24,334.005h5.149l0.851,0.99l-1.129,0.99
				h-5.149l-0.852-0.99L132.24,334.005z M133.075,328.063h5.149l0.851,0.99l-1.129,0.99h-5.149l-0.852-0.99L133.075,328.063z
				 M133.91,322.121h5.149l0.851,0.99l-1.129,0.99h-5.149l-0.852-0.99L133.91,322.121z"/>
			<path d="M150.348,330.44l-0.445,3.168l-1.13,0.99l-0.851-0.99l0.445-3.168l1.129-0.99L150.348,330.44z M151.183,324.498
				l-0.445,3.169l-1.13,0.99l-0.851-0.99l0.445-3.169l1.129-0.99L151.183,324.498z M151.078,328.063h5.149l0.851,0.99l-1.129,0.99
				H150.8l-0.852-0.99L151.078,328.063z M151.913,322.121h5.149l0.851,0.99l-1.129,0.99h-5.149l-0.852-0.99L151.913,322.121z"/>
			<path d="M168.351,330.44l-0.445,3.168l-1.13,0.99l-0.851-0.99l0.445-3.168l1.129-0.99L168.351,330.44z M169.186,324.498
				l-0.445,3.169l-1.13,0.99l-0.851-0.99l0.445-3.169l1.129-0.99L169.186,324.498z M168.246,334.005h5.149l0.851,0.99l-1.129,0.99
				h-5.149l-0.852-0.99L168.246,334.005z M169.916,322.121h5.149l0.851,0.99l-1.129,0.99h-5.149l-0.852-0.99L169.916,322.121z
				 M176.273,330.44l-0.445,3.168l-1.131,0.99l-0.851-0.99l0.445-3.168l1.129-0.99L176.273,330.44z"/>
			<path d="M186.354,330.44l-0.445,3.168l-1.13,0.99l-0.851-0.99l0.445-3.168l1.129-0.99L186.354,330.44z M187.188,324.498
				l-0.445,3.169l-1.13,0.99l-0.851-0.99l0.445-3.169l1.129-0.99L187.188,324.498z M187.084,328.063h5.149l0.851,0.99l-1.129,0.99
				h-5.149l-0.852-0.99L187.084,328.063z M194.276,330.44l-0.445,3.168l-1.131,0.99l-0.851-0.99l0.445-3.168l1.129-0.99
				L194.276,330.44z M195.111,324.498l-0.445,3.169l-1.131,0.99l-0.851-0.99l0.445-3.169l1.129-0.99L195.111,324.498z"/>
			<path d="M205.923,322.121h5.149l0.851,0.99l-1.129,0.99h-5.149l-0.852-0.99L205.923,322.121z M212.28,330.44l-0.445,3.168
				l-1.131,0.99l-0.851-0.99l0.445-3.168l1.129-0.99L212.28,330.44z"/>
			<path d="M222.36,330.44l-0.445,3.168l-1.13,0.99l-0.851-0.99l0.445-3.168l1.129-0.99L222.36,330.44z M222.256,334.005h5.149
				l0.851,0.99l-1.129,0.99h-5.149l-0.852-0.99L222.256,334.005z M230.283,330.44l-0.445,3.168l-1.131,0.99l-0.851-0.99l0.445-3.168
				l1.129-0.99L230.283,330.44z M231.118,324.498l-0.445,3.169l-1.131,0.99l-0.851-0.99l0.445-3.169l1.129-0.99L231.118,324.498z"/>
			<path d="M240.363,330.44l-0.445,3.168l-1.13,0.99l-0.851-0.99l0.445-3.168l1.129-0.99L240.363,330.44z M241.198,324.498
				l-0.445,3.169l-1.13,0.99l-0.851-0.99l0.445-3.169l1.129-0.99L241.198,324.498z M241.094,328.063h5.149l0.851,0.99l-1.129,0.99
				h-5.149l-0.852-0.99L241.094,328.063z M241.929,322.121h5.149l0.851,0.99l-1.129,0.99h-5.149l-0.852-0.99L241.929,322.121z
				 M248.286,330.44l-0.445,3.168l-1.131,0.99l-0.851-0.99l0.445-3.168l1.129-0.99L248.286,330.44z"/>
			<path d="M258.366,330.44l-0.445,3.168l-1.13,0.99l-0.851-0.99l0.445-3.168l1.129-0.99L258.366,330.44z M259.201,324.498
				l-0.445,3.169l-1.13,0.99l-0.851-0.99l0.445-3.169l1.129-0.99L259.201,324.498z M258.262,334.005h5.149l0.851,0.99l-1.129,0.99
				h-5.149l-0.852-0.99L258.262,334.005z"/>
			<path d="M277.204,324.498l-0.445,3.169l-1.13,0.99l-0.851-0.99l0.445-3.169l1.129-0.99L277.204,324.498z M276.265,334.005h5.149
				l0.851,0.99l-1.129,0.99h-5.149l-0.852-0.99L276.265,334.005z M277.935,322.121h5.149l0.851,0.99l-1.129,0.99h-5.149l-0.852-0.99
				L277.935,322.121z M285.127,324.498l-0.445,3.169l-1.131,0.99l-0.851-0.99l0.445-3.169l1.129-0.99L285.127,324.498z"/>
			<path d="M294.373,330.44l-0.445,3.168l-1.13,0.99l-0.851-0.99l0.445-3.168l1.129-0.99L294.373,330.44z M295.208,324.498
				l-0.445,3.169l-1.13,0.99l-0.851-0.99l0.445-3.169l1.129-0.99L295.208,324.498z M295.938,322.121h5.149l0.851,0.99l-1.129,0.99
				h-5.149l-0.852-0.99L295.938,322.121z M302.296,330.44l-0.445,3.168l-1.131,0.99l-0.851-0.99l0.445-3.168l1.129-0.99
				L302.296,330.44z M303.131,324.498l-0.445,3.169l-1.131,0.99l-0.851-0.99l0.445-3.169l1.129-0.99L303.131,324.498z"/>
			<path d="M313.211,324.498l-0.445,3.169l-1.13,0.99l-0.851-0.99l0.445-3.169l1.129-0.99L313.211,324.498z M312.271,334.005h5.149
				l0.851,0.99l-1.129,0.99h-5.149l-0.852-0.99L312.271,334.005z M313.106,328.063h5.149l0.851,0.99l-1.129,0.99h-5.149l-0.852-0.99
				L313.106,328.063z M313.941,322.121h5.149l0.851,0.99l-1.129,0.99h-5.149l-0.852-0.99L313.941,322.121z M321.134,324.498
				l-0.445,3.169l-1.131,0.99l-0.851-0.99l0.445-3.169l1.129-0.99L321.134,324.498z"/>
		</g>
		<g>
			<path d="M42.329,357.44l-0.445,3.168l-1.13,0.99l-0.851-0.99l0.445-3.168l1.129-0.99L42.329,357.44z M43.164,351.498
				l-0.445,3.169l-1.13,0.99l-0.851-0.99l0.445-3.169l1.129-0.99L43.164,351.498z M43.06,355.063h5.149l0.851,0.99l-1.129,0.99
				h-5.149l-0.852-0.99L43.06,355.063z M43.895,349.121h5.149l0.851,0.99l-1.129,0.99h-5.149l-0.852-0.99L43.895,349.121z
				 M51.087,351.498l-0.445,3.169l-1.131,0.99l-0.851-0.99l0.445-3.169l1.129-0.99L51.087,351.498z"/>
			<path d="M61.167,351.498l-0.445,3.169l-1.13,0.99l-0.851-0.99l0.445-3.169l1.129-0.99L61.167,351.498z M61.063,355.063h5.149
				l0.851,0.99l-1.129,0.99h-5.149l-0.852-0.99L61.063,355.063z M61.897,349.121h5.149l0.851,0.99l-1.129,0.99h-5.149l-0.852-0.99
				L61.897,349.121z M68.255,357.44l-0.445,3.168l-1.131,0.99l-0.851-0.99l0.445-3.168l1.129-0.99L68.255,357.44z M69.09,351.498
				l-0.445,3.169l-1.131,0.99l-0.851-0.99l0.445-3.169l1.129-0.99L69.09,351.498z"/>
			<path d="M78.335,357.44l-0.445,3.168l-1.13,0.99l-0.851-0.99l0.445-3.168l1.129-0.99L78.335,357.44z M79.17,351.498l-0.445,3.169
				l-1.13,0.99l-0.851-0.99l0.445-3.169l1.129-0.99L79.17,351.498z M79.9,349.121h5.149l0.851,0.99l-1.129,0.99h-5.149l-0.852-0.99
				L79.9,349.121z"/>
			<path d="M97.174,351.498l-0.445,3.169l-1.13,0.99l-0.851-0.99l0.445-3.169l1.129-0.99L97.174,351.498z M96.234,361.005h5.149
				l0.851,0.99l-1.129,0.99h-5.149l-0.852-0.99L96.234,361.005z M97.904,349.121h5.149l0.851,0.99l-1.129,0.99h-5.149l-0.852-0.99
				L97.904,349.121z M104.262,357.44l-0.445,3.168l-1.131,0.99l-0.851-0.99l0.445-3.168l1.129-0.99L104.262,357.44z"/>
			<path d="M115.907,349.121h5.149l0.851,0.99l-1.129,0.99h-5.149l-0.852-0.99L115.907,349.121z M122.265,357.44l-0.445,3.168
				l-1.131,0.99l-0.851-0.99l0.445-3.168l1.129-0.99L122.265,357.44z M123.1,351.498l-0.445,3.169l-1.131,0.99l-0.851-0.99
				l0.445-3.169l1.129-0.99L123.1,351.498z"/>
			<path d="M132.345,357.44l-0.445,3.168l-1.13,0.99l-0.851-0.99l0.445-3.168l1.129-0.99L132.345,357.44z M133.18,351.498
				l-0.445,3.169l-1.13,0.99l-0.851-0.99l0.445-3.169l1.129-0.99L133.18,351.498z M132.24,361.005h5.149l0.851,0.99l-1.129,0.99
				h-5.149l-0.852-0.99L132.24,361.005z M140.268,357.44l-0.445,3.168l-1.131,0.99l-0.851-0.99l0.445-3.168l1.129-0.99
				L140.268,357.44z M141.103,351.498l-0.445,3.169l-1.131,0.99l-0.851-0.99l0.445-3.169l1.129-0.99L141.103,351.498z"/>
			<path d="M151.183,351.498l-0.445,3.169l-1.13,0.99l-0.851-0.99l0.445-3.169l1.129-0.99L151.183,351.498z M150.243,361.005h5.149
				l0.851,0.99l-1.129,0.99h-5.149l-0.852-0.99L150.243,361.005z M151.078,355.063h5.149l0.851,0.99l-1.129,0.99H150.8l-0.852-0.99
				L151.078,355.063z M159.105,351.498l-0.445,3.169l-1.131,0.99l-0.851-0.99l0.445-3.169l1.129-0.99L159.105,351.498z"/>
			<path d="M168.351,357.44l-0.445,3.168l-1.13,0.99l-0.851-0.99l0.445-3.168l1.129-0.99L168.351,357.44z M169.186,351.498
				l-0.445,3.169l-1.13,0.99l-0.851-0.99l0.445-3.169l1.129-0.99L169.186,351.498z M168.246,361.005h5.149l0.851,0.99l-1.129,0.99
				h-5.149l-0.852-0.99L168.246,361.005z M169.081,355.063h5.149l0.851,0.99l-1.129,0.99h-5.149l-0.852-0.99L169.081,355.063z
				 M176.273,357.44l-0.445,3.168l-1.131,0.99l-0.851-0.99l0.445-3.168l1.129-0.99L176.273,357.44z M177.108,351.498l-0.445,3.169
				l-1.131,0.99l-0.851-0.99l0.445-3.169l1.129-0.99L177.108,351.498z"/>
			<path d="M186.249,361.005h5.149l0.851,0.99l-1.129,0.99h-5.149l-0.852-0.99L186.249,361.005z M187.084,355.063h5.149l0.851,0.99
				l-1.129,0.99h-5.149l-0.852-0.99L187.084,355.063z M187.919,349.121h5.149l0.851,0.99l-1.129,0.99h-5.149l-0.852-0.99
				L187.919,349.121z"/>
			<path d="M205.192,351.498l-0.445,3.169l-1.13,0.99l-0.851-0.99l0.445-3.169l1.129-0.99L205.192,351.498z M204.253,361.005h5.149
				l0.851,0.99l-1.129,0.99h-5.149l-0.852-0.99L204.253,361.005z M205.088,355.063h5.149l0.851,0.99l-1.129,0.99h-5.149l-0.852-0.99
				L205.088,355.063z M212.28,357.44l-0.445,3.168l-1.131,0.99l-0.851-0.99l0.445-3.168l1.129-0.99L212.28,357.44z M213.115,351.498
				l-0.445,3.169l-1.131,0.99l-0.851-0.99l0.445-3.169l1.129-0.99L213.115,351.498z"/>
			<path d="M222.36,357.44l-0.445,3.168l-1.13,0.99l-0.851-0.99l0.445-3.168l1.129-0.99L222.36,357.44z M222.256,361.005h5.149
				l0.851,0.99l-1.129,0.99h-5.149l-0.852-0.99L222.256,361.005z M223.926,349.121h5.149l0.851,0.99l-1.129,0.99h-5.149l-0.852-0.99
				L223.926,349.121z M231.118,351.498l-0.445,3.169l-1.131,0.99l-0.851-0.99l0.445-3.169l1.129-0.99L231.118,351.498z"/>
			<path d="M240.363,357.44l-0.445,3.168l-1.13,0.99l-0.851-0.99l0.445-3.168l1.129-0.99L240.363,357.44z M240.259,361.005h5.149
				l0.851,0.99l-1.129,0.99h-5.149l-0.852-0.99L240.259,361.005z M241.094,355.063h5.149l0.851,0.99l-1.129,0.99h-5.149l-0.852-0.99
				L241.094,355.063z M241.929,349.121h5.149l0.851,0.99l-1.129,0.99h-5.149l-0.852-0.99L241.929,349.121z"/>
			<path d="M259.201,351.498l-0.445,3.169l-1.13,0.99l-0.851-0.99l0.445-3.169l1.129-0.99L259.201,351.498z M259.097,355.063h5.149
				l0.851,0.99l-1.129,0.99h-5.149l-0.852-0.99L259.097,355.063z M266.289,357.44l-0.445,3.168l-1.131,0.99l-0.851-0.99l0.445-3.168
				l1.129-0.99L266.289,357.44z"/>
			<path d="M276.265,361.005h5.149l0.851,0.99l-1.129,0.99h-5.149l-0.852-0.99L276.265,361.005z M277.1,355.063h5.149l0.851,0.99
				l-1.129,0.99h-5.149l-0.852-0.99L277.1,355.063z M277.935,349.121h5.149l0.851,0.99l-1.129,0.99h-5.149l-0.852-0.99
				L277.935,349.121z M284.292,357.44l-0.445,3.168l-1.131,0.99l-0.851-0.99l0.445-3.168l1.129-0.99L284.292,357.44z"/>
			<path d="M295.208,351.498l-0.445,3.169l-1.13,0.99l-0.851-0.99l0.445-3.169l1.129-0.99L295.208,351.498z M295.938,349.121h5.149
				l0.851,0.99l-1.129,0.99h-5.149l-0.852-0.99L295.938,349.121z M303.131,351.498l-0.445,3.169l-1.131,0.99l-0.851-0.99
				l0.445-3.169l1.129-0.99L303.131,351.498z"/>
			<path d="M312.271,361.005h5.149l0.851,0.99l-1.129,0.99h-5.149l-0.852-0.99L312.271,361.005z"/>
		</g>
		<g>
			<path d="M43.164,378.498l-0.445,3.169l-1.13,0.99l-0.851-0.99l0.445-3.169l1.129-0.99L43.164,378.498z M43.06,382.063h5.149
				l0.851,0.99l-1.129,0.99h-5.149l-0.852-0.99L43.06,382.063z"/>
			<path d="M61.063,382.063h5.149l0.851,0.99l-1.129,0.99h-5.149l-0.852-0.99L61.063,382.063z M68.255,384.44l-0.445,3.168
				l-1.131,0.99l-0.851-0.99l0.445-3.168l1.129-0.99L68.255,384.44z"/>
			<path d="M78.335,384.44l-0.445,3.168l-1.13,0.99l-0.851-0.99l0.445-3.168l1.129-0.99L78.335,384.44z M79.17,378.498l-0.445,3.169
				l-1.13,0.99l-0.851-0.99l0.445-3.169l1.129-0.99L79.17,378.498z M78.23,388.005h5.149l0.851,0.99l-1.129,0.99h-5.149l-0.852-0.99
				L78.23,388.005z M79.065,382.063h5.149l0.851,0.99l-1.129,0.99h-5.149l-0.852-0.99L79.065,382.063z M86.258,384.44l-0.445,3.168
				l-1.131,0.99l-0.851-0.99l0.445-3.168l1.129-0.99L86.258,384.44z"/>
			<path d="M96.339,384.44l-0.445,3.168l-1.13,0.99l-0.851-0.99l0.445-3.168l1.129-0.99L96.339,384.44z M96.234,388.005h5.149
				l0.851,0.99l-1.129,0.99h-5.149l-0.852-0.99L96.234,388.005z M97.069,382.063h5.149l0.851,0.99l-1.129,0.99h-5.149l-0.852-0.99
				L97.069,382.063z"/>
			<path d="M114.342,384.44l-0.445,3.168l-1.13,0.99l-0.851-0.99l0.445-3.168l1.129-0.99L114.342,384.44z M114.237,388.005h5.149
				l0.851,0.99l-1.129,0.99h-5.149l-0.852-0.99L114.237,388.005z M115.072,382.063h5.149l0.851,0.99l-1.129,0.99h-5.149l-0.852-0.99
				L115.072,382.063z M122.265,384.44l-0.445,3.168l-1.131,0.99l-0.851-0.99l0.445-3.168l1.129-0.99L122.265,384.44z M123.1,378.498
				l-0.445,3.169l-1.131,0.99l-0.851-0.99l0.445-3.169l1.129-0.99L123.1,378.498z"/>
			<path d="M132.345,384.44l-0.445,3.168l-1.13,0.99l-0.851-0.99l0.445-3.168l1.129-0.99L132.345,384.44z M132.24,388.005h5.149
				l0.851,0.99l-1.129,0.99h-5.149l-0.852-0.99L132.24,388.005z"/>
			<path d="M150.348,384.44l-0.445,3.168l-1.13,0.99l-0.851-0.99l0.445-3.168l1.129-0.99L150.348,384.44z M151.183,378.498
				l-0.445,3.169l-1.13,0.99l-0.851-0.99l0.445-3.169l1.129-0.99L151.183,378.498z M151.913,376.121h5.149l0.851,0.99l-1.129,0.99
				h-5.149l-0.852-0.99L151.913,376.121z M159.105,378.498l-0.445,3.169l-1.131,0.99l-0.851-0.99l0.445-3.169l1.129-0.99
				L159.105,378.498z"/>
			<path d="M169.186,378.498l-0.445,3.169l-1.13,0.99l-0.851-0.99l0.445-3.169l1.129-0.99L169.186,378.498z M168.246,388.005h5.149
				l0.851,0.99l-1.129,0.99h-5.149l-0.852-0.99L168.246,388.005z M169.916,376.121h5.149l0.851,0.99l-1.129,0.99h-5.149l-0.852-0.99
				L169.916,376.121z M176.273,384.44l-0.445,3.168l-1.131,0.99l-0.851-0.99l0.445-3.168l1.129-0.99L176.273,384.44z
				 M177.108,378.498l-0.445,3.169l-1.131,0.99l-0.851-0.99l0.445-3.169l1.129-0.99L177.108,378.498z"/>
			<path d="M186.354,384.44l-0.445,3.168l-1.13,0.99l-0.851-0.99l0.445-3.168l1.129-0.99L186.354,384.44z M187.188,378.498
				l-0.445,3.169l-1.13,0.99l-0.851-0.99l0.445-3.169l1.129-0.99L187.188,378.498z M187.084,382.063h5.149l0.851,0.99l-1.129,0.99
				h-5.149l-0.852-0.99L187.084,382.063z M194.276,384.44l-0.445,3.168l-1.131,0.99l-0.851-0.99l0.445-3.168l1.129-0.99
				L194.276,384.44z"/>
			<path d="M205.923,376.121h5.149l0.851,0.99l-1.129,0.99h-5.149l-0.852-0.99L205.923,376.121z M212.28,384.44l-0.445,3.168
				l-1.131,0.99l-0.851-0.99l0.445-3.168l1.129-0.99L212.28,384.44z"/>
			<path d="M222.256,388.005h5.149l0.851,0.99l-1.129,0.99h-5.149l-0.852-0.99L222.256,388.005z M230.283,384.44l-0.445,3.168
				l-1.131,0.99l-0.851-0.99l0.445-3.168l1.129-0.99L230.283,384.44z M231.118,378.498l-0.445,3.169l-1.131,0.99l-0.851-0.99
				l0.445-3.169l1.129-0.99L231.118,378.498z"/>
			<path d="M240.363,384.44l-0.445,3.168l-1.13,0.99l-0.851-0.99l0.445-3.168l1.129-0.99L240.363,384.44z M241.198,378.498
				l-0.445,3.169l-1.13,0.99l-0.851-0.99l0.445-3.169l1.129-0.99L241.198,378.498z M241.094,382.063h5.149l0.851,0.99l-1.129,0.99
				h-5.149l-0.852-0.99L241.094,382.063z M241.929,376.121h5.149l0.851,0.99l-1.129,0.99h-5.149l-0.852-0.99L241.929,376.121z
				 M248.286,384.44l-0.445,3.168l-1.131,0.99l-0.851-0.99l0.445-3.168l1.129-0.99L248.286,384.44z"/>
			<path d="M258.366,384.44l-0.445,3.168l-1.13,0.99l-0.851-0.99l0.445-3.168l1.129-0.99L258.366,384.44z M259.201,378.498
				l-0.445,3.169l-1.13,0.99l-0.851-0.99l0.445-3.169l1.129-0.99L259.201,378.498z M258.262,388.005h5.149l0.851,0.99l-1.129,0.99
				h-5.149l-0.852-0.99L258.262,388.005z M266.289,384.44l-0.445,3.168l-1.131,0.99l-0.851-0.99l0.445-3.168l1.129-0.99
				L266.289,384.44z"/>
			<path d="M276.369,384.44l-0.445,3.168l-1.13,0.99l-0.851-0.99l0.445-3.168l1.129-0.99L276.369,384.44z M277.1,382.063h5.149
				l0.851,0.99l-1.129,0.99h-5.149l-0.852-0.99L277.1,382.063z M277.935,376.121h5.149l0.851,0.99l-1.129,0.99h-5.149l-0.852-0.99
				L277.935,376.121z M284.292,384.44l-0.445,3.168l-1.131,0.99l-0.851-0.99l0.445-3.168l1.129-0.99L284.292,384.44z"/>
			<path d="M294.373,384.44l-0.445,3.168l-1.13,0.99l-0.851-0.99l0.445-3.168l1.129-0.99L294.373,384.44z M295.104,382.063h5.149
				l0.851,0.99l-1.129,0.99h-5.149l-0.852-0.99L295.104,382.063z M302.296,384.44l-0.445,3.168l-1.131,0.99l-0.851-0.99l0.445-3.168
				l1.129-0.99L302.296,384.44z"/>
			<path d="M312.376,384.44l-0.445,3.168l-1.13,0.99l-0.851-0.99l0.445-3.168l1.129-0.99L312.376,384.44z M312.271,388.005h5.149
				l0.851,0.99l-1.129,0.99h-5.149l-0.852-0.99L312.271,388.005z M313.106,382.063h5.149l0.851,0.99l-1.129,0.99h-5.149l-0.852-0.99
				L313.106,382.063z M320.299,384.44l-0.445,3.168l-1.131,0.99l-0.851-0.99l0.445-3.168l1.129-0.99L320.299,384.44z"/>
		</g>
		<g>
			<path d="M42.329,411.44l-0.445,3.168l-1.13,0.99l-0.851-0.99l0.445-3.168l1.129-0.99L42.329,411.44z M43.164,405.498
				l-0.445,3.169l-1.13,0.99l-0.851-0.99l0.445-3.169l1.129-0.99L43.164,405.498z M43.06,409.063h5.149l0.851,0.99l-1.129,0.99
				h-5.149l-0.852-0.99L43.06,409.063z M43.895,403.121h5.149l0.851,0.99l-1.129,0.99h-5.149l-0.852-0.99L43.895,403.121z
				 M51.087,405.498l-0.445,3.169l-1.131,0.99l-0.851-0.99l0.445-3.169l1.129-0.99L51.087,405.498z"/>
			<path d="M61.167,405.498l-0.445,3.169l-1.13,0.99l-0.851-0.99l0.445-3.169l1.129-0.99L61.167,405.498z M61.063,409.063h5.149
				l0.851,0.99l-1.129,0.99h-5.149l-0.852-0.99L61.063,409.063z M61.897,403.121h5.149l0.851,0.99l-1.129,0.99h-5.149l-0.852-0.99
				L61.897,403.121z M68.255,411.44l-0.445,3.168l-1.131,0.99l-0.851-0.99l0.445-3.168l1.129-0.99L68.255,411.44z M69.09,405.498
				l-0.445,3.169l-1.131,0.99l-0.851-0.99l0.445-3.169l1.129-0.99L69.09,405.498z"/>
			<path d="M78.335,411.44l-0.445,3.168l-1.13,0.99l-0.851-0.99l0.445-3.168l1.129-0.99L78.335,411.44z M79.065,409.063h5.149
				l0.851,0.99l-1.129,0.99h-5.149l-0.852-0.99L79.065,409.063z"/>
			<path d="M97.174,405.498l-0.445,3.169l-1.13,0.99l-0.851-0.99l0.445-3.169l1.129-0.99L97.174,405.498z M96.234,415.005h5.149
				l0.851,0.99l-1.129,0.99h-5.149l-0.852-0.99L96.234,415.005z M97.904,403.121h5.149l0.851,0.99l-1.129,0.99h-5.149l-0.852-0.99
				L97.904,403.121z M104.262,411.44l-0.445,3.168l-1.131,0.99l-0.851-0.99l0.445-3.168l1.129-0.99L104.262,411.44z"/>
			<path d="M114.342,411.44l-0.445,3.168l-1.13,0.99l-0.851-0.99l0.445-3.168l1.129-0.99L114.342,411.44z M115.177,405.498
				l-0.445,3.169l-1.13,0.99l-0.851-0.99l0.445-3.169l1.129-0.99L115.177,405.498z M115.072,409.063h5.149l0.851,0.99l-1.129,0.99
				h-5.149l-0.852-0.99L115.072,409.063z"/>
			<path d="M132.345,411.44l-0.445,3.168l-1.13,0.99l-0.851-0.99l0.445-3.168l1.129-0.99L132.345,411.44z M132.24,415.005h5.149
				l0.851,0.99l-1.129,0.99h-5.149l-0.852-0.99L132.24,415.005z M140.268,411.44l-0.445,3.168l-1.131,0.99l-0.851-0.99l0.445-3.168
				l1.129-0.99L140.268,411.44z"/>
			<path d="M150.348,411.44l-0.445,3.168l-1.13,0.99l-0.851-0.99l0.445-3.168l1.129-0.99L150.348,411.44z M150.243,415.005h5.149
				l0.851,0.99l-1.129,0.99h-5.149l-0.852-0.99L150.243,415.005z M151.913,403.121h5.149l0.851,0.99l-1.129,0.99h-5.149l-0.852-0.99
				L151.913,403.121z M158.271,411.44l-0.445,3.168l-1.131,0.99l-0.851-0.99l0.445-3.168l1.129-0.99L158.271,411.44z"/>
			<path d="M168.351,411.44l-0.445,3.168l-1.13,0.99l-0.851-0.99l0.445-3.168l1.129-0.99L168.351,411.44z M169.186,405.498
				l-0.445,3.169l-1.13,0.99l-0.851-0.99l0.445-3.169l1.129-0.99L169.186,405.498z M168.246,415.005h5.149l0.851,0.99l-1.129,0.99
				h-5.149l-0.852-0.99L168.246,415.005z M169.081,409.063h5.149l0.851,0.99l-1.129,0.99h-5.149l-0.852-0.99L169.081,409.063z
				 M176.273,411.44l-0.445,3.168l-1.131,0.99l-0.851-0.99l0.445-3.168l1.129-0.99L176.273,411.44z M177.108,405.498l-0.445,3.169
				l-1.131,0.99l-0.851-0.99l0.445-3.169l1.129-0.99L177.108,405.498z"/>
			<path d="M186.249,415.005h5.149l0.851,0.99l-1.129,0.99h-5.149l-0.852-0.99L186.249,415.005z M187.084,409.063h5.149l0.851,0.99
				l-1.129,0.99h-5.149l-0.852-0.99L187.084,409.063z"/>
			<path d="M205.192,405.498l-0.445,3.169l-1.13,0.99l-0.851-0.99l0.445-3.169l1.129-0.99L205.192,405.498z M204.253,415.005h5.149
				l0.851,0.99l-1.129,0.99h-5.149l-0.852-0.99L204.253,415.005z M205.088,409.063h5.149l0.851,0.99l-1.129,0.99h-5.149l-0.852-0.99
				L205.088,409.063z M212.28,411.44l-0.445,3.168l-1.131,0.99l-0.851-0.99l0.445-3.168l1.129-0.99L212.28,411.44z M213.115,405.498
				l-0.445,3.169l-1.131,0.99l-0.851-0.99l0.445-3.169l1.129-0.99L213.115,405.498z"/>
			<path d="M222.36,411.44l-0.445,3.168l-1.13,0.99l-0.851-0.99l0.445-3.168l1.129-0.99L222.36,411.44z M222.256,415.005h5.149
				l0.851,0.99l-1.129,0.99h-5.149l-0.852-0.99L222.256,415.005z M223.926,403.121h5.149l0.851,0.99l-1.129,0.99h-5.149l-0.852-0.99
				L223.926,403.121z M231.118,405.498l-0.445,3.169l-1.131,0.99l-0.851-0.99l0.445-3.169l1.129-0.99L231.118,405.498z"/>
			<path d="M241.198,405.498l-0.445,3.169l-1.13,0.99l-0.851-0.99l0.445-3.169l1.129-0.99L241.198,405.498z M240.259,415.005h5.149
				l0.851,0.99l-1.129,0.99h-5.149l-0.852-0.99L240.259,415.005z M241.094,409.063h5.149l0.851,0.99l-1.129,0.99h-5.149l-0.852-0.99
				L241.094,409.063z M241.929,403.121h5.149l0.851,0.99l-1.129,0.99h-5.149l-0.852-0.99L241.929,403.121z"/>
			<path d="M258.366,411.44l-0.445,3.168l-1.13,0.99l-0.851-0.99l0.445-3.168l1.129-0.99L258.366,411.44z M259.201,405.498
				l-0.445,3.169l-1.13,0.99l-0.851-0.99l0.445-3.169l1.129-0.99L259.201,405.498z"/>
			<path d="M276.265,415.005h5.149l0.851,0.99l-1.129,0.99h-5.149l-0.852-0.99L276.265,415.005z M277.1,409.063h5.149l0.851,0.99
				l-1.129,0.99h-5.149l-0.852-0.99L277.1,409.063z M277.935,403.121h5.149l0.851,0.99l-1.129,0.99h-5.149l-0.852-0.99
				L277.935,403.121z M285.127,405.498l-0.445,3.169l-1.131,0.99l-0.851-0.99l0.445-3.169l1.129-0.99L285.127,405.498z"/>
			<path d="M295.938,403.121h5.149l0.851,0.99l-1.129,0.99h-5.149l-0.852-0.99L295.938,403.121z"/>
		</g>
		<g>
			<g>
				<rect x="36" y="261" fill="none" stroke="#000" width="18" height="27"/>
				<rect x="54" y="261" fill="none" stroke="#000" width="18" height="27"/>
				<rect x="72" y="261" fill="none" stroke="#000" width="18" height="27"/>
				<rect x="90" y="261" fill="none" stroke="#000" width="18" height="27"/>
				<rect x="108" y="261" fill="none" stroke="#000" width="18" height="27"/>
				<rect x="126" y="261" fill="none" stroke="#000" width="18" height="27"/>
				<rect x="144" y="261" fill="none" stroke="#000" width="18" height="27"/>
				<rect x="162" y="261" fill="none" stroke="#000" width="18" height="27"/>
				<rect x="180" y="261" fill="none" stroke="#000" width="18" height="27"/>
				<rect x="198" y="261" fill="none" stroke="#000" width="18" height="27"/>
				<rect x="216" y="261" fill="none" stroke="#000" width="18" height="27"/>
				<rect x="234" y="261" fill="none" stroke="#000" width="18" height="27"/>
				<rect x="252" y="261" fill="none" stroke="#000" width="18" height="27"/>
				<rect x="270" y="261" fill="none" stroke="#000" width="18" height="27"/>
				<rect x="288" y="261" fill="none" stroke="#000" width="18" height="27"/>
				<rect x="306" y="261" fill="none" stroke="#000" width="18" height="27"/>
			</g>
			<g>
				<rect x="36" y="288" fill="none" stroke="#000" width="18" height="27"/>
				<rect x="54" y="288" fill="none" stroke="#000" width="18" height="27"/>
				<rect x="72" y="288" fill="none" stroke="#000" width="18" height="27"/>
				<rect x="90" y="288" fill="none" stroke="#000" width="18" height="27"/>
				<rect x="108" y="288" fill="none" stroke="#000" width="18" height="27"/>
				<rect x="126" y="288" fill="none" stroke="#000" width="18" height="27"/>
				<rect x="144" y="288" fill="none" stroke="#000" width="18" height="27"/>
				<rect x="162" y="288" fill="none" stroke="#000" width="18" height="27"/>
				<rect x="180" y="288" fill="none" stroke="#000" width="18" height="27"/>
				<rect x="198" y="288" fill="none" stroke="#000" width="18" height="27"/>
				<rect x="216" y="288" fill="none" stroke="#000" width="18" height="27"/>
				<rect x="234" y="288" fill="none" stroke="#000" width="18" height="27"/>
				<rect x="252" y="288" fill="none" stroke="#000" width="18" height="27"/>
				<rect x="270" y="288" fill="none" stroke="#000" width="18" height="27"/>
				<rect x="288" y="288" fill="none" stroke="#000" width="18" height="27"/>
				<rect x="306" y="288" fill="none" stroke="#000" width="18" height="27"/>
			</g>
			<g>
				<rect x="36" y="315" fill="none" stroke="#000" width="18" height="27"/>
				<rect x="54" y="315" fill="none" stroke="#000" width="18" height="27"/>
				<rect x="72" y="315" fill="none" stroke="#000" width="18" height="27"/>
				<rect x="90" y="315" fill="none" stroke="#000" width="18" height="27"/>
				<rect x="108" y="315" fill="none" stroke="#000" width="18" height="27"/>
				<rect x="126" y="315" fill="none" stroke="#000" width="18" height="27"/>
				<rect x="144" y="315" fill="none" stroke="#000" width="18" height="27"/>
				<rect x="162" y="315" fill="none" stroke="#000" width="18" height="27"/>
				<rect x="180" y="315" fill="none" stroke="#000" width="18" height="27"/>
				<rect x="198" y="315" fill="none" stroke="#000" width="18" height="27"/>
				<rect x="216" y="315" fill="none" stroke="#000" width="18" height="27"/>
				<rect x="234" y="315" fill="none" stroke="#000" width="18" height="27"/>
				<rect x="252" y="315" fill="none" stroke="#000" width="18" height="27"/>
				<rect x="270" y="315" fill="none" stroke="#000" width="18" height="27"/>
				<rect x="288" y="315" fill="none" stroke="#000" width="18" height="27"/>
				<rect x="306" y="315" fill="none" stroke="#000" width="18" height="27"/>
			</g>
			<g>
				<rect x="36" y="342" fill="none" stroke="#000" width="18" height="27"/>
				<rect x="54" y="342" fill="none" stroke="#000" width="18" height="27"/>
				<rect x="72" y="342" fill="none" stroke="#000" width="18" height="27"/>
				<rect x="90" y="342" fill="none" stroke="#000" width="18" height="27"/>
				<rect x="108" y="342" fill="none" stroke="#000" width="18" height="27"/>
				<rect x="126" y="342" fill="none" stroke="#000" width="18" height="27"/>
				<rect x="144" y="342" fill="none" stroke="#000" width="18" height="27"/>
				<rect x="162" y="342" fill="none" stroke="#000" width="18" height="27"/>
				<rect x="180" y="342" fill="none" stroke="#000" width="18" height="27"/>
				<rect x="198" y="342" fill="none" stroke="#000" width="18" height="27"/>
				<rect x="216" y="342" fill="none" stroke="#000" width="18" height="27"/>
				<rect x="234" y="342" fill="none" stroke="#000" width="18" height="27"/>
				<rect x="252" y="342" fill="none" stroke="#000" width="18" height="27"/>
				<rect x="270" y="342" fill="none" stroke="#000" width="18" height="27"/>
				<rect x="288" y="342" fill="none" stroke="#000" width="18" height="27"/>
				<rect x="306" y="342" fill="none" stroke="#000" width="18" height="27"/>
			</g>
			<g>
				<rect x="36" y="369" fill="none" stroke="#000" width="18" height="27"/>
				<rect x="54" y="369" fill="none" stroke="#000" width="18" height="27"/>
				<rect x="72" y="369" fill="none" stroke="#000" width="18" height="27"/>
				<rect x="90" y="369" fill="none" stroke="#000" width="18" height="27"/>
				<rect x="108" y="369" fill="none" stroke="#000" width="18" height="27"/>
				<rect x="126" y="369" fill="none" stroke="#000" width="18" height="27"/>
				<rect x="144" y="369" fill="none" stroke="#000" width="18" height="27"/>
				<rect x="162" y="369" fill="none" stroke="#000" width="18" height="27"/>
				<rect x="180" y="369" fill="none" stroke="#000" width="18" height="27"/>
				<rect x="198" y="369" fill="none" stroke="#000" width="18" height="27"/>
				<rect x="216" y="369" fill="none" stroke="#000" width="18" height="27"/>
				<rect x="234" y="369" fill="none" stroke="#000" width="18" height="27"/>
				<rect x="252" y="369" fill="none" stroke="#000" width="18" height="27"/>
				<rect x="270" y="369" fill="none" stroke="#000" width="18" height="27"/>
				<rect x="288" y="369" fill="none" stroke="#000" width="18" height="27"/>
				<rect x="306" y="369" fill="none" stroke="#000" width="18" height="27"/>
			</g>
			<g>
				<rect x="36" y="396" fill="none" stroke="#000" width="18" height="27"/>
				<rect x="54" y="396" fill="none" stroke="#000" width="18" height="27"/>
				<rect x="72" y="396" fill="none" stroke="#000" width="18" height="27"/>
				<rect x="90" y="396" fill="none" stroke="#000" width="18" height="27"/>
				<rect x="108" y="396" fill="none" stroke="#000" width="18" height="27"/>
				<rect x="126" y="396" fill="none" stroke="#000" width="18" height="27"/>
				<rect x="144" y="396" fill="none" stroke="#000" width="18" height="27"/>
				<rect x="162" y="396" fill="none" stroke="#000" width="18" height="27"/>
				<rect x="180" y="396" fill="none" stroke="#000" width="18" height="27"/>
				<rect x="198" y="396" fill="none" stroke="#000" width="18" height="27"/>
				<rect x="216" y="396" fill="none" stroke="#000" width="18" height="27"/>
				<rect x="234" y="396" fill="none" stroke="#000" width="18" height="27"/>
				<rect x="252" y="396" fill="none" stroke="#000" width="18" height="27"/>
				<rect x="270" y="396" fill="none" stroke="#000" width="18" height="27"/>
				<rect x="288" y="396" fill="none" stroke="#000" width="18" height="27"/>
				<rect x="306" y="396" fill="none" stroke="#000" width="18" height="27"/>
			</g>
		</g>
	</g>
	<text transform="matrix(0.95 0 0 1 37.0044 256.5)" font-family="Verdana" font-size="6.55">0000 0001 0010 0011 0100 0101 0110 0111 1000 1001 1010 1011 1100 1101 1110 1111</text>
	<text transform="matrix(0.95 0 0 1 13.7012 270)"><tspan x="0" y="0" font-family="Verdana" font-size="6.55">D6=0</tspan><tspan x="0" y="6.75" font-family="Verdana" font-size="6.55">D5=1</tspan><tspan x="0" y="13.5" font-family="Verdana" font-size="6.55">D4=0</tspan><tspan x="0" y="27" font-family="Verdana" font-size="6.55">D6=0</tspan><tspan x="0" y="33.75" font-family="Verdana" font-size="6.55">D5=1</tspan><tspan x="0" y="40.5" font-family="Verdana" font-size="6.55">D4=1</tspan><tspan x="0" y="54" font-family="Verdana" font-size="6.55">D6=1</tspan><tspan x="0" y="60.75" font-family="Verdana" font-size="6.55">D5=0</tspan><tspan x="0" y="67.5" font-family="Verdana" font-size="6.55">D4=0</tspan><tspan x="0" y="81" font-family="Verdana" font-size="6.55">D6=1</tspan><tspan x="0" y="87.75" font-family="Verdana" font-size="6.55">D5=0</tspan><tspan x="0" y="94.5" font-family="Verdana" font-size="6.55">D4=1</tspan><tspan x="0" y="108" font-family="Verdana" font-size="6.55">D6=1</tspan><tspan x="0" y="114.75" font-family="Verdana" font-size="6.55">D5=1</tspan><tspan x="0" y="121.5" font-family="Verdana" font-size="6.55">D4=0</tspan><tspan x="0" y="135" font-family="Verdana" font-size="6.55">D6=1</tspan><tspan x="0" y="141.75" font-family="Verdana" font-size="6.55">D5=1</tspan><tspan x="0" y="148.5" font-family="Verdana" font-size="6.55">D4=1</tspan></text>
</g>
<text transform="matrix(1 0 0 1 36 238.5)" font-family="Verdana" font-size="10">FS=1:</text>
</svg>
