<?xml version="1.0" encoding="utf-8"?>
<!-- Generator: Adobe Illustrator 16.0.0, SVG Export Plug-In . SVG Version: 6.00 Build 0)  -->
<!DOCTYPE svg PUBLIC "-//W3C//DTD SVG 1.1//EN" "http://www.w3.org/Graphics/SVG/1.1/DTD/svg11.dtd">
<svg version="1.1" id="Layer_1" xmlns="http://www.w3.org/2000/svg" xmlns:xlink="http://www.w3.org/1999/xlink" x="0px" y="0px"
	 width="216px" height="252px" viewBox="0 0 108 126" enable-background="new 0 0 108 126" xml:space="preserve">
<g>
	<g>
		<polygon points="26.744,21.746 22.501,21.746 22.501,25.988 31.009,34.496 35.251,34.496 35.251,30.254 		"/>
		<polygon points="49.501,25.988 49.501,21.746 45.259,21.746 36.751,30.254 36.751,34.496 40.994,34.496 		"/>
		<polygon points="35.251,40.238 35.251,35.996 31.009,35.996 22.501,44.504 22.501,48.746 26.744,48.746 		"/>
		<polygon points="40.994,35.996 36.751,35.996 36.751,40.238 45.259,48.746 49.501,48.746 49.501,44.504 		"/>
		<polygon points="19.062,53.246 22.062,50.246 49.939,50.246 52.939,53.246 49.939,56.246 22.062,56.246 		"/>
		<polygon points="19.062,17.246 22.062,14.246 49.939,14.246 52.939,17.246 49.939,20.246 22.062,20.246 		"/>
		<polygon points="18.001,18.307 21.001,21.307 21.001,49.184 18.001,52.184 15.001,49.184 15.001,21.307 		"/>
		<polygon points="54.001,18.307 57.001,21.307 57.001,49.184 54.001,52.184 51.001,49.184 51.001,21.307 		"/>
		<polygon points="62.744,21.746 58.501,21.746 58.501,25.988 67.009,34.496 71.251,34.496 71.251,30.254 		"/>
		<polygon points="85.501,25.988 85.501,21.746 81.259,21.746 72.751,30.254 72.751,34.496 76.994,34.496 		"/>
		<polygon points="71.251,40.238 71.251,35.996 67.009,35.996 58.501,44.504 58.501,48.746 62.744,48.746 		"/>
		<polygon points="76.994,35.996 72.751,35.996 72.751,40.238 81.259,48.746 85.501,48.746 85.501,44.504 		"/>
		<polygon points="55.062,53.246 58.062,50.246 85.939,50.246 88.939,53.246 85.939,56.246 58.062,56.246 		"/>
		<polygon points="55.062,17.246 58.062,14.246 85.939,14.246 88.939,17.246 85.939,20.246 58.062,20.246 		"/>
		<polygon points="90.001,18.307 93.002,21.307 93.002,49.184 90.001,52.184 87.001,49.184 87.001,21.307 		"/>
		<polygon points="26.744,75.746 22.501,75.746 22.501,79.988 31.009,88.496 35.251,88.496 35.251,84.254 		"/>
		<polygon points="49.501,79.988 49.501,75.746 45.259,75.746 36.751,84.254 36.751,88.496 40.994,88.496 		"/>
		<polygon points="35.251,94.238 35.251,89.996 31.009,89.996 22.501,98.504 22.501,102.746 26.744,102.746 		"/>
		<polygon points="40.994,89.996 36.751,89.996 36.751,94.238 45.259,102.746 49.501,102.746 49.501,98.504 		"/>
		<polygon points="19.062,107.246 22.062,104.246 49.939,104.246 52.939,107.246 49.939,110.246 22.062,110.246 		"/>
		<polygon points="19.062,71.246 22.062,68.246 49.939,68.246 52.939,71.246 49.939,74.246 22.062,74.246 		"/>
		<polygon points="18.001,72.307 21.001,75.307 21.001,103.184 18.001,106.184 15.001,103.184 15.001,75.307 		"/>
		<polygon points="54.001,72.307 57.001,75.307 57.001,103.184 54.001,106.184 51.001,103.184 51.001,75.307 		"/>
		<polygon points="62.744,75.746 58.501,75.746 58.501,79.988 67.009,88.496 71.251,88.496 71.251,84.254 		"/>
		<polygon points="85.501,79.988 85.501,75.746 81.259,75.746 72.751,84.254 72.751,88.496 76.994,88.496 		"/>
		<polygon points="71.251,94.238 71.251,89.996 67.009,89.996 58.501,98.504 58.501,102.746 62.744,102.746 		"/>
		<polygon points="76.994,89.996 72.751,89.996 72.751,94.238 81.259,102.746 85.501,102.746 85.501,98.504 		"/>
		<polygon points="55.062,107.246 58.062,104.246 85.939,104.246 88.939,107.246 85.939,110.246 58.062,110.246 		"/>
		<polygon points="55.062,71.246 58.062,68.246 85.939,68.246 88.939,71.246 85.939,74.246 58.062,74.246 		"/>
		<polygon points="90.001,72.307 93.002,75.307 93.002,103.184 90.001,106.184 87.001,103.184 87.001,75.307 		"/>
		<polygon points="54.001,54.307 57.001,57.307 57.001,67.184 54.001,70.184 51.001,67.184 51.001,57.307 		"/>
	</g>
	<text transform="matrix(1 0 0 1 70.2432 13.3452)" font-family="Verdana" font-size="4.8">U</text>
	<text transform="matrix(1 0 0 1 34.2432 13.3452)" font-family="Verdana" font-size="4.8">U</text>
	<text transform="matrix(1 0 0 1 70.2432 115.3447)" font-family="Verdana" font-size="4.8">U</text>
	<text transform="matrix(1 0 0 1 34.2432 115.3447)" font-family="Verdana" font-size="4.8">U</text>
	<text transform="matrix(1 0 0 1 70.3594 61.3447)" font-family="Verdana" font-size="4.8">V</text>
	<text transform="matrix(1 0 0 1 34.3594 61.3447)" font-family="Verdana" font-size="4.8">V</text>
	<text transform="matrix(1 0 0 1 70.3594 67.3447)" font-family="Verdana" font-size="4.8">V</text>
	<text transform="matrix(1 0 0 1 34.3594 67.3447)" font-family="Verdana" font-size="4.8">V</text>
	<text transform="matrix(0.7071 0.7071 -0.7071 0.7071 65.6343 23.3306)" font-family="Verdana" font-size="4.8">W</text>
	<text transform="matrix(0.7071 0.7071 -0.7071 0.7071 72.9063 46.0581)" font-family="Verdana" font-size="4.8">W</text>
	<text transform="matrix(0.7071 -0.7071 0.7071 0.7071 68.3296 48.8999)" font-family="Verdana" font-size="4.8">X</text>
	<text transform="matrix(0.7071 -0.7071 0.7071 0.7071 75.6025 26.1729)" font-family="Verdana" font-size="4.8">X</text>
	<text transform="matrix(0.7071 0.7071 -0.7071 0.7071 30.1489 23.8457)" font-family="Verdana" font-size="4.8">X</text>
	<text transform="matrix(0.7071 0.7071 -0.7071 0.7071 37.4209 46.5732)" font-family="Verdana" font-size="4.8">X</text>
	<text transform="matrix(0.7071 -0.7071 0.7071 0.7071 31.814 49.4155)" font-family="Verdana" font-size="4.8">W</text>
	<text transform="matrix(0.7071 -0.7071 0.7071 0.7071 39.0869 26.688)" font-family="Verdana" font-size="4.8">W</text>
	<text transform="matrix(0.7071 0.7071 -0.7071 0.7071 66.1489 77.8462)" font-family="Verdana" font-size="4.8">X</text>
	<text transform="matrix(0.7071 0.7071 -0.7071 0.7071 73.4214 100.5732)" font-family="Verdana" font-size="4.8">X</text>
	<text transform="matrix(0.7071 -0.7071 0.7071 0.7071 67.8135 103.416)" font-family="Verdana" font-size="4.8">W</text>
	<text transform="matrix(0.7071 -0.7071 0.7071 0.7071 75.0869 80.689)" font-family="Verdana" font-size="4.8">W</text>
	<text transform="matrix(0.7071 0.7071 -0.7071 0.7071 29.6338 77.3315)" font-family="Verdana" font-size="4.8">W</text>
	<text transform="matrix(0.7071 0.7071 -0.7071 0.7071 36.9063 100.0576)" font-family="Verdana" font-size="4.8">W</text>
	<text transform="matrix(0.7071 -0.7071 0.7071 0.7071 32.3286 102.9004)" font-family="Verdana" font-size="4.8">X</text>
	<text transform="matrix(0.7071 -0.7071 0.7071 0.7071 39.6016 80.1733)" font-family="Verdana" font-size="4.8">X</text>
	<text transform="matrix(1 0 0 1 94.5234 37.3447)" font-family="Verdana" font-size="4.8">Y</text>
	<text transform="matrix(1 0 0 1 94.5234 91.3447)" font-family="Verdana" font-size="4.8">Y</text>
	<text transform="matrix(1 0 0 1 10.5234 37.3447)" font-family="Verdana" font-size="4.8">Y</text>
	<text transform="matrix(1 0 0 1 10.5234 91.3447)" font-family="Verdana" font-size="4.8">Y</text>
	<text transform="matrix(1 0 0 1 58.3555 37.3447)" font-family="Verdana" font-size="4.8">Z</text>
	<text transform="matrix(1 0 0 1 58.3555 91.3447)" font-family="Verdana" font-size="4.8">Z</text>
	<text transform="matrix(1 0 0 1 58.3555 64.3447)" font-family="Verdana" font-size="4.8">Z</text>
</g>
</svg>
