<?xml version="1.0" encoding="utf-8"?>
<!-- Generator: Adobe Illustrator 16.0.0, SVG Export Plug-In . SVG Version: 6.00 Build 0)  -->
<!DOCTYPE svg PUBLIC "-//W3C//DTD SVG 1.1//EN" "http://www.w3.org/Graphics/SVG/1.1/DTD/svg11.dtd">
<svg version="1.1" xmlns="http://www.w3.org/2000/svg" xmlns:xlink="http://www.w3.org/1999/xlink" x="0px" y="0px"
	 width="693px" height="405px" viewBox="0 0 346.5 202.5" enable-background="new 0 0 346.5 202.5" xml:space="preserve">
<g>
	<g>
		<g>
			<g>
				<circle cx="37.589" cy="29.647" r="1.324"/>
				<circle fill="none" stroke="#000" stroke-width="0.25" cx="48.177" cy="48.176" r="1.323"/>
				<path fill="none" stroke="#000" stroke-width="0.25" d="M32.956,49.5
					c-0.593,0-1.133-0.401-1.283-1.003L27.04,29.968c-0.178-0.709,0.254-1.428,0.963-1.605c0.706-0.181,1.427,0.253,1.605,0.963
					l4.633,18.529c0.177,0.709-0.255,1.428-0.963,1.605C33.17,49.487,33.062,49.5,32.956,49.5z"/>
				<path fill="none" stroke="#000" stroke-width="0.25" d="M37.588,32.029
					c-0.701,0-1.326-0.308-1.762-0.792l-2.324,9.298l1.364,5.457l3.527-14.113C38.142,31.971,37.873,32.029,37.588,32.029z"/>
				<path fill="none" stroke="#000" stroke-width="0.25" d="M43.507,47.855L39.5,31.83
					l-1.365,5.456l2.804,11.211c0.15,0.602,0.69,1.003,1.283,1.003c0.106,0,0.215-0.013,0.323-0.04
					C43.252,49.283,43.684,48.564,43.507,47.855z"/>
				<path fill="none" stroke="#000" stroke-width="0.25" d="M47.176,28.363
					c-0.711-0.181-1.429,0.253-1.606,0.963l-2.801,11.209l1.364,5.457l4.005-16.024C48.314,29.259,47.883,28.54,47.176,28.363z"/>
				<path fill="none" stroke="#000" stroke-width="0.25" d="M28.323,27.265
					c-0.618,0-1.171-0.435-1.297-1.064c-0.143-0.717,0.322-1.415,1.039-1.557l18.53-3.706c0.715-0.144,1.413,0.321,1.558,1.038
					c0.143,0.717-0.322,1.415-1.04,1.558L28.584,27.24C28.497,27.257,28.409,27.265,28.323,27.265z"/>
				<path fill="none" stroke="#000" stroke-width="0.25" d="M28.065,19.828l9.341,1.869
					l6.749-1.35l-15.571-3.114c-0.715-0.144-1.414,0.321-1.558,1.039C26.883,18.988,27.349,19.686,28.065,19.828z"/>
				<path fill="none" stroke="#000" stroke-width="0.25" d="M37.771,17.991l9.341-1.87
					c0.718-0.142,1.183-0.84,1.04-1.557c-0.145-0.718-0.843-1.183-1.558-1.039l-15.57,3.115L37.771,17.991z"/>
			</g>
		</g>
		<text transform="matrix(1 0 0 1 34.4126 63)" font-family="Verdana" font-size="10">0</text>
		<g>
			<g>
				<circle fill="none" stroke="#000" stroke-width="0.25" cx="69.089" cy="29.647" r="1.324"/>
				<circle fill="none" stroke="#000" stroke-width="0.25" cx="79.677" cy="48.176" r="1.323"/>
				<path d="M64.456,49.5c-0.593,0-1.133-0.401-1.283-1.003L58.54,29.968c-0.178-0.709,0.254-1.428,0.963-1.605
					c0.706-0.181,1.427,0.253,1.605,0.963l4.633,18.529c0.177,0.709-0.255,1.428-0.963,1.605C64.67,49.487,64.562,49.5,64.456,49.5z
					"/>
				<path fill="none" stroke="#000" stroke-width="0.25" d="M69.088,32.029
					c-0.7,0-1.325-0.308-1.761-0.792l-2.324,9.298l1.364,5.457l3.527-14.113C69.642,31.971,69.373,32.029,69.088,32.029z"/>
				<path fill="none" stroke="#000" stroke-width="0.25" d="M75.007,47.855L71,31.83
					l-1.365,5.456l2.804,11.211c0.15,0.602,0.69,1.003,1.282,1.003c0.107,0,0.216-0.013,0.323-0.04
					C74.752,49.283,75.184,48.564,75.007,47.855z"/>
				<path fill="none" stroke="#000" stroke-width="0.25" d="M78.676,28.363
					c-0.711-0.181-1.429,0.253-1.606,0.963l-2.801,11.209l1.364,5.457l4.005-16.024C79.814,29.259,79.383,28.54,78.676,28.363z"/>
				<path fill="none" stroke="#000" stroke-width="0.25" d="M59.823,27.265
					c-0.618,0-1.171-0.435-1.297-1.064c-0.143-0.717,0.322-1.415,1.039-1.557l18.53-3.706c0.715-0.144,1.413,0.321,1.558,1.038
					c0.143,0.717-0.322,1.415-1.04,1.558L60.084,27.24C59.997,27.257,59.909,27.265,59.823,27.265z"/>
				<path fill="none" stroke="#000" stroke-width="0.25" d="M59.565,19.828l9.341,1.869
					l6.748-1.35l-15.57-3.114c-0.715-0.144-1.414,0.321-1.558,1.039C58.383,18.988,58.849,19.686,59.565,19.828z"/>
				<path fill="none" stroke="#000" stroke-width="0.25" d="M69.271,17.991l9.341-1.87
					c0.718-0.142,1.183-0.84,1.04-1.557c-0.145-0.718-0.843-1.183-1.558-1.039l-15.57,3.115L69.271,17.991z"/>
			</g>
		</g>
		<text transform="matrix(1 0 0 1 65.9126 63)" font-family="Verdana" font-size="10">1</text>
		<g>
			<g>
				<circle cx="100.589" cy="29.647" r="1.324"/>
				<circle fill="none" stroke="#000" stroke-width="0.25" cx="111.177" cy="48.176" r="1.323"/>
				<path d="M95.956,49.5c-0.593,0-1.133-0.401-1.283-1.003L90.04,29.968c-0.178-0.709,0.254-1.428,0.963-1.605
					c0.706-0.181,1.427,0.253,1.604,0.963l4.634,18.529c0.177,0.709-0.255,1.428-0.964,1.605C96.17,49.487,96.062,49.5,95.956,49.5z
					"/>
				<path d="M100.588,32.029c-0.7,0-1.325-0.308-1.762-0.792l-2.323,9.298l1.364,5.457l3.527-14.113
					C101.142,31.971,100.873,32.029,100.588,32.029z"/>
				<path fill="none" stroke="#000" stroke-width="0.25" d="M106.507,47.855L102.5,31.83
					l-1.365,5.456l2.804,11.211c0.15,0.602,0.69,1.003,1.282,1.003c0.107,0,0.216-0.013,0.323-0.04
					C106.252,49.283,106.684,48.564,106.507,47.855z"/>
				<path fill="none" stroke="#000" stroke-width="0.25" d="M110.176,28.363
					c-0.711-0.181-1.429,0.253-1.606,0.963l-2.801,11.209l1.364,5.457l4.005-16.024C111.314,29.259,110.883,28.54,110.176,28.363z"
					/>
				<path fill="none" stroke="#000" stroke-width="0.25" d="M91.323,27.265
					c-0.618,0-1.171-0.435-1.297-1.064c-0.143-0.717,0.322-1.415,1.038-1.557l18.53-3.706c0.715-0.144,1.413,0.321,1.558,1.038
					c0.143,0.717-0.322,1.415-1.04,1.558L91.584,27.24C91.496,27.257,91.409,27.265,91.323,27.265z"/>
				<path fill="none" stroke="#000" stroke-width="0.25" d="M91.064,19.828l9.342,1.869
					l6.748-1.35l-15.57-3.114c-0.715-0.144-1.414,0.321-1.558,1.039C89.883,18.988,90.349,19.686,91.064,19.828z"/>
				<path fill="none" stroke="#000" stroke-width="0.25" d="M100.771,17.991l9.341-1.87
					c0.718-0.142,1.183-0.84,1.04-1.557c-0.145-0.718-0.843-1.183-1.558-1.039l-15.57,3.115L100.771,17.991z"/>
			</g>
		</g>
		<text transform="matrix(1 0 0 1 97.4126 63)" font-family="Verdana" font-size="10">2</text>
		<g>
			<g>
				<circle cx="132.089" cy="29.647" r="1.324"/>
				<circle fill="none" stroke="#000" stroke-width="0.25" cx="142.677" cy="48.176" r="1.323"/>
				<path d="M127.456,49.5c-0.593,0-1.133-0.401-1.283-1.003l-4.633-18.529c-0.178-0.709,0.255-1.428,0.963-1.605
					c0.706-0.181,1.427,0.253,1.604,0.963l4.634,18.529c0.177,0.709-0.255,1.428-0.964,1.605
					C127.67,49.487,127.562,49.5,127.456,49.5z"/>
				<path d="M132.088,32.029c-0.7,0-1.325-0.308-1.762-0.792l-2.323,9.298l1.364,5.457l3.527-14.113
					C132.642,31.971,132.373,32.029,132.088,32.029z"/>
				<path d="M138.007,47.855L134,31.83l-1.365,5.456l2.804,11.211c0.15,0.602,0.69,1.003,1.282,1.003
					c0.107,0,0.216-0.013,0.323-0.04C137.752,49.283,138.184,48.564,138.007,47.855z"/>
				<path fill="none" stroke="#000" stroke-width="0.25" d="M141.676,28.363
					c-0.711-0.181-1.429,0.253-1.606,0.963l-2.801,11.209l1.364,5.457l4.005-16.024C142.814,29.259,142.383,28.54,141.676,28.363z"
					/>
				<path fill="none" stroke="#000" stroke-width="0.25" d="M122.823,27.265
					c-0.618,0-1.171-0.435-1.297-1.064c-0.144-0.717,0.322-1.415,1.038-1.557l18.53-3.706c0.715-0.144,1.413,0.321,1.558,1.038
					c0.143,0.717-0.322,1.415-1.04,1.558l-18.528,3.706C122.996,27.257,122.909,27.265,122.823,27.265z"/>
				<path fill="none" stroke="#000" stroke-width="0.25" d="M122.564,19.828l9.342,1.869
					l6.748-1.35l-15.57-3.114c-0.715-0.144-1.414,0.321-1.558,1.039C121.383,18.988,121.849,19.686,122.564,19.828z"/>
				<path fill="none" stroke="#000" stroke-width="0.25" d="M132.271,17.991l9.341-1.87
					c0.718-0.142,1.183-0.84,1.04-1.557c-0.145-0.718-0.843-1.183-1.558-1.039l-15.57,3.115L132.271,17.991z"/>
			</g>
		</g>
		<text transform="matrix(1 0 0 1 128.9121 63)" font-family="Verdana" font-size="10">3</text>
		<g>
			<g>
				<circle cx="163.589" cy="29.647" r="1.324"/>
				<circle fill="none" stroke="#000" stroke-width="0.25" cx="174.177" cy="48.176" r="1.323"/>
				<path d="M158.956,49.5c-0.593,0-1.133-0.401-1.283-1.003l-4.633-18.529c-0.178-0.709,0.255-1.428,0.963-1.605
					c0.706-0.181,1.427,0.253,1.604,0.963l4.634,18.529c0.177,0.709-0.255,1.428-0.964,1.605
					C159.17,49.487,159.062,49.5,158.956,49.5z"/>
				<path d="M163.588,32.029c-0.7,0-1.325-0.308-1.762-0.792l-2.323,9.298l1.364,5.457l3.527-14.113
					C164.142,31.971,163.873,32.029,163.588,32.029z"/>
				<path d="M169.507,47.855L165.5,31.83l-1.365,5.456l2.804,11.211c0.15,0.602,0.69,1.003,1.282,1.003
					c0.107,0,0.216-0.013,0.323-0.04C169.252,49.283,169.684,48.564,169.507,47.855z"/>
				<path d="M173.176,28.363c-0.711-0.181-1.429,0.253-1.606,0.963l-2.801,11.209l1.364,5.457l4.005-16.024
					C174.314,29.259,173.883,28.54,173.176,28.363z"/>
				<path fill="none" stroke="#000" stroke-width="0.25" d="M154.323,27.265
					c-0.618,0-1.171-0.435-1.297-1.064c-0.144-0.717,0.322-1.415,1.038-1.557l18.53-3.706c0.715-0.144,1.413,0.321,1.558,1.038
					c0.143,0.717-0.322,1.415-1.04,1.558l-18.528,3.706C154.496,27.257,154.409,27.265,154.323,27.265z"/>
				<path fill="none" stroke="#000" stroke-width="0.25" d="M154.064,19.828l9.342,1.869
					l6.748-1.35l-15.57-3.114c-0.715-0.144-1.414,0.321-1.558,1.039C152.883,18.988,153.349,19.686,154.064,19.828z"/>
				<path fill="none" stroke="#000" stroke-width="0.25" d="M163.771,17.991l9.341-1.87
					c0.718-0.142,1.183-0.84,1.04-1.557c-0.145-0.718-0.843-1.183-1.558-1.039l-15.57,3.115L163.771,17.991z"/>
			</g>
		</g>
		<text transform="matrix(1 0 0 1 160.4121 63)" font-family="Verdana" font-size="10">4</text>
		<g>
			<g>
				<circle fill="none" stroke="#000" stroke-width="0.25" cx="195.089" cy="29.647" r="1.324"/>
				<circle fill="none" stroke="#000" stroke-width="0.25" cx="205.677" cy="48.176" r="1.323"/>
				<path fill="none" stroke="#000" stroke-width="0.25" d="M190.456,49.5
					c-0.593,0-1.133-0.401-1.283-1.003l-4.633-18.529c-0.178-0.709,0.255-1.428,0.963-1.605c0.706-0.181,1.427,0.253,1.604,0.963
					l4.634,18.529c0.177,0.709-0.255,1.428-0.964,1.605C190.67,49.487,190.562,49.5,190.456,49.5z"/>
				<path fill="none" stroke="#000" stroke-width="0.25" d="M195.088,32.029
					c-0.7,0-1.325-0.308-1.762-0.792l-2.323,9.298l1.364,5.457l3.527-14.113C195.642,31.971,195.373,32.029,195.088,32.029z"/>
				<path fill="none" stroke="#000" stroke-width="0.25" d="M201.007,47.855L197,31.83
					l-1.365,5.456l2.804,11.211c0.15,0.602,0.69,1.003,1.282,1.003c0.107,0,0.216-0.013,0.323-0.04
					C200.752,49.283,201.184,48.564,201.007,47.855z"/>
				<path fill="none" stroke="#000" stroke-width="0.25" d="M204.676,28.363
					c-0.711-0.181-1.429,0.253-1.606,0.963l-2.801,11.209l1.364,5.457l4.005-16.024C205.814,29.259,205.383,28.54,204.676,28.363z"
					/>
				<path d="M185.823,27.265c-0.618,0-1.171-0.435-1.297-1.064c-0.144-0.717,0.322-1.415,1.038-1.557l18.53-3.706
					c0.715-0.144,1.413,0.321,1.558,1.038c0.143,0.717-0.322,1.415-1.04,1.558l-18.528,3.706
					C185.996,27.257,185.909,27.265,185.823,27.265z"/>
				<path fill="none" stroke="#000" stroke-width="0.25" d="M185.564,19.828l9.342,1.869
					l6.748-1.35l-15.57-3.114c-0.715-0.144-1.414,0.321-1.558,1.039C184.383,18.988,184.849,19.686,185.564,19.828z"/>
				<path fill="none" stroke="#000" stroke-width="0.25" d="M195.271,17.991l9.341-1.87
					c0.718-0.142,1.183-0.84,1.04-1.557c-0.145-0.718-0.843-1.183-1.558-1.039l-15.57,3.115L195.271,17.991z"/>
			</g>
		</g>
		<text transform="matrix(1 0 0 1 191.9121 63)" font-family="Verdana" font-size="10">5</text>
		<g>
			<g>
				<circle fill="none" stroke="#000" stroke-width="0.25" cx="226.589" cy="29.647" r="1.324"/>
				<circle fill="none" stroke="#000" stroke-width="0.25" cx="237.177" cy="48.176" r="1.323"/>
				<path d="M221.956,49.5c-0.593,0-1.133-0.401-1.283-1.003l-4.633-18.529c-0.178-0.709,0.255-1.428,0.963-1.605
					c0.706-0.181,1.427,0.253,1.604,0.963l4.634,18.529c0.177,0.709-0.255,1.428-0.964,1.605
					C222.17,49.487,222.062,49.5,221.956,49.5z"/>
				<path fill="none" stroke="#000" stroke-width="0.25" d="M226.588,32.029
					c-0.7,0-1.325-0.308-1.762-0.792l-2.323,9.298l1.364,5.457l3.527-14.113C227.142,31.971,226.873,32.029,226.588,32.029z"/>
				<path fill="none" stroke="#000" stroke-width="0.25" d="M232.507,47.855L228.5,31.83
					l-1.365,5.456l2.804,11.211c0.15,0.602,0.69,1.003,1.282,1.003c0.107,0,0.216-0.013,0.323-0.04
					C232.252,49.283,232.684,48.564,232.507,47.855z"/>
				<path fill="none" stroke="#000" stroke-width="0.25" d="M236.176,28.363
					c-0.711-0.181-1.429,0.253-1.606,0.963l-2.801,11.209l1.364,5.457l4.005-16.024C237.314,29.259,236.883,28.54,236.176,28.363z"
					/>
				<path d="M217.323,27.265c-0.618,0-1.171-0.435-1.297-1.064c-0.144-0.717,0.322-1.415,1.038-1.557l18.53-3.706
					c0.715-0.144,1.413,0.321,1.558,1.038c0.143,0.717-0.322,1.415-1.04,1.558l-18.528,3.706
					C217.496,27.257,217.409,27.265,217.323,27.265z"/>
				<path fill="none" stroke="#000" stroke-width="0.25" d="M217.064,19.828l9.342,1.869
					l6.748-1.35l-15.57-3.114c-0.715-0.144-1.414,0.321-1.558,1.039C215.883,18.988,216.349,19.686,217.064,19.828z"/>
				<path fill="none" stroke="#000" stroke-width="0.25" d="M226.771,17.991l9.341-1.87
					c0.718-0.142,1.183-0.84,1.04-1.557c-0.145-0.718-0.843-1.183-1.558-1.039l-15.57,3.115L226.771,17.991z"/>
			</g>
		</g>
		<text transform="matrix(1 0 0 1 223.4121 63)" font-family="Verdana" font-size="10">6</text>
		<g>
			<g>
				<circle cx="258.089" cy="29.647" r="1.324"/>
				<circle fill="none" stroke="#000" stroke-width="0.25" cx="268.677" cy="48.176" r="1.323"/>
				<path d="M253.456,49.5c-0.593,0-1.133-0.401-1.283-1.003l-4.633-18.529c-0.178-0.709,0.255-1.428,0.963-1.605
					c0.706-0.181,1.427,0.253,1.604,0.963l4.634,18.529c0.177,0.709-0.255,1.428-0.964,1.605
					C253.67,49.487,253.562,49.5,253.456,49.5z"/>
				<path d="M258.088,32.029c-0.7,0-1.325-0.308-1.762-0.792l-2.323,9.298l1.364,5.457l3.527-14.113
					C258.642,31.971,258.373,32.029,258.088,32.029z"/>
				<path fill="none" stroke="#000" stroke-width="0.25" d="M264.007,47.855L260,31.83
					l-1.365,5.456l2.804,11.211c0.15,0.602,0.69,1.003,1.282,1.003c0.107,0,0.216-0.013,0.323-0.04
					C263.752,49.283,264.184,48.564,264.007,47.855z"/>
				<path fill="none" stroke="#000" stroke-width="0.25" d="M267.676,28.363
					c-0.711-0.181-1.429,0.253-1.606,0.963l-2.801,11.209l1.364,5.457l4.005-16.024C268.814,29.259,268.383,28.54,267.676,28.363z"
					/>
				<path d="M248.823,27.265c-0.618,0-1.171-0.435-1.297-1.064c-0.144-0.717,0.322-1.415,1.038-1.557l18.53-3.706
					c0.715-0.144,1.413,0.321,1.558,1.038c0.143,0.717-0.322,1.415-1.04,1.558l-18.528,3.706
					C248.996,27.257,248.909,27.265,248.823,27.265z"/>
				<path fill="none" stroke="#000" stroke-width="0.25" d="M248.564,19.828l9.342,1.869
					l6.748-1.35l-15.57-3.114c-0.715-0.144-1.414,0.321-1.558,1.039C247.383,18.988,247.849,19.686,248.564,19.828z"/>
				<path fill="none" stroke="#000" stroke-width="0.25" d="M258.271,17.991l9.341-1.87
					c0.718-0.142,1.183-0.84,1.04-1.557c-0.145-0.718-0.843-1.183-1.558-1.039l-15.57,3.115L258.271,17.991z"/>
			</g>
		</g>
		<text transform="matrix(1 0 0 1 254.9121 63)" font-family="Verdana" font-size="10">7</text>
		<g>
			<g>
				<circle cx="289.589" cy="29.647" r="1.324"/>
				<circle fill="none" stroke="#000" stroke-width="0.25" cx="300.177" cy="48.176" r="1.323"/>
				<path d="M284.956,49.5c-0.593,0-1.133-0.401-1.283-1.003l-4.633-18.529c-0.178-0.709,0.255-1.428,0.963-1.605
					c0.706-0.181,1.427,0.253,1.604,0.963l4.634,18.529c0.177,0.709-0.255,1.428-0.964,1.605
					C285.17,49.487,285.062,49.5,284.956,49.5z"/>
				<path d="M289.588,32.029c-0.7,0-1.325-0.308-1.762-0.792l-2.323,9.298l1.364,5.457l3.527-14.113
					C290.142,31.971,289.873,32.029,289.588,32.029z"/>
				<path d="M295.507,47.855L291.5,31.83l-1.365,5.456l2.804,11.211c0.15,0.602,0.69,1.003,1.282,1.003
					c0.107,0,0.216-0.013,0.323-0.04C295.252,49.283,295.684,48.564,295.507,47.855z"/>
				<path fill="none" stroke="#000" stroke-width="0.25" d="M299.176,28.363
					c-0.711-0.181-1.429,0.253-1.606,0.963l-2.801,11.209l1.364,5.457l4.005-16.024C300.314,29.259,299.883,28.54,299.176,28.363z"
					/>
				<path d="M280.323,27.265c-0.618,0-1.171-0.435-1.297-1.064c-0.144-0.717,0.322-1.415,1.038-1.557l18.53-3.706
					c0.715-0.144,1.413,0.321,1.558,1.038c0.143,0.717-0.322,1.415-1.04,1.558l-18.528,3.706
					C280.496,27.257,280.409,27.265,280.323,27.265z"/>
				<path fill="none" stroke="#000" stroke-width="0.25" d="M280.064,19.828l9.342,1.869
					l6.748-1.35l-15.57-3.114c-0.715-0.144-1.414,0.321-1.558,1.039C278.883,18.988,279.349,19.686,280.064,19.828z"/>
				<path fill="none" stroke="#000" stroke-width="0.25" d="M289.771,17.991l9.341-1.87
					c0.718-0.142,1.183-0.84,1.04-1.557c-0.145-0.718-0.843-1.183-1.558-1.039l-15.57,3.115L289.771,17.991z"/>
			</g>
		</g>
		<text transform="matrix(1 0 0 1 286.4121 63)" font-family="Verdana" font-size="10">8</text>
		<g>
			<g>
				<circle cx="321.089" cy="29.647" r="1.324"/>
				<circle fill="none" stroke="#000" stroke-width="0.25" cx="331.677" cy="48.176" r="1.323"/>
				<path d="M316.456,49.5c-0.593,0-1.133-0.401-1.283-1.003l-4.633-18.529c-0.178-0.709,0.255-1.428,0.963-1.605
					c0.706-0.181,1.427,0.253,1.604,0.963l4.634,18.529c0.177,0.709-0.255,1.428-0.964,1.605
					C316.67,49.487,316.562,49.5,316.456,49.5z"/>
				<path d="M321.088,32.029c-0.7,0-1.325-0.308-1.762-0.792l-2.323,9.298l1.364,5.457l3.527-14.113
					C321.642,31.971,321.373,32.029,321.088,32.029z"/>
				<path d="M327.007,47.855L323,31.83l-1.365,5.456l2.804,11.211c0.15,0.602,0.69,1.003,1.282,1.003
					c0.107,0,0.216-0.013,0.323-0.04C326.752,49.283,327.184,48.564,327.007,47.855z"/>
				<path d="M330.676,28.363c-0.711-0.181-1.429,0.253-1.606,0.963l-2.801,11.209l1.364,5.457l4.005-16.024
					C331.814,29.259,331.383,28.54,330.676,28.363z"/>
				<path d="M311.823,27.265c-0.618,0-1.171-0.435-1.297-1.064c-0.144-0.717,0.322-1.415,1.038-1.557l18.53-3.706
					c0.715-0.144,1.413,0.321,1.558,1.038c0.143,0.717-0.322,1.415-1.04,1.558l-18.528,3.706
					C311.996,27.257,311.909,27.265,311.823,27.265z"/>
				<path fill="none" stroke="#000" stroke-width="0.25" d="M311.564,19.828l9.342,1.869
					l6.748-1.35l-15.57-3.114c-0.715-0.144-1.414,0.321-1.558,1.039C310.383,18.988,310.849,19.686,311.564,19.828z"/>
				<path fill="none" stroke="#000" stroke-width="0.25" d="M321.271,17.991l9.341-1.87
					c0.718-0.142,1.183-0.84,1.04-1.557c-0.145-0.718-0.843-1.183-1.558-1.039l-15.57,3.115L321.271,17.991z"/>
			</g>
		</g>
		<text transform="matrix(1 0 0 1 317.9121 63)" font-family="Verdana" font-size="10">9</text>
	</g>
	<g>
		<g>
			<g>
				<circle fill="none" stroke="#000" stroke-width="0.25" cx="37.589" cy="92.647" r="1.324"/>
				<circle fill="none" stroke="#000" stroke-width="0.25" cx="48.177" cy="111.176" r="1.323"/>
				<path fill="none" stroke="#000" stroke-width="0.25" d="M32.956,112.5
					c-0.593,0-1.133-0.401-1.283-1.003L27.04,92.968c-0.178-0.709,0.254-1.428,0.963-1.605c0.706-0.181,1.427,0.253,1.605,0.963
					l4.633,18.529c0.177,0.709-0.255,1.428-0.963,1.604C33.17,112.487,33.062,112.5,32.956,112.5z"/>
				<path fill="none" stroke="#000" stroke-width="0.25" d="M37.588,95.029
					c-0.701,0-1.326-0.308-1.762-0.792l-2.324,9.297l1.364,5.457l3.527-14.112C38.142,94.971,37.873,95.029,37.588,95.029z"/>
				<path fill="none" stroke="#000" stroke-width="0.25" d="M43.507,110.855L39.5,94.83
					l-1.365,5.456l2.804,11.212c0.15,0.602,0.69,1.003,1.283,1.003c0.106,0,0.215-0.013,0.323-0.04
					C43.252,112.283,43.684,111.564,43.507,110.855z"/>
				<path fill="none" stroke="#000" stroke-width="0.25" d="M47.176,91.363
					c-0.711-0.181-1.429,0.253-1.606,0.963l-2.801,11.209l1.364,5.457l4.005-16.024C48.314,92.259,47.883,91.54,47.176,91.363z"/>
				<path d="M28.323,90.265c-0.618,0-1.171-0.435-1.297-1.064c-0.143-0.717,0.322-1.415,1.039-1.557l18.53-3.706
					c0.715-0.144,1.413,0.321,1.558,1.038c0.143,0.717-0.322,1.415-1.04,1.558L28.584,90.24
					C28.497,90.257,28.409,90.265,28.323,90.265z"/>
				<path d="M28.065,82.828l9.341,1.869l6.749-1.35l-15.571-3.114c-0.715-0.144-1.414,0.321-1.558,1.039
					C26.883,81.988,27.349,82.686,28.065,82.828z"/>
				<path fill="none" stroke="#000" stroke-width="0.25" d="M37.771,80.991l9.341-1.87
					c0.718-0.142,1.183-0.84,1.04-1.557c-0.145-0.718-0.843-1.183-1.558-1.039l-15.57,3.115L37.771,80.991z"/>
			</g>
		</g>
		<text transform="matrix(1 0 0 1 31.2339 126)" font-family="Verdana" font-size="10">10</text>
		<g>
			<g>
				<circle fill="none" stroke="#000" stroke-width="0.25" cx="69.089" cy="92.647" r="1.324"/>
				<circle fill="none" stroke="#000" stroke-width="0.25" cx="79.677" cy="111.176" r="1.323"/>
				<path d="M64.456,112.5c-0.593,0-1.133-0.401-1.283-1.003L58.54,92.968c-0.178-0.709,0.254-1.428,0.963-1.605
					c0.706-0.181,1.427,0.253,1.605,0.963l4.633,18.529c0.177,0.709-0.255,1.428-0.963,1.604
					C64.67,112.487,64.562,112.5,64.456,112.5z"/>
				<path fill="none" stroke="#000" stroke-width="0.25" d="M69.088,95.029
					c-0.7,0-1.325-0.308-1.761-0.792l-2.324,9.297l1.364,5.457l3.527-14.112C69.642,94.971,69.373,95.029,69.088,95.029z"/>
				<path fill="none" stroke="#000" stroke-width="0.25" d="M75.007,110.855L71,94.83
					l-1.365,5.456l2.804,11.212c0.15,0.602,0.69,1.003,1.282,1.003c0.107,0,0.216-0.013,0.323-0.04
					C74.752,112.283,75.184,111.564,75.007,110.855z"/>
				<path fill="none" stroke="#000" stroke-width="0.25" d="M78.676,91.363
					c-0.711-0.181-1.429,0.253-1.606,0.963l-2.801,11.209l1.364,5.457l4.005-16.024C79.814,92.259,79.383,91.54,78.676,91.363z"/>
				<path d="M59.823,90.265c-0.618,0-1.171-0.435-1.297-1.064c-0.143-0.717,0.322-1.415,1.039-1.557l18.53-3.706
					c0.715-0.144,1.413,0.321,1.558,1.038c0.143,0.717-0.322,1.415-1.04,1.558L60.084,90.24
					C59.997,90.257,59.909,90.265,59.823,90.265z"/>
				<path d="M59.565,82.828l9.341,1.869l6.748-1.35l-15.57-3.114c-0.715-0.144-1.414,0.321-1.558,1.039
					C58.383,81.988,58.849,82.686,59.565,82.828z"/>
				<path fill="none" stroke="#000" stroke-width="0.25" d="M69.271,80.991l9.341-1.87
					c0.718-0.142,1.183-0.84,1.04-1.557c-0.145-0.718-0.843-1.183-1.558-1.039l-15.57,3.115L69.271,80.991z"/>
			</g>
		</g>
		<text transform="matrix(1 0 0 1 62.7339 126)" font-family="Verdana" font-size="10">11</text>
		<g>
			<g>
				<circle cx="100.589" cy="92.647" r="1.324"/>
				<circle fill="none" stroke="#000" stroke-width="0.25" cx="111.177" cy="111.176" r="1.323"/>
				<path d="M95.956,112.5c-0.593,0-1.133-0.401-1.283-1.003L90.04,92.968c-0.178-0.709,0.254-1.428,0.963-1.605
					c0.706-0.181,1.427,0.253,1.604,0.963l4.634,18.529c0.177,0.709-0.255,1.428-0.964,1.604
					C96.17,112.487,96.062,112.5,95.956,112.5z"/>
				<path d="M100.588,95.029c-0.7,0-1.325-0.308-1.762-0.792l-2.323,9.297l1.364,5.457l3.527-14.112
					C101.142,94.971,100.873,95.029,100.588,95.029z"/>
				<path fill="none" stroke="#000" stroke-width="0.25" d="M106.507,110.855L102.5,94.83
					l-1.365,5.456l2.804,11.212c0.15,0.602,0.69,1.003,1.282,1.003c0.107,0,0.216-0.013,0.323-0.04
					C106.252,112.283,106.684,111.564,106.507,110.855z"/>
				<path fill="none" stroke="#000" stroke-width="0.25" d="M110.176,91.363
					c-0.711-0.181-1.429,0.253-1.606,0.963l-2.801,11.209l1.364,5.457l4.005-16.024C111.314,92.259,110.883,91.54,110.176,91.363z"
					/>
				<path d="M91.323,90.265c-0.618,0-1.171-0.435-1.297-1.064c-0.143-0.717,0.322-1.415,1.038-1.557l18.53-3.706
					c0.715-0.144,1.413,0.321,1.558,1.038c0.143,0.717-0.322,1.415-1.04,1.558L91.584,90.24
					C91.496,90.257,91.409,90.265,91.323,90.265z"/>
				<path d="M91.064,82.828l9.342,1.869l6.748-1.35l-15.57-3.114c-0.715-0.144-1.414,0.321-1.558,1.039
					C89.883,81.988,90.349,82.686,91.064,82.828z"/>
				<path fill="none" stroke="#000" stroke-width="0.25" d="M100.771,80.991l9.341-1.87
					c0.718-0.142,1.183-0.84,1.04-1.557c-0.145-0.718-0.843-1.183-1.558-1.039l-15.57,3.115L100.771,80.991z"/>
			</g>
		</g>
		<text transform="matrix(1 0 0 1 94.2339 126)" font-family="Verdana" font-size="10">12</text>
		<g>
			<g>
				<circle cx="132.089" cy="92.647" r="1.324"/>
				<circle fill="none" stroke="#000" stroke-width="0.25" cx="142.677" cy="111.176" r="1.323"/>
				<path d="M127.456,112.5c-0.593,0-1.133-0.401-1.283-1.003l-4.633-18.529c-0.178-0.709,0.255-1.428,0.963-1.605
					c0.706-0.181,1.427,0.253,1.604,0.963l4.634,18.529c0.177,0.709-0.255,1.428-0.964,1.604
					C127.67,112.487,127.562,112.5,127.456,112.5z"/>
				<path d="M132.088,95.029c-0.7,0-1.325-0.308-1.762-0.792l-2.323,9.297l1.364,5.457l3.527-14.112
					C132.642,94.971,132.373,95.029,132.088,95.029z"/>
				<path d="M138.007,110.855L134,94.83l-1.365,5.456l2.804,11.212c0.15,0.602,0.69,1.003,1.282,1.003
					c0.107,0,0.216-0.013,0.323-0.04C137.752,112.283,138.184,111.564,138.007,110.855z"/>
				<path fill="none" stroke="#000" stroke-width="0.25" d="M141.676,91.363
					c-0.711-0.181-1.429,0.253-1.606,0.963l-2.801,11.209l1.364,5.457l4.005-16.024C142.814,92.259,142.383,91.54,141.676,91.363z"
					/>
				<path d="M122.823,90.265c-0.618,0-1.171-0.435-1.297-1.064c-0.144-0.717,0.322-1.415,1.038-1.557l18.53-3.706
					c0.715-0.144,1.413,0.321,1.558,1.038c0.143,0.717-0.322,1.415-1.04,1.558l-18.528,3.706
					C122.996,90.257,122.909,90.265,122.823,90.265z"/>
				<path d="M122.564,82.828l9.342,1.869l6.748-1.35l-15.57-3.114c-0.715-0.144-1.414,0.321-1.558,1.039
					C121.383,81.988,121.849,82.686,122.564,82.828z"/>
				<path fill="none" stroke="#000" stroke-width="0.25" d="M132.271,80.991l9.341-1.87
					c0.718-0.142,1.183-0.84,1.04-1.557c-0.145-0.718-0.843-1.183-1.558-1.039l-15.57,3.115L132.271,80.991z"/>
			</g>
		</g>
		<text transform="matrix(1 0 0 1 125.7344 126)" font-family="Verdana" font-size="10">13</text>
		<g>
			<g>
				<circle cx="163.589" cy="92.647" r="1.324"/>
				<circle fill="none" stroke="#000" stroke-width="0.25" cx="174.177" cy="111.176" r="1.323"/>
				<path d="M158.956,112.5c-0.593,0-1.133-0.401-1.283-1.003l-4.633-18.529c-0.178-0.709,0.255-1.428,0.963-1.605
					c0.706-0.181,1.427,0.253,1.604,0.963l4.634,18.529c0.177,0.709-0.255,1.428-0.964,1.604
					C159.17,112.487,159.062,112.5,158.956,112.5z"/>
				<path d="M163.588,95.029c-0.7,0-1.325-0.308-1.762-0.792l-2.323,9.297l1.364,5.457l3.527-14.112
					C164.142,94.971,163.873,95.029,163.588,95.029z"/>
				<path d="M169.507,110.855L165.5,94.83l-1.365,5.456l2.804,11.212c0.15,0.602,0.69,1.003,1.282,1.003
					c0.107,0,0.216-0.013,0.323-0.04C169.252,112.283,169.684,111.564,169.507,110.855z"/>
				<path d="M173.176,91.363c-0.711-0.181-1.429,0.253-1.606,0.963l-2.801,11.209l1.364,5.457l4.005-16.024
					C174.314,92.259,173.883,91.54,173.176,91.363z"/>
				<path d="M154.323,90.265c-0.618,0-1.171-0.435-1.297-1.064c-0.144-0.717,0.322-1.415,1.038-1.557l18.53-3.706
					c0.715-0.144,1.413,0.321,1.558,1.038c0.143,0.717-0.322,1.415-1.04,1.558l-18.528,3.706
					C154.496,90.257,154.409,90.265,154.323,90.265z"/>
				<path d="M154.064,82.828l9.342,1.869l6.748-1.35l-15.57-3.114c-0.715-0.144-1.414,0.321-1.558,1.039
					C152.883,81.988,153.349,82.686,154.064,82.828z"/>
				<path fill="none" stroke="#000" stroke-width="0.25" d="M163.771,80.991l9.341-1.87
					c0.718-0.142,1.183-0.84,1.04-1.557c-0.145-0.718-0.843-1.183-1.558-1.039l-15.57,3.115L163.771,80.991z"/>
			</g>
		</g>
		<text transform="matrix(1 0 0 1 157.2344 126)" font-family="Verdana" font-size="10">14</text>
		<g>
			<g>
				<circle fill="none" stroke="#000" stroke-width="0.25" cx="195.089" cy="92.647" r="1.324"/>
				<circle fill="none" stroke="#000" stroke-width="0.25" cx="205.677" cy="111.176" r="1.323"/>
				<path fill="none" stroke="#000" stroke-width="0.25" d="M190.456,112.5
					c-0.593,0-1.133-0.401-1.283-1.003l-4.633-18.529c-0.178-0.709,0.255-1.428,0.963-1.605c0.706-0.181,1.427,0.253,1.604,0.963
					l4.634,18.529c0.177,0.709-0.255,1.428-0.964,1.604C190.67,112.487,190.562,112.5,190.456,112.5z"/>
				<path fill="none" stroke="#000" stroke-width="0.25" d="M195.088,95.029
					c-0.7,0-1.325-0.308-1.762-0.792l-2.323,9.297l1.364,5.457l3.527-14.112C195.642,94.971,195.373,95.029,195.088,95.029z"/>
				<path fill="none" stroke="#000" stroke-width="0.25" d="M201.007,110.855L197,94.83
					l-1.365,5.456l2.804,11.212c0.15,0.602,0.69,1.003,1.282,1.003c0.107,0,0.216-0.013,0.323-0.04
					C200.752,112.283,201.184,111.564,201.007,110.855z"/>
				<path fill="none" stroke="#000" stroke-width="0.25" d="M204.676,91.363
					c-0.711-0.181-1.429,0.253-1.606,0.963l-2.801,11.209l1.364,5.457l4.005-16.024C205.814,92.259,205.383,91.54,204.676,91.363z"
					/>
				<path d="M185.823,90.265c-0.618,0-1.171-0.435-1.297-1.064c-0.144-0.717,0.322-1.415,1.038-1.557l18.53-3.706
					c0.715-0.144,1.413,0.321,1.558,1.038c0.143,0.717-0.322,1.415-1.04,1.558l-18.528,3.706
					C185.996,90.257,185.909,90.265,185.823,90.265z"/>
				<path d="M185.564,82.828l9.342,1.869l6.748-1.35l-15.57-3.114c-0.715-0.144-1.414,0.321-1.558,1.039
					C184.383,81.988,184.849,82.686,185.564,82.828z"/>
				<path d="M195.271,80.991l9.341-1.87c0.718-0.142,1.183-0.84,1.04-1.557c-0.145-0.718-0.843-1.183-1.558-1.039
					l-15.57,3.115L195.271,80.991z"/>
			</g>
		</g>
		<text transform="matrix(1 0 0 1 188.7344 126)" font-family="Verdana" font-size="10">15</text>
		<g>
			<g>
				<circle fill="none" stroke="#000" stroke-width="0.25" cx="226.589" cy="92.647" r="1.324"/>
				<circle fill="none" stroke="#000" stroke-width="0.25" cx="237.177" cy="111.176" r="1.323"/>
				<path d="M221.956,112.5c-0.593,0-1.133-0.401-1.283-1.003l-4.633-18.529c-0.178-0.709,0.255-1.428,0.963-1.605
					c0.706-0.181,1.427,0.253,1.604,0.963l4.634,18.529c0.177,0.709-0.255,1.428-0.964,1.604
					C222.17,112.487,222.062,112.5,221.956,112.5z"/>
				<path fill="none" stroke="#000" stroke-width="0.25" d="M226.588,95.029
					c-0.7,0-1.325-0.308-1.762-0.792l-2.323,9.297l1.364,5.457l3.527-14.112C227.142,94.971,226.873,95.029,226.588,95.029z"/>
				<path fill="none" stroke="#000" stroke-width="0.25" d="M232.507,110.855L228.5,94.83
					l-1.365,5.456l2.804,11.212c0.15,0.602,0.69,1.003,1.282,1.003c0.107,0,0.216-0.013,0.323-0.04
					C232.252,112.283,232.684,111.564,232.507,110.855z"/>
				<path fill="none" stroke="#000" stroke-width="0.25" d="M236.176,91.363
					c-0.711-0.181-1.429,0.253-1.606,0.963l-2.801,11.209l1.364,5.457l4.005-16.024C237.314,92.259,236.883,91.54,236.176,91.363z"
					/>
				<path d="M217.323,90.265c-0.618,0-1.171-0.435-1.297-1.064c-0.144-0.717,0.322-1.415,1.038-1.557l18.53-3.706
					c0.715-0.144,1.413,0.321,1.558,1.038c0.143,0.717-0.322,1.415-1.04,1.558l-18.528,3.706
					C217.496,90.257,217.409,90.265,217.323,90.265z"/>
				<path d="M217.064,82.828l9.342,1.869l6.748-1.35l-15.57-3.114c-0.715-0.144-1.414,0.321-1.558,1.039
					C215.883,81.988,216.349,82.686,217.064,82.828z"/>
				<path d="M226.771,80.991l9.341-1.87c0.718-0.142,1.183-0.84,1.04-1.557c-0.145-0.718-0.843-1.183-1.558-1.039
					l-15.57,3.115L226.771,80.991z"/>
			</g>
		</g>
		<text transform="matrix(1 0 0 1 220.2344 126)" font-family="Verdana" font-size="10">16</text>
		<g>
			<g>
				<circle cx="258.089" cy="92.647" r="1.324"/>
				<circle fill="none" stroke="#000" stroke-width="0.25" cx="268.677" cy="111.176" r="1.323"/>
				<path d="M253.456,112.5c-0.593,0-1.133-0.401-1.283-1.003l-4.633-18.529c-0.178-0.709,0.255-1.428,0.963-1.605
					c0.706-0.181,1.427,0.253,1.604,0.963l4.634,18.529c0.177,0.709-0.255,1.428-0.964,1.604
					C253.67,112.487,253.562,112.5,253.456,112.5z"/>
				<path d="M258.088,95.029c-0.7,0-1.325-0.308-1.762-0.792l-2.323,9.297l1.364,5.457l3.527-14.112
					C258.642,94.971,258.373,95.029,258.088,95.029z"/>
				<path fill="none" stroke="#000" stroke-width="0.25" d="M264.007,110.855L260,94.83
					l-1.365,5.456l2.804,11.212c0.15,0.602,0.69,1.003,1.282,1.003c0.107,0,0.216-0.013,0.323-0.04
					C263.752,112.283,264.184,111.564,264.007,110.855z"/>
				<path fill="none" stroke="#000" stroke-width="0.25" d="M267.676,91.363
					c-0.711-0.181-1.429,0.253-1.606,0.963l-2.801,11.209l1.364,5.457l4.005-16.024C268.814,92.259,268.383,91.54,267.676,91.363z"
					/>
				<path d="M248.823,90.265c-0.618,0-1.171-0.435-1.297-1.064c-0.144-0.717,0.322-1.415,1.038-1.557l18.53-3.706
					c0.715-0.144,1.413,0.321,1.558,1.038c0.143,0.717-0.322,1.415-1.04,1.558l-18.528,3.706
					C248.996,90.257,248.909,90.265,248.823,90.265z"/>
				<path d="M248.564,82.828l9.342,1.869l6.748-1.35l-15.57-3.114c-0.715-0.144-1.414,0.321-1.558,1.039
					C247.383,81.988,247.849,82.686,248.564,82.828z"/>
				<path d="M258.271,80.991l9.341-1.87c0.718-0.142,1.183-0.84,1.04-1.557c-0.145-0.718-0.843-1.183-1.558-1.039
					l-15.57,3.115L258.271,80.991z"/>
			</g>
		</g>
		<text transform="matrix(1 0 0 1 251.7344 126)" font-family="Verdana" font-size="10">17</text>
		<g>
			<g>
				<circle cx="289.589" cy="92.647" r="1.324"/>
				<circle fill="none" stroke="#000" stroke-width="0.25" cx="300.177" cy="111.176" r="1.323"/>
				<path d="M284.956,112.5c-0.593,0-1.133-0.401-1.283-1.003l-4.633-18.529c-0.178-0.709,0.255-1.428,0.963-1.605
					c0.706-0.181,1.427,0.253,1.604,0.963l4.634,18.529c0.177,0.709-0.255,1.428-0.964,1.604
					C285.17,112.487,285.062,112.5,284.956,112.5z"/>
				<path d="M289.588,95.029c-0.7,0-1.325-0.308-1.762-0.792l-2.323,9.297l1.364,5.457l3.527-14.112
					C290.142,94.971,289.873,95.029,289.588,95.029z"/>
				<path d="M295.507,110.855L291.5,94.83l-1.365,5.456l2.804,11.212c0.15,0.602,0.69,1.003,1.282,1.003
					c0.107,0,0.216-0.013,0.323-0.04C295.252,112.283,295.684,111.564,295.507,110.855z"/>
				<path fill="none" stroke="#000" stroke-width="0.25" d="M299.176,91.363
					c-0.711-0.181-1.429,0.253-1.606,0.963l-2.801,11.209l1.364,5.457l4.005-16.024C300.314,92.259,299.883,91.54,299.176,91.363z"
					/>
				<path d="M280.323,90.265c-0.618,0-1.171-0.435-1.297-1.064c-0.144-0.717,0.322-1.415,1.038-1.557l18.53-3.706
					c0.715-0.144,1.413,0.321,1.558,1.038c0.143,0.717-0.322,1.415-1.04,1.558l-18.528,3.706
					C280.496,90.257,280.409,90.265,280.323,90.265z"/>
				<path d="M280.064,82.828l9.342,1.869l6.748-1.35l-15.57-3.114c-0.715-0.144-1.414,0.321-1.558,1.039
					C278.883,81.988,279.349,82.686,280.064,82.828z"/>
				<path d="M289.771,80.991l9.341-1.87c0.718-0.142,1.183-0.84,1.04-1.557c-0.145-0.718-0.843-1.183-1.558-1.039
					l-15.57,3.115L289.771,80.991z"/>
			</g>
		</g>
		<text transform="matrix(1 0 0 1 283.2344 126)" font-family="Verdana" font-size="10">18</text>
		<g>
			<g>
				<circle cx="321.089" cy="92.647" r="1.324"/>
				<circle fill="none" stroke="#000" stroke-width="0.25" cx="331.677" cy="111.176" r="1.323"/>
				<path d="M316.456,112.5c-0.593,0-1.133-0.401-1.283-1.003l-4.633-18.529c-0.178-0.709,0.255-1.428,0.963-1.605
					c0.706-0.181,1.427,0.253,1.604,0.963l4.634,18.529c0.177,0.709-0.255,1.428-0.964,1.604
					C316.67,112.487,316.562,112.5,316.456,112.5z"/>
				<path d="M321.088,95.029c-0.7,0-1.325-0.308-1.762-0.792l-2.323,9.297l1.364,5.457l3.527-14.112
					C321.642,94.971,321.373,95.029,321.088,95.029z"/>
				<path d="M327.007,110.855L323,94.83l-1.365,5.456l2.804,11.212c0.15,0.602,0.69,1.003,1.282,1.003
					c0.107,0,0.216-0.013,0.323-0.04C326.752,112.283,327.184,111.564,327.007,110.855z"/>
				<path d="M330.676,91.363c-0.711-0.181-1.429,0.253-1.606,0.963l-2.801,11.209l1.364,5.457l4.005-16.024
					C331.814,92.259,331.383,91.54,330.676,91.363z"/>
				<path d="M311.823,90.265c-0.618,0-1.171-0.435-1.297-1.064c-0.144-0.717,0.322-1.415,1.038-1.557l18.53-3.706
					c0.715-0.144,1.413,0.321,1.558,1.038c0.143,0.717-0.322,1.415-1.04,1.558l-18.528,3.706
					C311.996,90.257,311.909,90.265,311.823,90.265z"/>
				<path d="M311.564,82.828l9.342,1.869l6.748-1.35l-15.57-3.114c-0.715-0.144-1.414,0.321-1.558,1.039
					C310.383,81.988,310.849,82.686,311.564,82.828z"/>
				<path d="M321.271,80.991l9.341-1.87c0.718-0.142,1.183-0.84,1.04-1.557c-0.145-0.718-0.843-1.183-1.558-1.039
					l-15.57,3.115L321.271,80.991z"/>
			</g>
		</g>
		<text transform="matrix(1 0 0 1 314.7344 126)" font-family="Verdana" font-size="10">19</text>
	</g>
	<g>
		<g>
			<g>
				<circle fill="none" stroke="#000" stroke-width="0.25" cx="37.589" cy="155.646" r="1.324"/>
				<circle fill="none" stroke="#000" stroke-width="0.25" cx="48.177" cy="174.176" r="1.323"/>
				<path fill="none" stroke="#000" stroke-width="0.25" d="M32.956,175.5
					c-0.593,0-1.133-0.401-1.283-1.003l-4.633-18.528c-0.178-0.709,0.254-1.429,0.963-1.605c0.706-0.181,1.427,0.254,1.605,0.963
					l4.633,18.529c0.177,0.709-0.255,1.428-0.963,1.604C33.17,175.487,33.062,175.5,32.956,175.5z"/>
				<path fill="none" stroke="#000" stroke-width="0.25" d="M37.588,158.029
					c-0.701,0-1.326-0.309-1.762-0.791l-2.324,9.297l1.364,5.457l3.527-14.112C38.142,157.971,37.873,158.029,37.588,158.029z"/>
				<path fill="none" stroke="#000" stroke-width="0.25" d="M43.507,173.855L39.5,157.83
					l-1.365,5.455l2.804,11.212c0.15,0.602,0.69,1.003,1.283,1.003c0.106,0,0.215-0.013,0.323-0.04
					C43.252,175.283,43.684,174.564,43.507,173.855z"/>
				<path fill="none" stroke="#000" stroke-width="0.25" d="M47.176,154.363
					c-0.711-0.181-1.429,0.254-1.606,0.963l-2.801,11.209l1.364,5.457l4.005-16.023C48.314,155.26,47.883,154.54,47.176,154.363z"/>
				<path fill="none" stroke="#000" stroke-width="0.25" d="M28.323,153.266
					c-0.618,0-1.171-0.436-1.297-1.064c-0.143-0.717,0.322-1.414,1.039-1.557l18.53-3.706c0.715-0.144,1.413,0.321,1.558,1.038
					c0.143,0.717-0.322,1.414-1.04,1.557l-18.528,3.707C28.497,153.258,28.409,153.266,28.323,153.266z"/>
				<path d="M28.065,145.828l9.341,1.868l6.749-1.351l-15.571-3.113c-0.715-0.145-1.414,0.32-1.558,1.039
					C26.883,144.988,27.349,145.686,28.065,145.828z"/>
				<path d="M37.771,143.991l9.341-1.87c0.718-0.142,1.183-0.84,1.04-1.557c-0.145-0.717-0.843-1.182-1.558-1.038
					l-15.57,3.115L37.771,143.991z"/>
			</g>
		</g>
		<text transform="matrix(1 0 0 1 31.2339 189)" font-family="Verdana" font-size="10">20</text>
		<g>
			<g>
				<circle fill="none" stroke="#000" stroke-width="0.25" cx="69.089" cy="155.646" r="1.324"/>
				<circle fill="none" stroke="#000" stroke-width="0.25" cx="79.677" cy="174.176" r="1.323"/>
				<path d="M64.456,175.5c-0.593,0-1.133-0.401-1.283-1.003l-4.633-18.528c-0.178-0.709,0.254-1.429,0.963-1.605
					c0.706-0.181,1.427,0.254,1.605,0.963l4.633,18.529c0.177,0.709-0.255,1.428-0.963,1.604
					C64.67,175.487,64.562,175.5,64.456,175.5z"/>
				<path fill="none" stroke="#000" stroke-width="0.25" d="M69.088,158.029
					c-0.7,0-1.325-0.309-1.761-0.791l-2.324,9.297l1.364,5.457l3.527-14.112C69.642,157.971,69.373,158.029,69.088,158.029z"/>
				<path fill="none" stroke="#000" stroke-width="0.25" d="M75.007,173.855L71,157.83
					l-1.365,5.455l2.804,11.212c0.15,0.602,0.69,1.003,1.282,1.003c0.107,0,0.216-0.013,0.323-0.04
					C74.752,175.283,75.184,174.564,75.007,173.855z"/>
				<path fill="none" stroke="#000" stroke-width="0.25" d="M78.676,154.363
					c-0.711-0.181-1.429,0.254-1.606,0.963l-2.801,11.209l1.364,5.457l4.005-16.023C79.814,155.26,79.383,154.54,78.676,154.363z"/>
				<path fill="none" stroke="#000" stroke-width="0.25" d="M59.823,153.266
					c-0.618,0-1.171-0.436-1.297-1.064c-0.143-0.717,0.322-1.414,1.039-1.557l18.53-3.706c0.715-0.144,1.413,0.321,1.558,1.038
					c0.143,0.717-0.322,1.414-1.04,1.557l-18.528,3.707C59.997,153.258,59.909,153.266,59.823,153.266z"/>
				<path d="M59.565,145.828l9.341,1.868l6.748-1.351l-15.57-3.113c-0.715-0.145-1.414,0.32-1.558,1.039
					C58.383,144.988,58.849,145.686,59.565,145.828z"/>
				<path d="M69.271,143.991l9.341-1.87c0.718-0.142,1.183-0.84,1.04-1.557c-0.145-0.717-0.843-1.182-1.558-1.038
					l-15.57,3.115L69.271,143.991z"/>
			</g>
		</g>
		<text transform="matrix(1 0 0 1 62.7339 189)" font-family="Verdana" font-size="10">21</text>
		<g>
			<g>
				<circle cx="100.589" cy="155.646" r="1.324"/>
				<circle fill="none" stroke="#000" stroke-width="0.25" cx="111.177" cy="174.176" r="1.323"/>
				<path d="M95.956,175.5c-0.593,0-1.133-0.401-1.283-1.003l-4.633-18.528c-0.178-0.709,0.254-1.429,0.963-1.605
					c0.706-0.181,1.427,0.254,1.604,0.963l4.634,18.529c0.177,0.709-0.255,1.428-0.964,1.604
					C96.17,175.487,96.062,175.5,95.956,175.5z"/>
				<path d="M100.588,158.029c-0.7,0-1.325-0.309-1.762-0.791l-2.323,9.297l1.364,5.457l3.527-14.112
					C101.142,157.971,100.873,158.029,100.588,158.029z"/>
				<path fill="none" stroke="#000" stroke-width="0.25" d="M106.507,173.855L102.5,157.83
					l-1.365,5.455l2.804,11.212c0.15,0.602,0.69,1.003,1.282,1.003c0.107,0,0.216-0.013,0.323-0.04
					C106.252,175.283,106.684,174.564,106.507,173.855z"/>
				<path fill="none" stroke="#000" stroke-width="0.25" d="M110.176,154.363
					c-0.711-0.181-1.429,0.254-1.606,0.963l-2.801,11.209l1.364,5.457l4.005-16.023C111.314,155.26,110.883,154.54,110.176,154.363z
					"/>
				<path fill="none" stroke="#000" stroke-width="0.25" d="M91.323,153.266
					c-0.618,0-1.171-0.436-1.297-1.064c-0.143-0.717,0.322-1.414,1.038-1.557l18.53-3.706c0.715-0.144,1.413,0.321,1.558,1.038
					c0.143,0.717-0.322,1.414-1.04,1.557l-18.528,3.707C91.496,153.258,91.409,153.266,91.323,153.266z"/>
				<path d="M91.064,145.828l9.342,1.868l6.748-1.351l-15.57-3.113c-0.715-0.145-1.414,0.32-1.558,1.039
					C89.883,144.988,90.349,145.686,91.064,145.828z"/>
				<path d="M100.771,143.991l9.341-1.87c0.718-0.142,1.183-0.84,1.04-1.557c-0.145-0.717-0.843-1.182-1.558-1.038
					l-15.57,3.115L100.771,143.991z"/>
			</g>
		</g>
		<text transform="matrix(1 0 0 1 94.2339 189)" font-family="Verdana" font-size="10">22</text>
		<g>
			<g>
				<circle cx="132.089" cy="155.646" r="1.324"/>
				<circle fill="none" stroke="#000" stroke-width="0.25" cx="142.677" cy="174.176" r="1.323"/>
				<path d="M127.456,175.5c-0.593,0-1.133-0.401-1.283-1.003l-4.633-18.528c-0.178-0.709,0.255-1.429,0.963-1.605
					c0.706-0.181,1.427,0.254,1.604,0.963l4.634,18.529c0.177,0.709-0.255,1.428-0.964,1.604
					C127.67,175.487,127.562,175.5,127.456,175.5z"/>
				<path d="M132.088,158.029c-0.7,0-1.325-0.309-1.762-0.791l-2.323,9.297l1.364,5.457l3.527-14.112
					C132.642,157.971,132.373,158.029,132.088,158.029z"/>
				<path d="M138.007,173.855L134,157.83l-1.365,5.455l2.804,11.212c0.15,0.602,0.69,1.003,1.282,1.003
					c0.107,0,0.216-0.013,0.323-0.04C137.752,175.283,138.184,174.564,138.007,173.855z"/>
				<path fill="none" stroke="#000" stroke-width="0.25" d="M141.676,154.363
					c-0.711-0.181-1.429,0.254-1.606,0.963l-2.801,11.209l1.364,5.457l4.005-16.023C142.814,155.26,142.383,154.54,141.676,154.363z
					"/>
				<path fill="none" stroke="#000" stroke-width="0.25" d="M122.823,153.266
					c-0.618,0-1.171-0.436-1.297-1.064c-0.144-0.717,0.322-1.414,1.038-1.557l18.53-3.706c0.715-0.144,1.413,0.321,1.558,1.038
					c0.143,0.717-0.322,1.414-1.04,1.557l-18.528,3.707C122.996,153.258,122.909,153.266,122.823,153.266z"/>
				<path d="M122.564,145.828l9.342,1.868l6.748-1.351l-15.57-3.113c-0.715-0.145-1.414,0.32-1.558,1.039
					C121.383,144.988,121.849,145.686,122.564,145.828z"/>
				<path d="M132.271,143.991l9.341-1.87c0.718-0.142,1.183-0.84,1.04-1.557c-0.145-0.717-0.843-1.182-1.558-1.038
					l-15.57,3.115L132.271,143.991z"/>
			</g>
		</g>
		<text transform="matrix(1 0 0 1 125.7344 189)" font-family="Verdana" font-size="10">23</text>
		<g>
			<g>
				<circle cx="163.589" cy="155.646" r="1.324"/>
				<circle fill="none" stroke="#000" stroke-width="0.25" cx="174.177" cy="174.176" r="1.323"/>
				<path d="M158.956,175.5c-0.593,0-1.133-0.401-1.283-1.003l-4.633-18.528c-0.178-0.709,0.255-1.429,0.963-1.605
					c0.706-0.181,1.427,0.254,1.604,0.963l4.634,18.529c0.177,0.709-0.255,1.428-0.964,1.604
					C159.17,175.487,159.062,175.5,158.956,175.5z"/>
				<path d="M163.588,158.029c-0.7,0-1.325-0.309-1.762-0.791l-2.323,9.297l1.364,5.457l3.527-14.112
					C164.142,157.971,163.873,158.029,163.588,158.029z"/>
				<path d="M169.507,173.855L165.5,157.83l-1.365,5.455l2.804,11.212c0.15,0.602,0.69,1.003,1.282,1.003
					c0.107,0,0.216-0.013,0.323-0.04C169.252,175.283,169.684,174.564,169.507,173.855z"/>
				<path d="M173.176,154.363c-0.711-0.181-1.429,0.254-1.606,0.963l-2.801,11.209l1.364,5.457l4.005-16.023
					C174.314,155.26,173.883,154.54,173.176,154.363z"/>
				<path fill="none" stroke="#000" stroke-width="0.25" d="M154.323,153.266
					c-0.618,0-1.171-0.436-1.297-1.064c-0.144-0.717,0.322-1.414,1.038-1.557l18.53-3.706c0.715-0.144,1.413,0.321,1.558,1.038
					c0.143,0.717-0.322,1.414-1.04,1.557l-18.528,3.707C154.496,153.258,154.409,153.266,154.323,153.266z"/>
				<path d="M154.064,145.828l9.342,1.868l6.748-1.351l-15.57-3.113c-0.715-0.145-1.414,0.32-1.558,1.039
					C152.883,144.988,153.349,145.686,154.064,145.828z"/>
				<path d="M163.771,143.991l9.341-1.87c0.718-0.142,1.183-0.84,1.04-1.557c-0.145-0.717-0.843-1.182-1.558-1.038
					l-15.57,3.115L163.771,143.991z"/>
			</g>
		</g>
		<text transform="matrix(1 0 0 1 157.2344 189)" font-family="Verdana" font-size="10">24</text>
		<g>
			<g>
				<circle fill="none" stroke="#000" stroke-width="0.25" cx="195.089" cy="155.646" r="1.324"/>
				<circle fill="none" stroke="#000" stroke-width="0.25" cx="205.677" cy="174.176" r="1.323"/>
				<path fill="none" stroke="#000" stroke-width="0.25" d="M190.456,175.5
					c-0.593,0-1.133-0.401-1.283-1.003l-4.633-18.528c-0.178-0.709,0.255-1.429,0.963-1.605c0.706-0.181,1.427,0.254,1.604,0.963
					l4.634,18.529c0.177,0.709-0.255,1.428-0.964,1.604C190.67,175.487,190.562,175.5,190.456,175.5z"/>
				<path fill="none" stroke="#000" stroke-width="0.25" d="M195.088,158.029
					c-0.7,0-1.325-0.309-1.762-0.791l-2.323,9.297l1.364,5.457l3.527-14.112C195.642,157.971,195.373,158.029,195.088,158.029z"/>
				<path fill="none" stroke="#000" stroke-width="0.25" d="M201.007,173.855L197,157.83
					l-1.365,5.455l2.804,11.212c0.15,0.602,0.69,1.003,1.282,1.003c0.107,0,0.216-0.013,0.323-0.04
					C200.752,175.283,201.184,174.564,201.007,173.855z"/>
				<path fill="none" stroke="#000" stroke-width="0.25" d="M204.676,154.363
					c-0.711-0.181-1.429,0.254-1.606,0.963l-2.801,11.209l1.364,5.457l4.005-16.023C205.814,155.26,205.383,154.54,204.676,154.363z
					"/>
				<path d="M185.823,153.266c-0.618,0-1.171-0.436-1.297-1.064c-0.144-0.717,0.322-1.414,1.038-1.557l18.53-3.706
					c0.715-0.144,1.413,0.321,1.558,1.038c0.143,0.717-0.322,1.414-1.04,1.557l-18.528,3.707
					C185.996,153.258,185.909,153.266,185.823,153.266z"/>
				<path fill="none" stroke="#000" stroke-width="0.25" d="M185.564,145.828l9.342,1.868
					l6.748-1.351l-15.57-3.113c-0.715-0.145-1.414,0.32-1.558,1.039C184.383,144.988,184.849,145.686,185.564,145.828z"/>
				<path d="M195.271,143.991l9.341-1.87c0.718-0.142,1.183-0.84,1.04-1.557c-0.145-0.717-0.843-1.182-1.558-1.038
					l-15.57,3.115L195.271,143.991z"/>
			</g>
		</g>
		<text transform="matrix(1 0 0 1 188.7344 189)" font-family="Verdana" font-size="10">25</text>
		<g>
			<g>
				<circle fill="none" stroke="#000" stroke-width="0.25" cx="226.589" cy="155.646" r="1.324"/>
				<circle fill="none" stroke="#000" stroke-width="0.25" cx="237.177" cy="174.176" r="1.323"/>
				<path d="M221.956,175.5c-0.593,0-1.133-0.401-1.283-1.003l-4.633-18.528c-0.178-0.709,0.255-1.429,0.963-1.605
					c0.706-0.181,1.427,0.254,1.604,0.963l4.634,18.529c0.177,0.709-0.255,1.428-0.964,1.604
					C222.17,175.487,222.062,175.5,221.956,175.5z"/>
				<path fill="none" stroke="#000" stroke-width="0.25" d="M226.588,158.029
					c-0.7,0-1.325-0.309-1.762-0.791l-2.323,9.297l1.364,5.457l3.527-14.112C227.142,157.971,226.873,158.029,226.588,158.029z"/>
				<path fill="none" stroke="#000" stroke-width="0.25" d="M232.507,173.855L228.5,157.83
					l-1.365,5.455l2.804,11.212c0.15,0.602,0.69,1.003,1.282,1.003c0.107,0,0.216-0.013,0.323-0.04
					C232.252,175.283,232.684,174.564,232.507,173.855z"/>
				<path fill="none" stroke="#000" stroke-width="0.25" d="M236.176,154.363
					c-0.711-0.181-1.429,0.254-1.606,0.963l-2.801,11.209l1.364,5.457l4.005-16.023C237.314,155.26,236.883,154.54,236.176,154.363z
					"/>
				<path d="M217.323,153.266c-0.618,0-1.171-0.436-1.297-1.064c-0.144-0.717,0.322-1.414,1.038-1.557l18.53-3.706
					c0.715-0.144,1.413,0.321,1.558,1.038c0.143,0.717-0.322,1.414-1.04,1.557l-18.528,3.707
					C217.496,153.258,217.409,153.266,217.323,153.266z"/>
				<path fill="none" stroke="#000" stroke-width="0.25" d="M217.064,145.828l9.342,1.868
					l6.748-1.351l-15.57-3.113c-0.715-0.145-1.414,0.32-1.558,1.039C215.883,144.988,216.349,145.686,217.064,145.828z"/>
				<path d="M226.771,143.991l9.341-1.87c0.718-0.142,1.183-0.84,1.04-1.557c-0.145-0.717-0.843-1.182-1.558-1.038
					l-15.57,3.115L226.771,143.991z"/>
			</g>
		</g>
		<text transform="matrix(1 0 0 1 220.2344 189)" font-family="Verdana" font-size="10">26</text>
		<g>
			<g>
				<circle cx="258.089" cy="155.646" r="1.324"/>
				<circle fill="none" stroke="#000" stroke-width="0.25" cx="268.677" cy="174.176" r="1.323"/>
				<path d="M253.456,175.5c-0.593,0-1.133-0.401-1.283-1.003l-4.633-18.528c-0.178-0.709,0.255-1.429,0.963-1.605
					c0.706-0.181,1.427,0.254,1.604,0.963l4.634,18.529c0.177,0.709-0.255,1.428-0.964,1.604
					C253.67,175.487,253.562,175.5,253.456,175.5z"/>
				<path d="M258.088,158.029c-0.7,0-1.325-0.309-1.762-0.791l-2.323,9.297l1.364,5.457l3.527-14.112
					C258.642,157.971,258.373,158.029,258.088,158.029z"/>
				<path fill="none" stroke="#000" stroke-width="0.25" d="M264.007,173.855L260,157.83
					l-1.365,5.455l2.804,11.212c0.15,0.602,0.69,1.003,1.282,1.003c0.107,0,0.216-0.013,0.323-0.04
					C263.752,175.283,264.184,174.564,264.007,173.855z"/>
				<path fill="none" stroke="#000" stroke-width="0.25" d="M267.676,154.363
					c-0.711-0.181-1.429,0.254-1.606,0.963l-2.801,11.209l1.364,5.457l4.005-16.023C268.814,155.26,268.383,154.54,267.676,154.363z
					"/>
				<path d="M248.823,153.266c-0.618,0-1.171-0.436-1.297-1.064c-0.144-0.717,0.322-1.414,1.038-1.557l18.53-3.706
					c0.715-0.144,1.413,0.321,1.558,1.038c0.143,0.717-0.322,1.414-1.04,1.557l-18.528,3.707
					C248.996,153.258,248.909,153.266,248.823,153.266z"/>
				<path fill="none" stroke="#000" stroke-width="0.25" d="M248.564,145.828l9.342,1.868
					l6.748-1.351l-15.57-3.113c-0.715-0.145-1.414,0.32-1.558,1.039C247.383,144.988,247.849,145.686,248.564,145.828z"/>
				<path d="M258.271,143.991l9.341-1.87c0.718-0.142,1.183-0.84,1.04-1.557c-0.145-0.717-0.843-1.182-1.558-1.038
					l-15.57,3.115L258.271,143.991z"/>
			</g>
		</g>
		<text transform="matrix(1 0 0 1 251.7344 189)" font-family="Verdana" font-size="10">27</text>
		<g>
			<g>
				<circle cx="289.589" cy="155.646" r="1.324"/>
				<circle fill="none" stroke="#000" stroke-width="0.25" cx="300.177" cy="174.176" r="1.323"/>
				<path d="M284.956,175.5c-0.593,0-1.133-0.401-1.283-1.003l-4.633-18.528c-0.178-0.709,0.255-1.429,0.963-1.605
					c0.706-0.181,1.427,0.254,1.604,0.963l4.634,18.529c0.177,0.709-0.255,1.428-0.964,1.604
					C285.17,175.487,285.062,175.5,284.956,175.5z"/>
				<path d="M289.588,158.029c-0.7,0-1.325-0.309-1.762-0.791l-2.323,9.297l1.364,5.457l3.527-14.112
					C290.142,157.971,289.873,158.029,289.588,158.029z"/>
				<path d="M295.507,173.855L291.5,157.83l-1.365,5.455l2.804,11.212c0.15,0.602,0.69,1.003,1.282,1.003
					c0.107,0,0.216-0.013,0.323-0.04C295.252,175.283,295.684,174.564,295.507,173.855z"/>
				<path fill="none" stroke="#000" stroke-width="0.25" d="M299.176,154.363
					c-0.711-0.181-1.429,0.254-1.606,0.963l-2.801,11.209l1.364,5.457l4.005-16.023C300.314,155.26,299.883,154.54,299.176,154.363z
					"/>
				<path d="M280.323,153.266c-0.618,0-1.171-0.436-1.297-1.064c-0.144-0.717,0.322-1.414,1.038-1.557l18.53-3.706
					c0.715-0.144,1.413,0.321,1.558,1.038c0.143,0.717-0.322,1.414-1.04,1.557l-18.528,3.707
					C280.496,153.258,280.409,153.266,280.323,153.266z"/>
				<path fill="none" stroke="#000" stroke-width="0.25" d="M280.064,145.828l9.342,1.868
					l6.748-1.351l-15.57-3.113c-0.715-0.145-1.414,0.32-1.558,1.039C278.883,144.988,279.349,145.686,280.064,145.828z"/>
				<path d="M289.771,143.991l9.341-1.87c0.718-0.142,1.183-0.84,1.04-1.557c-0.145-0.717-0.843-1.182-1.558-1.038
					l-15.57,3.115L289.771,143.991z"/>
			</g>
		</g>
		<text transform="matrix(1 0 0 1 283.2344 189)" font-family="Verdana" font-size="10">28</text>
		<g>
			<g>
				<circle cx="321.089" cy="155.646" r="1.324"/>
				<circle fill="none" stroke="#000" stroke-width="0.25" cx="331.677" cy="174.176" r="1.323"/>
				<path d="M316.456,175.5c-0.593,0-1.133-0.401-1.283-1.003l-4.633-18.528c-0.178-0.709,0.255-1.429,0.963-1.605
					c0.706-0.181,1.427,0.254,1.604,0.963l4.634,18.529c0.177,0.709-0.255,1.428-0.964,1.604
					C316.67,175.487,316.562,175.5,316.456,175.5z"/>
				<path d="M321.088,158.029c-0.7,0-1.325-0.309-1.762-0.791l-2.323,9.297l1.364,5.457l3.527-14.112
					C321.642,157.971,321.373,158.029,321.088,158.029z"/>
				<path d="M327.007,173.855L323,157.83l-1.365,5.455l2.804,11.212c0.15,0.602,0.69,1.003,1.282,1.003
					c0.107,0,0.216-0.013,0.323-0.04C326.752,175.283,327.184,174.564,327.007,173.855z"/>
				<path d="M330.676,154.363c-0.711-0.181-1.429,0.254-1.606,0.963l-2.801,11.209l1.364,5.457l4.005-16.023
					C331.814,155.26,331.383,154.54,330.676,154.363z"/>
				<path d="M311.823,153.266c-0.618,0-1.171-0.436-1.297-1.064c-0.144-0.717,0.322-1.414,1.038-1.557l18.53-3.706
					c0.715-0.144,1.413,0.321,1.558,1.038c0.143,0.717-0.322,1.414-1.04,1.557l-18.528,3.707
					C311.996,153.258,311.909,153.266,311.823,153.266z"/>
				<path fill="none" stroke="#000" stroke-width="0.25" d="M311.564,145.828l9.342,1.868
					l6.748-1.351l-15.57-3.113c-0.715-0.145-1.414,0.32-1.558,1.039C310.383,144.988,310.849,145.686,311.564,145.828z"/>
				<path d="M321.271,143.991l9.341-1.87c0.718-0.142,1.183-0.84,1.04-1.557c-0.145-0.717-0.843-1.182-1.558-1.038
					l-15.57,3.115L321.271,143.991z"/>
			</g>
		</g>
		<text transform="matrix(1 0 0 1 314.7344 189)" font-family="Verdana" font-size="10">29</text>
	</g>
</g>
<rect x="22.5" y="9" fill="none" stroke="#000" width="315" height="121.5"/>
<rect x="22.5" y="135" fill="none" stroke="#000" width="315" height="58.5"/>
<text transform="matrix(0 -1 1 0 18.0005 60.0527)" font-family="Verdana" font-size="10">In-Range</text>
<text transform="matrix(0 -1 1 0 18.0005 184.0264)" font-family="Verdana" font-size="10">Overflow</text>
</svg>
