<?xml version="1.0" encoding="utf-8"?>
<!-- Generator: Adobe Illustrator 16.0.0, SVG Export Plug-In . SVG Version: 6.00 Build 0)  -->
<!DOCTYPE svg PUBLIC "-//W3C//DTD SVG 1.1//EN" "http://www.w3.org/Graphics/SVG/1.1/DTD/svg11.dtd">
<svg version="1.1" id="Layer_1" xmlns="http://www.w3.org/2000/svg" xmlns:xlink="http://www.w3.org/1999/xlink" x="0px" y="0px"
	 width="144px" height="180px" viewBox="0 0 72 90" enable-background="new 0 0 72 90" xml:space="preserve">
<g>
	<g>
		<circle cx="36" cy="40.5" r="2.268"/>
		<circle cx="54.142" cy="72.247" r="2.267"/>
		<path id="s1_5_" d="M28.063,74.516c-1.016,0-1.941-0.688-2.199-1.719L17.926,41.05c-0.305-1.215,0.436-2.447,1.65-2.75
			c1.209-0.309,2.445,0.435,2.75,1.65l7.938,31.747c0.305,1.216-0.436,2.447-1.65,2.75C28.43,74.494,28.243,74.516,28.063,74.516z"
			/>
		<path id="s2_5_" d="M36,44.582c-1.202,0-2.272-0.528-3.02-1.356L29,59.156l2.337,9.351l6.044-24.182
			C36.947,44.481,36.486,44.582,36,44.582z"/>
		<path id="s3_5_" d="M46.141,71.697l-6.867-27.458l-2.338,9.349l4.805,19.209c0.256,1.031,1.182,1.719,2.197,1.719
			c0.182,0,0.368-0.021,0.553-0.068C45.704,74.145,46.443,72.913,46.141,71.697z"/>
		<path id="s4_5_" d="M52.424,38.3c-1.215-0.309-2.446,0.435-2.75,1.65l-4.799,19.206l2.337,9.351l6.862-27.457
			C54.377,39.835,53.639,38.604,52.424,38.3z"/>
		<path id="s5_5_" d="M20.125,36.419c-1.061,0-2.007-0.745-2.223-1.823c-0.245-1.228,0.552-2.423,1.779-2.667l31.749-6.35
			c1.226-0.247,2.422,0.55,2.667,1.778c0.246,1.229-0.551,2.424-1.779,2.669l-31.747,6.35
			C20.422,36.405,20.271,36.419,20.125,36.419z"/>
		<path id="s10_5_" d="M19.682,23.675l16.006,3.202l11.563-2.313l-26.679-5.336c-1.226-0.247-2.422,0.55-2.669,1.78
			C17.657,22.236,18.454,23.432,19.682,23.675z"/>
		<path id="s15_8_" d="M36.313,20.528l16.005-3.203c1.229-0.244,2.025-1.439,1.779-2.667c-0.245-1.229-1.441-2.026-2.667-1.78
			l-26.679,5.337L36.313,20.528z"/>
	</g>
	<text transform="matrix(1 0 0 1 13.1865 49.5713)" font-family="Verdana" font-size="8">a</text>
	<text transform="matrix(1 0 0 1 26.7046 49.5713)" font-family="Verdana" font-size="8">b</text>
	<text transform="matrix(1 0 0 1 38.4487 40.5)" font-family="Verdana" font-size="8">c</text>
	<text transform="matrix(1 0 0 1 40.3091 49.5732)" font-family="Verdana" font-size="8">d</text>
	<text transform="matrix(1 0 0 1 54.0249 49.5732)" font-family="Verdana" font-size="8">e</text>
	<text transform="matrix(1 0 0 1 11.9155 35.9648)" font-family="Verdana" font-size="8">f</text>
	<text transform="matrix(1 0 0 1 10.8276 24.6279)" font-family="Verdana" font-size="8">g</text>
	<text transform="matrix(1 0 0 1 56.1436 17.8232)" font-family="Verdana" font-size="8">h</text>
	<text transform="matrix(1 0 0 1 49.1543 81.3184)" font-family="Verdana" font-size="8">dp</text>
</g>
</svg>
