<?xml version="1.0" encoding="utf-8"?>
<!-- Generator: Adobe Illustrator 16.0.0, SVG Export Plug-In . SVG Version: 6.00 Build 0)  -->
<!DOCTYPE svg PUBLIC "-//W3C//DTD SVG 1.1//EN" "http://www.w3.org/Graphics/SVG/1.1/DTD/svg11.dtd">
<svg version="1.1" id="Layer_1" xmlns="http://www.w3.org/2000/svg" xmlns:xlink="http://www.w3.org/1999/xlink" x="0px" y="0px"
	 width="612px" height="432px" viewBox="0 0 306 216" enable-background="new 0 0 306 216" xml:space="preserve">
<g>
	<g>
		<g>
			<path fill="#999" d="M187.913,34.121h5.149l0.851,0.99l-1.129,0.99h-5.149l-0.852-0.99L187.913,34.121z"/>
			<path fill="#999" d="M205.186,36.498l-0.445,3.17l-1.13,0.99l-0.851-0.99l0.445-3.17l1.129-0.99L205.186,36.498z"/>
			<path fill="#999" d="M240.253,46.005h5.149l0.851,0.99l-1.129,0.99h-5.149l-0.852-0.99L240.253,46.005z"/>
		</g>
		<g>
			<path d="M78.329,42.439l-0.446,3.17l-1.129,0.99l-0.852-0.99l0.446-3.17l1.129-0.99L78.329,42.439z M79.164,36.498l-0.445,3.17
				l-1.13,0.99l-0.851-0.99l0.445-3.17l1.129-0.99L79.164,36.498z M78.225,46.005h5.149l0.851,0.99l-1.129,0.99h-5.15l-0.851-0.99
				L78.225,46.005z M79.895,34.121h5.149l0.851,0.99l-1.129,0.99h-5.149l-0.852-0.99L79.895,34.121z M86.252,42.439l-0.445,3.17
				l-1.131,0.99l-0.851-0.99l0.445-3.17l1.129-0.99L86.252,42.439z M87.087,36.498l-0.445,3.17l-1.131,0.99l-0.851-0.99l0.445-3.17
				l1.129-0.99L87.087,36.498z"/>
			<path d="M104.255,42.439l-0.445,3.17l-1.131,0.99l-0.851-0.99l0.445-3.17l1.129-0.99L104.255,42.439z M105.09,36.498l-0.445,3.17
				l-1.131,0.99l-0.851-0.99l0.445-3.17l1.129-0.99L105.09,36.498z"/>
			<path d="M114.335,42.439l-0.445,3.17l-1.13,0.99l-0.851-0.99l0.445-3.17l1.129-0.99L114.335,42.439z M114.23,46.005h5.149
				l0.851,0.99l-1.129,0.99h-5.149l-0.852-0.99L114.23,46.005z M115.065,40.063h5.149l0.851,0.99l-1.129,0.99h-5.149l-0.852-0.99
				L115.065,40.063z M115.9,34.121h5.149l0.851,0.99l-1.129,0.99h-5.149l-0.852-0.99L115.9,34.121z M123.093,36.498l-0.445,3.17
				l-1.131,0.99l-0.851-0.99l0.445-3.17l1.129-0.99L123.093,36.498z"/>
			<path d="M132.234,46.005h5.149l0.851,0.99l-1.129,0.99h-5.149l-0.852-0.99L132.234,46.005z M133.069,40.063h5.149l0.851,0.99
				l-1.129,0.99h-5.149l-0.852-0.99L133.069,40.063z M133.904,34.121h5.149l0.851,0.99l-1.129,0.99h-5.149l-0.852-0.99
				L133.904,34.121z M140.262,42.439l-0.445,3.17l-1.131,0.99l-0.851-0.99l0.445-3.17l1.129-0.99L140.262,42.439z M141.097,36.498
				l-0.445,3.17l-1.131,0.99l-0.851-0.99l0.445-3.17l1.129-0.99L141.097,36.498z"/>
			<path d="M151.177,36.498l-0.445,3.17l-1.13,0.99l-0.851-0.99l0.445-3.17l1.129-0.99L151.177,36.498z M151.072,40.063h5.149
				l0.851,0.99l-1.129,0.99h-5.149l-0.852-0.99L151.072,40.063z M158.265,42.439l-0.445,3.17l-1.131,0.99l-0.851-0.99l0.445-3.17
				l1.129-0.99L158.265,42.439z M159.1,36.498l-0.445,3.17l-1.131,0.99l-0.851-0.99l0.445-3.17l1.129-0.99L159.1,36.498z"/>
			<path d="M169.18,36.498l-0.445,3.17l-1.13,0.99l-0.851-0.99l0.445-3.17l1.129-0.99L169.18,36.498z M168.24,46.005h5.149
				l0.851,0.99l-1.129,0.99h-5.149l-0.852-0.99L168.24,46.005z M169.075,40.063h5.149l0.851,0.99l-1.129,0.99h-5.149l-0.852-0.99
				L169.075,40.063z M169.91,34.121h5.149l0.851,0.99l-1.129,0.99h-5.149l-0.852-0.99L169.91,34.121z M176.268,42.439l-0.445,3.17
				l-1.131,0.99l-0.851-0.99l0.445-3.17l1.129-0.99L176.268,42.439z"/>
			<path d="M186.348,42.439l-0.445,3.17l-1.13,0.99l-0.851-0.99l0.445-3.17l1.129-0.99L186.348,42.439z M187.183,36.498l-0.445,3.17
				l-1.13,0.99l-0.851-0.99l0.445-3.17l1.129-0.99L187.183,36.498z M186.243,46.005h5.149l0.851,0.99l-1.129,0.99h-5.149
				l-0.852-0.99L186.243,46.005z M187.078,40.063h5.149l0.851,0.99l-1.129,0.99H186.8l-0.852-0.99L187.078,40.063z M194.271,42.439
				l-0.445,3.17l-1.131,0.99l-0.851-0.99l0.445-3.17l1.129-0.99L194.271,42.439z"/>
			<path d="M205.916,34.121h5.149l0.851,0.99l-1.129,0.99h-5.149l-0.852-0.99L205.916,34.121z M212.273,42.439l-0.445,3.17
				l-1.131,0.99l-0.851-0.99l0.445-3.17l1.129-0.99L212.273,42.439z M213.108,36.498l-0.445,3.17l-1.131,0.99l-0.851-0.99
				l0.445-3.17l1.129-0.99L213.108,36.498z"/>
			<path d="M222.354,42.439l-0.445,3.17l-1.13,0.99l-0.851-0.99l0.445-3.17l1.129-0.99L222.354,42.439z M223.188,36.498l-0.445,3.17
				l-1.13,0.99l-0.851-0.99l0.445-3.17l1.129-0.99L223.188,36.498z M222.249,46.005h5.149l0.851,0.99l-1.129,0.99h-5.149
				l-0.852-0.99L222.249,46.005z M223.084,40.063h5.149l0.851,0.99l-1.129,0.99h-5.149l-0.852-0.99L223.084,40.063z M223.919,34.121
				h5.149l0.851,0.99l-1.129,0.99h-5.149l-0.852-0.99L223.919,34.121z M230.276,42.439l-0.445,3.17L228.7,46.6l-0.851-0.99
				l0.445-3.17l1.129-0.99L230.276,42.439z M231.111,36.498l-0.445,3.17l-1.131,0.99l-0.851-0.99l0.445-3.17l1.129-0.99
				L231.111,36.498z"/>
			<path d="M241.192,36.498l-0.445,3.17l-1.13,0.99l-0.851-0.99l0.445-3.17l1.129-0.99L241.192,36.498z M241.088,40.063h5.149
				l0.851,0.99l-1.129,0.99h-5.149l-0.852-0.99L241.088,40.063z M241.923,34.121h5.149l0.851,0.99l-1.129,0.99h-5.149l-0.852-0.99
				L241.923,34.121z M248.28,42.439l-0.445,3.17l-1.131,0.99l-0.851-0.99l0.445-3.17l1.129-0.99L248.28,42.439z M249.115,36.498
				l-0.445,3.17l-1.131,0.99l-0.851-0.99l0.445-3.17l1.129-0.99L249.115,36.498z"/>
		</g>
	</g>
	<rect x="72" y="27" fill="none" stroke="#000" width="18" height="27"/>
	<rect x="90" y="27" fill="none" stroke="#000" width="18" height="27"/>
	<rect x="108" y="27" fill="none" stroke="#000" width="18" height="27"/>
	<rect x="126" y="27" fill="none" stroke="#000" width="18" height="27"/>
	<rect x="144" y="27" fill="none" stroke="#000" width="18" height="27"/>
	<rect x="162" y="27" fill="none" stroke="#000" width="18" height="27"/>
	<rect x="180" y="27" fill="none" stroke="#000" width="18" height="27"/>
	<rect x="198" y="27" fill="none" stroke="#000" width="18" height="27"/>
	<rect x="216" y="27" fill="none" stroke="#000" width="18" height="27"/>
	<rect x="234" y="27" fill="none" stroke="#000" width="18" height="27"/>
	<text transform="matrix(0.95 0 0 1 73.0371 22.5)" font-family="Verdana" font-size="6.55">0000 0001 0010 0011 0100 0101 0110 0111 1000 1001</text>
</g>
<g>
	<g>
		<g>
			<path d="M186.225,109.006h5.149l0.851,0.99l-1.129,0.99h-5.149l-0.851-0.99L186.225,109.006z"/>
			<path d="M204.228,109.006h5.149l0.851,0.99l-1.129,0.99h-5.149l-0.852-0.99L204.228,109.006z M205.063,103.063h5.149l0.851,0.99
				l-1.129,0.99h-5.149l-0.851-0.99L205.063,103.063z"/>
			<path d="M222.23,109.006h5.149l0.851,0.99l-1.129,0.99h-5.149l-0.852-0.99L222.23,109.006z M223.065,103.063h5.149l0.852,0.99
				l-1.13,0.99h-5.149l-0.852-0.99L223.065,103.063z M223.9,97.122h5.149l0.851,0.99l-1.129,0.99h-5.149l-0.851-0.99L223.9,97.122z"
				/>
			<path d="M241.069,103.063h5.149l0.852,0.99l-1.13,0.99h-5.149l-0.852-0.99L241.069,103.063z M241.904,97.122h5.149l0.851,0.99
				l-1.129,0.99h-5.149l-0.851-0.99L241.904,97.122z"/>
			<path d="M259.907,97.122h5.149l0.852,0.99l-1.13,0.99h-5.149l-0.852-0.99L259.907,97.122z"/>
		</g>
		<g>
			<path d="M187.059,130.063h5.15l0.851,0.99l-1.13,0.99h-5.148l-0.852-0.99L187.059,130.063z"/>
			<path d="M204.332,132.44l-0.445,3.168l-1.13,0.99l-0.851-0.99l0.445-3.168l1.129-0.99L204.332,132.44z M205.166,126.498
				l-0.444,3.169l-1.13,0.99l-0.851-0.99l0.444-3.169l1.13-0.99L205.166,126.498z M204.227,136.005h5.15l0.851,0.99l-1.129,0.99
				h-5.149l-0.852-0.99L204.227,136.005z"/>
			<path d="M222.335,132.44l-0.445,3.168l-1.13,0.99l-0.851-0.99l0.445-3.168l1.129-0.99L222.335,132.44z M223.17,126.498
				l-0.445,3.169l-1.13,0.99l-0.851-0.99l0.445-3.169l1.129-0.99L223.17,126.498z M222.23,136.005h5.149l0.851,0.99l-1.129,0.99
				h-5.149l-0.852-0.99L222.23,136.005z M223.9,124.121h5.149l0.851,0.99l-1.129,0.99h-5.149l-0.852-0.99L223.9,124.121z"/>
			<path d="M240.339,132.44l-0.445,3.168l-1.13,0.99l-0.851-0.99l0.445-3.168l1.129-0.99L240.339,132.44z M241.174,126.498
				l-0.445,3.169l-1.13,0.99l-0.851-0.99l0.445-3.169l1.129-0.99L241.174,126.498z M241.904,124.121h5.149l0.851,0.99l-1.129,0.99
				h-5.149l-0.852-0.99L241.904,124.121z"/>
			<path d="M258.342,132.44l-0.445,3.168l-1.13,0.99l-0.851-0.99l0.445-3.168l1.129-0.99L258.342,132.44z M259.177,126.498
				l-0.445,3.169l-1.13,0.99l-0.851-0.99l0.445-3.169l1.129-0.99L259.177,126.498z M258.237,136.005h5.149l0.851,0.99l-1.129,0.99
				h-5.149l-0.852-0.99L258.237,136.005z M259.072,130.063h5.149l0.851,0.99l-1.129,0.99h-5.149l-0.852-0.99L259.072,130.063z
				 M259.907,124.121h5.149l0.851,0.99l-1.129,0.99h-5.149l-0.852-0.99L259.907,124.121z"/>
		</g>
		<g>
			<path d="M187.059,157.063h5.149l0.852,0.99l-1.13,0.99h-5.149l-0.851-0.99L187.059,157.063z"/>
			<path d="M204.331,159.439l-0.445,3.169l-1.129,0.991l-0.852-0.991l0.445-3.169l1.13-0.99L204.331,159.439z M205.166,153.498
				l-0.445,3.169l-1.129,0.99l-0.852-0.99l0.445-3.169l1.13-0.99L205.166,153.498z M204.227,163.004h5.149l0.852,0.991l-1.13,0.99
				h-5.149l-0.851-0.99L204.227,163.004z M205.062,157.063h5.149l0.852,0.99l-1.13,0.99h-5.149l-0.851-0.99L205.062,157.063z
				 M205.896,151.121h5.149l0.852,0.99l-1.13,0.99h-5.149l-0.851-0.99L205.896,151.121z"/>
			<path d="M222.334,159.439l-0.445,3.169l-1.129,0.991l-0.852-0.991l0.445-3.169l1.13-0.99L222.334,159.439z M223.169,153.498
				l-0.445,3.169l-1.129,0.99l-0.852-0.99l0.445-3.169l1.13-0.99L223.169,153.498z M223.064,157.063h5.149l0.852,0.99l-1.13,0.99
				h-5.149l-0.851-0.99L223.064,157.063z M230.257,159.439l-0.445,3.169l-1.13,0.991l-0.852-0.991l0.445-3.169l1.13-0.99
				L230.257,159.439z M231.092,153.498l-0.445,3.169l-1.13,0.99l-0.852-0.99l0.445-3.169l1.13-0.99L231.092,153.498z"/>
			<path d="M240.338,159.439l-0.445,3.169l-1.129,0.991l-0.852-0.991l0.445-3.169l1.13-0.99L240.338,159.439z M241.173,153.498
				l-0.445,3.169l-1.129,0.99l-0.852-0.99l0.445-3.169l1.13-0.99L241.173,153.498z M240.233,163.004h5.149l0.852,0.991l-1.13,0.99
				h-5.149l-0.851-0.99L240.233,163.004z"/>
			<path d="M258.341,159.439l-0.445,3.169l-1.129,0.991l-0.852-0.991l0.445-3.169l1.13-0.99L258.341,159.439z M259.176,153.498
				l-0.445,3.169l-1.129,0.99l-0.852-0.99l0.445-3.169l1.13-0.99L259.176,153.498z M259.071,157.063h5.149l0.852,0.99l-1.13,0.99
				h-5.149l-0.851-0.99L259.071,157.063z M259.906,151.121h5.149l0.852,0.99l-1.13,0.99h-5.149l-0.851-0.99L259.906,151.121z
				 M267.099,153.498l-0.445,3.169l-1.13,0.99l-0.852-0.99l0.445-3.169l1.13-0.99L267.099,153.498z"/>
		</g>
		<g>
			<path d="M186.329,186.44l-0.445,3.168l-1.13,0.99l-0.851-0.99l0.445-3.168l1.129-0.99L186.329,186.44z M187.164,180.498
				l-0.445,3.169l-1.13,0.99l-0.851-0.99l0.445-3.169l1.129-0.99L187.164,180.498z M187.06,184.063h5.149l0.851,0.99l-1.129,0.99
				h-5.149l-0.852-0.99L187.06,184.063z M187.895,178.121h5.149l0.851,0.99l-1.129,0.99h-5.149l-0.852-0.99L187.895,178.121z
				 M194.252,186.44l-0.445,3.168l-1.131,0.99l-0.851-0.99l0.445-3.168l1.129-0.99L194.252,186.44z M195.087,180.498l-0.445,3.169
				l-1.131,0.99l-0.851-0.99l0.445-3.169l1.129-0.99L195.087,180.498z"/>
			<path d="M204.332,186.44l-0.445,3.168l-1.13,0.99l-0.851-0.99l0.445-3.168l1.129-0.99L204.332,186.44z M205.167,180.498
				l-0.445,3.169l-1.13,0.99l-0.851-0.99l0.445-3.169l1.129-0.99L205.167,180.498z M204.228,190.005h5.149l0.851,0.99l-1.129,0.99
				h-5.149l-0.852-0.99L204.228,190.005z M205.063,184.063h5.149l0.851,0.99l-1.129,0.99h-5.149l-0.852-0.99L205.063,184.063z
				 M212.255,186.44l-0.445,3.168l-1.131,0.99l-0.851-0.99l0.445-3.168l1.129-0.99L212.255,186.44z"/>
			<path d="M222.335,186.44l-0.445,3.168l-1.13,0.99l-0.851-0.99l0.445-3.168l1.129-0.99L222.335,186.44z M223.17,180.498
				l-0.445,3.169l-1.13,0.99l-0.851-0.99l0.445-3.169l1.129-0.99L223.17,180.498z M222.23,190.005h5.149l0.851,0.99l-1.129,0.99
				h-5.149l-0.852-0.99L222.23,190.005z M223.9,178.121h5.149l0.851,0.99l-1.129,0.99h-5.149l-0.852-0.99L223.9,178.121z"/>
			<path d="M240.339,186.44l-0.445,3.168l-1.13,0.99l-0.851-0.99l0.445-3.168l1.129-0.99L240.339,186.44z M240.234,190.005h5.149
				l0.851,0.99l-1.129,0.99h-5.149l-0.852-0.99L240.234,190.005z M241.069,184.063h5.149l0.851,0.99l-1.129,0.99h-5.149l-0.852-0.99
				L241.069,184.063z M248.262,186.44l-0.445,3.168l-1.131,0.99l-0.851-0.99l0.445-3.168l1.129-0.99L248.262,186.44z
				 M249.097,180.498l-0.445,3.169l-1.131,0.99l-0.851-0.99l0.445-3.169l1.129-0.99L249.097,180.498z"/>
			<path d="M258.342,186.44l-0.445,3.168l-1.13,0.99l-0.851-0.99l0.445-3.168l1.129-0.99L258.342,186.44z M259.177,180.498
				l-0.445,3.169l-1.13,0.99l-0.851-0.99l0.445-3.169l1.129-0.99L259.177,180.498z M258.237,190.005h5.149l0.851,0.99l-1.129,0.99
				h-5.149l-0.852-0.99L258.237,190.005z M259.072,184.063h5.149l0.851,0.99l-1.129,0.99h-5.149l-0.852-0.99L259.072,184.063z
				 M259.907,178.121h5.149l0.851,0.99l-1.129,0.99h-5.149l-0.852-0.99L259.907,178.121z"/>
			<path d="M276.345,186.44l-0.445,3.168l-1.13,0.99l-0.851-0.99l0.445-3.168l1.129-0.99L276.345,186.44z M277.18,180.498
				l-0.445,3.169l-1.13,0.99l-0.851-0.99l0.445-3.169l1.129-0.99L277.18,180.498z M277.075,184.063h5.149l0.851,0.99l-1.129,0.99
				h-5.149l-0.852-0.99L277.075,184.063z M277.91,178.121h5.149l0.851,0.99l-1.129,0.99h-5.149l-0.852-0.99L277.91,178.121z"/>
		</g>
		<rect x="180" y="90" fill="none" stroke="#000" width="18" height="27"/>
		<rect x="198" y="90" fill="none" stroke="#000" width="18" height="27"/>
		<rect x="216" y="90" fill="none" stroke="#000" width="18" height="27"/>
		<rect x="234" y="90" fill="none" stroke="#000" width="18" height="27"/>
		<rect x="252" y="90" fill="none" stroke="#000" width="18" height="27"/>
		<rect x="270" y="90" fill="none" stroke="#000" width="18" height="27"/>
		<rect x="180" y="117" fill="none" stroke="#000" width="18" height="27"/>
		<rect x="198" y="117" fill="none" stroke="#000" width="18" height="27"/>
		<rect x="216" y="117" fill="none" stroke="#000" width="18" height="27"/>
		<rect x="234" y="117" fill="none" stroke="#000" width="18" height="27"/>
		<rect x="252" y="117" fill="none" stroke="#000" width="18" height="27"/>
		<rect x="270" y="117" fill="none" stroke="#000" width="18" height="27"/>
		<rect x="180" y="144" fill="none" stroke="#000" width="18" height="27"/>
		<rect x="198" y="144" fill="none" stroke="#000" width="18" height="27"/>
		<rect x="216" y="144" fill="none" stroke="#000" width="18" height="27"/>
		<rect x="234" y="144" fill="none" stroke="#000" width="18" height="27"/>
		<rect x="252" y="144" fill="none" stroke="#000" width="18" height="27"/>
		<rect x="270" y="144" fill="none" stroke="#000" width="18" height="27"/>
		<rect x="180" y="171" fill="none" stroke="#000" width="18" height="27"/>
		<rect x="198" y="171" fill="none" stroke="#000" width="18" height="27"/>
		<rect x="216" y="171" fill="none" stroke="#000" width="18" height="27"/>
		<rect x="234" y="171" fill="none" stroke="#000" width="18" height="27"/>
		<rect x="252" y="171" fill="none" stroke="#000" width="18" height="27"/>
		<rect x="270" y="171" fill="none" stroke="#000" width="18" height="27"/>
	</g>
	<g>
		<g>
			<path d="M42.328,132.439l-0.445,3.17l-1.129,0.99l-0.852-0.99l0.445-3.17l1.13-0.99L42.328,132.439z M42.224,136.005h5.149
				l0.852,0.99l-1.13,0.99h-5.149l-0.851-0.99L42.224,136.005z M43.059,130.063h5.15l0.851,0.99l-1.13,0.99h-5.148l-0.852-0.99
				L43.059,130.063z"/>
			<path d="M60.227,136.005h5.149l0.852,0.99l-1.13,0.99h-5.149l-0.851-0.99L60.227,136.005z M61.062,130.063h5.149l0.852,0.99
				l-1.13,0.99h-5.149l-0.851-0.99L61.062,130.063z M68.254,132.439l-0.445,3.17l-1.13,0.99l-0.852-0.99l0.445-3.17l1.13-0.99
				L68.254,132.439z"/>
			<path d="M79.169,126.498l-0.445,3.169l-1.129,0.99l-0.852-0.99l0.445-3.169l1.13-0.99L79.169,126.498z M79.064,130.063h5.149
				l0.852,0.99l-1.13,0.99h-5.149l-0.851-0.99L79.064,130.063z M87.092,126.498l-0.445,3.169l-1.13,0.99l-0.852-0.99l0.445-3.169
				l1.13-0.99L87.092,126.498z"/>
			<path d="M97.173,126.498l-0.445,3.169l-1.129,0.99l-0.852-0.99l0.445-3.169l1.13-0.99L97.173,126.498z M96.233,136.005h5.149
				l0.852,0.99l-1.13,0.99h-5.149l-0.851-0.99L96.233,136.005z M97.068,130.063h5.149l0.852,0.99l-1.13,0.99H96.79l-0.851-0.99
				L97.068,130.063z M97.903,124.121h5.149l0.852,0.99l-1.13,0.99h-5.149l-0.851-0.99L97.903,124.121z"/>
			<path d="M114.341,132.439l-0.445,3.17l-1.129,0.99l-0.852-0.99l0.445-3.17l1.13-0.99L114.341,132.439z M115.176,126.498
				l-0.445,3.169l-1.129,0.99l-0.852-0.99l0.445-3.169l1.13-0.99L115.176,126.498z M114.236,136.005h5.149l0.852,0.99l-1.13,0.99
				h-5.149l-0.851-0.99L114.236,136.005z M115.071,130.063h5.149l0.852,0.99l-1.13,0.99h-5.149l-0.851-0.99L115.071,130.063z"/>
		</g>
		<g>
			<path d="M42.328,159.439l-0.445,3.17l-1.129,0.99l-0.852-0.99l0.445-3.17l1.13-0.99L42.328,159.439z M42.225,163.005h5.148
				l0.852,0.99l-1.129,0.99h-5.15l-0.851-0.99L42.225,163.005z M43.059,157.063h5.15l0.851,0.99l-1.13,0.99h-5.148l-0.852-0.99
				L43.059,157.063z M50.252,159.439l-0.445,3.17l-1.131,0.99l-0.852-0.99l0.445-3.17l1.13-0.99L50.252,159.439z"/>
			<path d="M61.166,153.498l-0.445,3.169l-1.129,0.99l-0.852-0.99l0.445-3.169l1.13-0.99L61.166,153.498z M61.063,157.063h5.148
				l0.852,0.99l-1.129,0.99h-5.15l-0.851-0.99L61.063,157.063z M61.896,151.121h5.15l0.851,0.99l-1.13,0.99h-5.148l-0.852-0.99
				L61.896,151.121z M69.09,153.498l-0.445,3.169l-1.131,0.99l-0.852-0.99l0.445-3.169l1.13-0.99L69.09,153.498z"/>
			<path d="M79.9,151.121h5.148l0.852,0.99l-1.129,0.99h-5.15l-0.851-0.99L79.9,151.121z"/>
			<path d="M97.068,157.063h5.15l0.851,0.99l-1.13,0.99h-5.148l-0.852-0.99L97.068,157.063z"/>
			<path d="M114.236,163.005h5.149l0.852,0.99l-1.13,0.99h-5.149l-0.851-0.99L114.236,163.005z"/>
		</g>
		<g>
			<path d="M42.329,186.439l-0.445,3.169l-1.13,0.991l-0.851-0.991l0.445-3.169l1.13-0.99L42.329,186.439z M43.164,180.498
				l-0.445,3.17l-1.13,0.99l-0.851-0.99l0.445-3.17l1.129-0.99L43.164,180.498z M42.225,190.006h5.149l0.851,0.99l-1.129,0.99
				h-5.149l-0.852-0.99L42.225,190.006z M43.895,178.122h5.149l0.851,0.99l-1.129,0.99h-5.149l-0.851-0.99L43.895,178.122z
				 M50.252,186.439l-0.445,3.169l-1.131,0.991l-0.851-0.991l0.445-3.169l1.13-0.99L50.252,186.439z M51.087,180.498l-0.445,3.17
				l-1.131,0.99l-0.851-0.99l0.445-3.17l1.129-0.99L51.087,180.498z"/>
			<path d="M68.255,186.439l-0.445,3.169l-1.131,0.991l-0.851-0.991l0.445-3.169l1.129-0.99L68.255,186.439z M69.09,180.498
				l-0.445,3.17l-1.131,0.99l-0.851-0.99l0.445-3.17l1.129-0.99L69.09,180.498z"/>
			<path d="M78.335,186.439l-0.445,3.169l-1.13,0.991l-0.851-0.991l0.445-3.169l1.129-0.99L78.335,186.439z M78.23,190.006h5.149
				l0.851,0.99l-1.129,0.99h-5.149l-0.852-0.99L78.23,190.006z M79.065,184.063h5.149l0.851,0.99l-1.129,0.99h-5.149l-0.852-0.99
				L79.065,184.063z M79.9,178.122h5.149l0.851,0.99l-1.129,0.99h-5.149l-0.852-0.99L79.9,178.122z M87.093,180.498l-0.445,3.17
				l-1.131,0.99l-0.851-0.99l0.445-3.17l1.129-0.99L87.093,180.498z"/>
			<path d="M96.234,190.006h5.149l0.851,0.99l-1.129,0.99h-5.149l-0.852-0.99L96.234,190.006z M97.069,184.063h5.149l0.851,0.99
				l-1.129,0.99h-5.149l-0.852-0.99L97.069,184.063z M97.904,178.122h5.149l0.851,0.99l-1.129,0.99h-5.149l-0.852-0.99
				L97.904,178.122z M104.262,186.439l-0.445,3.169l-1.131,0.991l-0.851-0.991l0.445-3.169l1.129-0.99L104.262,186.439z
				 M105.097,180.498l-0.445,3.17l-1.131,0.99l-0.851-0.99l0.445-3.17l1.129-0.99L105.097,180.498z"/>
			<path d="M115.177,180.498l-0.445,3.17l-1.13,0.99l-0.851-0.99l0.445-3.17l1.129-0.99L115.177,180.498z M115.072,184.063h5.149
				l0.851,0.99l-1.129,0.99h-5.149l-0.852-0.99L115.072,184.063z M122.265,186.439l-0.445,3.169l-1.131,0.991l-0.851-0.991
				l0.445-3.169l1.129-0.99L122.265,186.439z M123.1,180.498l-0.445,3.17l-1.131,0.99l-0.851-0.99l0.445-3.17l1.129-0.99
				L123.1,180.498z"/>
			<path d="M133.18,180.498l-0.445,3.17l-1.13,0.99l-0.851-0.99l0.445-3.17l1.129-0.99L133.18,180.498z M132.24,190.006h5.149
				l0.851,0.99l-1.129,0.99h-5.149l-0.852-0.99L132.24,190.006z M133.075,184.063h5.149l0.851,0.99l-1.129,0.99h-5.149l-0.852-0.99
				L133.075,184.063z M133.91,178.122h5.149l0.851,0.99l-1.129,0.99h-5.149l-0.852-0.99L133.91,178.122z M140.268,186.439
				l-0.445,3.169l-1.131,0.991l-0.851-0.991l0.445-3.169l1.129-0.99L140.268,186.439z"/>
		</g>
		<rect x="36" y="117" fill="none" stroke="#000" width="18" height="27"/>
		<rect x="54" y="117" fill="none" stroke="#000" width="18" height="27"/>
		<rect x="72" y="117" fill="none" stroke="#000" width="18" height="27"/>
		<rect x="90" y="117" fill="none" stroke="#000" width="18" height="27"/>
		<rect x="108" y="117" fill="none" stroke="#000" width="18" height="27"/>
		<rect x="126" y="117" fill="none" stroke="#000" width="18" height="27"/>
		<rect x="36" y="144" fill="none" stroke="#000" width="18" height="27"/>
		<rect x="54" y="144" fill="none" stroke="#000" width="18" height="27"/>
		<rect x="72" y="144" fill="none" stroke="#000" width="18" height="27"/>
		<rect x="90" y="144" fill="none" stroke="#000" width="18" height="27"/>
		<rect x="108" y="144" fill="none" stroke="#000" width="18" height="27"/>
		<rect x="126" y="144" fill="none" stroke="#000" width="18" height="27"/>
		<rect x="36" y="171" fill="none" stroke="#000" width="18" height="27"/>
		<rect x="54" y="171" fill="none" stroke="#000" width="18" height="27"/>
		<rect x="72" y="171" fill="none" stroke="#000" width="18" height="27"/>
		<rect x="90" y="171" fill="none" stroke="#000" width="18" height="27"/>
		<rect x="108" y="171" fill="none" stroke="#000" width="18" height="27"/>
		<rect x="126" y="171" fill="none" stroke="#000" width="18" height="27"/>
		<rect x="36" y="90" fill="none" stroke="#000" width="18" height="27"/>
		<rect x="54" y="90" fill="none" stroke="#000" width="18" height="27"/>
		<rect x="72" y="90" fill="none" stroke="#000" width="18" height="27"/>
		<rect x="90" y="90" fill="none" stroke="#000" width="18" height="27"/>
		<rect x="108" y="90" fill="none" stroke="#000" width="18" height="27"/>
		<rect x="126" y="90" fill="none" stroke="#000" width="18" height="27"/>
	</g>
	<text transform="matrix(0.95 0 0 1 37.0605 85.5)" font-family="Verdana" font-size="6.55">1010 1011 1100 1101 1110 1111</text>
	<text transform="matrix(0.95 0 0 1 181.0605 85.5)" font-family="Verdana" font-size="6.55">1010 1011 1100 1101 1110 1111</text>
	<text transform="matrix(0.95 0 0 1 14.2422 99)"><tspan x="0" y="0" font-family="Verdana" font-size="6.55">V0=0</tspan><tspan x="0" y="6.75" font-family="Verdana" font-size="6.55">V1=0</tspan><tspan x="0" y="13.5" font-family="Verdana" font-size="6.55">V2=0</tspan><tspan x="0" y="27" font-family="Verdana" font-size="6.55">V0=1</tspan><tspan x="0" y="33.75" font-family="Verdana" font-size="6.55">V1=0</tspan><tspan x="0" y="40.5" font-family="Verdana" font-size="6.55">V2=0</tspan><tspan x="0" y="54" font-family="Verdana" font-size="6.55">V0=0</tspan><tspan x="0" y="60.75" font-family="Verdana" font-size="6.55">V1=1</tspan><tspan x="0" y="67.5" font-family="Verdana" font-size="6.55">V2=0</tspan><tspan x="0" y="81" font-family="Verdana" font-size="6.55">V0=1</tspan><tspan x="0" y="87.75" font-family="Verdana" font-size="6.55">V1=1</tspan><tspan x="0" y="94.5" font-family="Verdana" font-size="6.55">V2=0</tspan></text>
	<text transform="matrix(0.95 0 0 1 158.2422 99)"><tspan x="0" y="0" font-family="Verdana" font-size="6.55">V0=0</tspan><tspan x="0" y="6.75" font-family="Verdana" font-size="6.55">V1=0</tspan><tspan x="0" y="13.5" font-family="Verdana" font-size="6.55">V2=1</tspan><tspan x="0" y="27" font-family="Verdana" font-size="6.55">V0=1</tspan><tspan x="0" y="33.75" font-family="Verdana" font-size="6.55">V1=0</tspan><tspan x="0" y="40.5" font-family="Verdana" font-size="6.55">V2=1</tspan><tspan x="0" y="54" font-family="Verdana" font-size="6.55">V0=0</tspan><tspan x="0" y="60.75" font-family="Verdana" font-size="6.55">V1=1</tspan><tspan x="0" y="67.5" font-family="Verdana" font-size="6.55">V2=1</tspan><tspan x="0" y="81" font-family="Verdana" font-size="6.55">V0=1</tspan><tspan x="0" y="87.75" font-family="Verdana" font-size="6.55">V1=1</tspan><tspan x="0" y="94.5" font-family="Verdana" font-size="6.55">V2=1</tspan></text>
</g>
</svg>
